<?xml version="1.0" encoding="UTF-8"?>
<svg version="1.1" xmlns="http://www.w3.org/2000/svg" width="1254" height="1254">
<path d="M0 0 C413.82 0 827.64 0 1254 0 C1254 413.82 1254 827.64 1254 1254 C840.18 1254 426.36 1254 0 1254 C0 840.18 0 426.36 0 0 Z " fill="none" transform="translate(0,0)"/>
<path d="M584 55 C583.30680664 55.21930176 582.61361328 55.43860352 581.89941406 55.66455078 C552.00325252 65.18085399 526.28579246 84.87677666 509 111 C508.01515625 110.5565625 507.0303125 110.113125 506.015625 109.65625 C502.00980177 107.94119402 497.93721733 106.68955038 493.75 105.5 C493.00492187 105.28569336 492.25984375 105.07138672 491.4921875 104.85058594 C490.00778268 104.42491103 488.52277098 104.00134573 487.03710938 103.58007812 C485.27710004 103.07890576 483.52096908 102.56415031 481.765625 102.046875 C480.85296875 101.78390625 479.9403125 101.5209375 479 101.25 C477.8553125 100.91742188 477.8553125 100.91742188 476.6875 100.578125 C457.36403048 96.42133214 435.95372661 97.87862227 417 103 C416.29488281 103.18191895 415.58976562 103.36383789 414.86328125 103.55126953 C383.33007415 111.82651783 355.08423667 133.16095402 338.19042969 160.93945312 C336.12955163 164.50668257 334.27880369 168.16017305 332.5 171.875 C332.17370605 172.55191895 331.84741211 173.22883789 331.51123047 173.92626953 C329.26577853 178.82945702 327.98904892 183.70613099 327 189 C325.98421875 188.84144531 324.9684375 188.68289062 323.921875 188.51953125 C317.39050913 187.71242875 310.82276303 187.71239944 304.25 187.6875 C303.56557831 187.68454926 302.88115662 187.68159851 302.17599487 187.67855835 C287.45190189 187.66415563 273.70851414 189.47882234 260 195 C259.03501587 195.387323 259.03501587 195.387323 258.05053711 195.7824707 C225.29874037 209.1799987 201.14411241 233.80169868 186.75 266 C183.91577437 272.85451307 181.86474062 279.8293066 180 287 C179.78472656 287.73734375 179.56945312 288.4746875 179.34765625 289.234375 C175.81904368 301.70042231 175.96583364 316.28646022 178 329 C176.82695312 329.11214844 175.65390625 329.22429687 174.4453125 329.33984375 C148.74392202 332.58782167 123.67770565 354.74617535 108 374 C95.23274958 390.50235028 85.8824377 409.72547058 81 430 C80.72027344 430.97839844 80.44054687 431.95679688 80.15234375 432.96484375 C75.97487188 449.61644094 75.3852031 472.57394782 80.3125 489.0625 C81.67655621 493.81317851 82.92908479 498.57986625 84.125 503.375 C84.29555908 504.05312744 84.46611816 504.73125488 84.6418457 505.42993164 C85.10432393 507.28421406 85.55263246 509.14201408 86 511 C86.31324219 511.87785156 86.62648437 512.75570313 86.94921875 513.66015625 C87 516 87 516 84.82421875 518.47265625 C83.78980652 519.34927965 82.74329028 520.21174497 81.6875 521.0625 C62.22606156 537.84452713 49.18563662 561.51480815 42 586 C41.78827148 586.71478516 41.57654297 587.42957031 41.35839844 588.16601562 C31.35131915 623.78550862 38.29435786 664.11755466 56 696 C62.61483243 707.46377961 71.0262186 717.32407158 80 727 C80.53109375 727.57363281 81.0621875 728.14726563 81.609375 728.73828125 C82.69412069 729.87088337 83.83957654 730.94506958 85 732 C85.66 732 86.32 732 87 732 C86.32904297 733.34578125 86.32904297 733.34578125 85.64453125 734.71875 C76.54676059 753.33838274 71.43134933 772.43670052 71.60888672 793.20629883 C71.62496808 795.4330794 71.60893207 797.6580394 71.58984375 799.88476562 C71.5718612 812.69856928 73.06319406 825.06938565 78 837 C78.44518457 838.54357912 78.87780766 840.09081238 79.30078125 841.640625 C80.86203301 846.90468555 83.0739477 851.56048259 85.6875 856.375 C86.13174316 857.20153076 86.57598633 858.02806152 87.03369141 858.87963867 C103.35911725 888.8623054 129.6012563 914.0756026 162.6796875 924.44140625 C165.08834454 925.11702692 165.08834454 925.11702692 168 925 C167.83886719 926.299375 167.67773438 927.59875 167.51171875 928.9375 C164.62278074 955.11690287 169.52934641 981.3005749 181 1005 C181.57234375 1006.18464844 182.1446875 1007.36929688 182.734375 1008.58984375 C199.00689674 1041.1224083 228.39121547 1064.84122773 262.3125 1077 C263.05081055 1077.26659424 263.78912109 1077.53318848 264.54980469 1077.80786133 C278.61105572 1082.52188811 292.29946872 1083.42407738 307 1083.1875 C308.66144596 1083.1723989 310.32290547 1083.15872026 311.984375 1083.14648438 C315.98992862 1083.11397011 319.99480673 1083.06250102 324 1083 C324.17450684 1083.7748877 324.34901367 1084.54977539 324.52880859 1085.34814453 C325.99590646 1091.57344966 327.63362644 1097.22113167 330.625 1102.875 C330.97054932 1103.54426514 331.31609863 1104.21353027 331.67211914 1104.90307617 C350.18506915 1140.06648132 379.24367302 1162.70766005 416.4375 1175.3125 C447.77984123 1184.10555084 480.22739694 1181.59915108 510.5625 1170.85546875 C514.35922536 1169.52296418 518.17868413 1168.25992661 522 1167 C522.45246094 1167.49886719 522.90492188 1167.99773437 523.37109375 1168.51171875 C548.32984112 1194.79153403 583.43890532 1209.74775533 619.51953125 1211.30859375 C624.69215037 1211.42501317 629.83493934 1211.28452892 635 1211 C635.80775879 1210.95601074 636.61551758 1210.91202148 637.44775391 1210.86669922 C653.08540054 1209.88361693 668.71728324 1206.57089484 683 1200 C683.61552734 1199.72816895 684.23105469 1199.45633789 684.86523438 1199.17626953 C701.70595105 1191.73657968 716.91689481 1182.23624387 729.24609375 1168.3359375 C731 1167 731 1167 732.78515625 1167.1171875 C733.51605469 1167.40851563 734.24695313 1167.69984375 735 1168 C736.051875 1168.40734375 737.10375 1168.8146875 738.1875 1169.234375 C738.79408447 1169.47647705 739.40066895 1169.7185791 740.02563477 1169.96801758 C747.09158119 1172.76661117 754.18542035 1174.98326861 761.5625 1176.8125 C762.81063477 1177.1223584 762.81063477 1177.1223584 764.08398438 1177.43847656 C794.51760039 1184.74598323 829.01285998 1180.76992063 857 1167 C857.71333496 1166.65565918 858.42666992 1166.31131836 859.16162109 1165.95654297 C873.09595782 1159.1590818 884.69485337 1150.65255752 896 1140 C897.03060547 1139.06607422 897.03060547 1139.06607422 898.08203125 1138.11328125 C909.4583722 1127.41009657 918.01769025 1112.29917941 924 1098 C925.32627646 1095.14570361 926.66488197 1092.29777141 928.01171875 1089.453125 C929.18684072 1086.97700743 929.18684072 1086.97700743 929 1084 C929.90951416 1084.02618408 930.81902832 1084.05236816 931.75610352 1084.0793457 C974.01624319 1085.13165328 1012.03845424 1075.07039003 1043.45092773 1045.45532227 C1063.03486596 1026.5939275 1075.59523957 1003.60104654 1082.75 977.4375 C1082.96100342 976.68235107 1083.17200684 975.92720215 1083.3894043 975.14916992 C1086.41887627 963.54966109 1086.13580751 951.64794714 1086.0625 939.75 C1086.05746923 938.31119949 1086.05290914 936.87239726 1086.04882812 935.43359375 C1086.03796064 931.95569249 1086.02078528 928.47785783 1086 925 C1087.94132812 924.63068359 1087.94132812 924.63068359 1089.921875 924.25390625 C1095.04116514 923.11017118 1099.54231155 921.21742185 1104.25 918.9375 C1105.07628906 918.54046875 1105.90257812 918.1434375 1106.75390625 917.734375 C1114.03932293 914.14265324 1120.55330158 909.96231806 1127 905 C1127.95261719 904.26910156 1128.90523437 903.53820312 1129.88671875 902.78515625 C1159.40684754 879.35844316 1177.51308186 845.59305887 1181.82348633 808.21484375 C1182.1923724 803.58616545 1182.19114425 798.953457 1182.1875 794.3125 C1182.1862915 792.7183728 1182.1862915 792.7183728 1182.18505859 791.09204102 C1182.10567743 780.9117959 1180.84756472 771.79519444 1178 762 C1177.71640625 760.91460938 1177.4328125 759.82921875 1177.140625 758.7109375 C1175.13627292 751.20340822 1172.62485245 744.63712268 1169.07421875 737.7421875 C1168 735 1168 735 1167.96875 732.9921875 C1169.60882941 729.82385227 1172.23179888 727.64854697 1174.8125 725.25 C1191.0147167 709.5296586 1202.20009885 690.48657289 1209 669 C1209.56190142 667.39562357 1210.12432958 665.79143143 1210.6875 664.1875 C1218.27671728 640.94820188 1218.60668232 608.26494564 1211 585 C1210.75862305 584.23171875 1210.51724609 583.4634375 1210.26855469 582.671875 C1201.94366188 556.70239807 1187.26260492 533.30252091 1166 516 C1167.32942716 510.48774103 1168.69864423 504.99356336 1170.27734375 499.546875 C1170.49946533 498.77456543 1170.72158691 498.00225586 1170.95043945 497.20654297 C1171.38832806 495.69303005 1171.8330863 494.1814815 1172.28588867 492.67236328 C1181.68422391 460.053967 1173.55573535 421.85575971 1157.83569336 392.60058594 C1151.89721894 381.96404365 1144.3490887 372.84462814 1136 364 C1135.04867188 362.96939453 1135.04867188 362.96939453 1134.078125 361.91796875 C1119.76388493 346.92350653 1096.34111088 330.84372448 1075 329 C1075.0721875 328.46375 1075.144375 327.9275 1075.21875 327.375 C1078.93637822 295.98169505 1070.3822712 263.24371898 1051 238.0625 C1049.36497622 236.01165381 1047.69052906 234.00666603 1046 232 C1045.25878906 231.10667969 1044.51757812 230.21335938 1043.75390625 229.29296875 C1022.36151828 204.46864689 989.55947442 188.48733769 957 186 C953.12371098 185.86792006 949.25321163 185.85985074 945.375 185.875 C944.37726562 185.87113281 943.37953125 185.86726562 942.3515625 185.86328125 C937.12585546 185.87019356 932.14827342 186.09148116 927 187 C926.88011719 186.13761719 926.76023437 185.27523437 926.63671875 184.38671875 C923.10415256 165.59693415 910.80643376 149.55586362 898 136 C897.30261719 135.23816406 896.60523438 134.47632813 895.88671875 133.69140625 C887.20221694 124.53060636 876.73310511 118.25027763 865.8125 112.125 C864.99354248 111.6604541 864.17458496 111.1959082 863.33081055 110.71728516 C857.70001092 107.63301311 852.17775651 105.68409837 846 104 C844.58715591 103.5579805 843.17680176 103.10789303 841.76953125 102.6484375 C841.11146484 102.43703125 840.45339844 102.225625 839.77539062 102.0078125 C838.45389485 101.58177804 837.13359543 101.15201668 835.81445312 100.71875 C828.75485084 98.46524149 821.90829914 97.83236355 814.55859375 97.7265625 C813.7619632 97.71403442 812.96533264 97.70150635 812.14456177 97.68859863 C789.61509195 97.40279518 770.12065333 99.18143067 749.1171875 107.86328125 C746 109 746 109 742 109 C740.46484375 107.453125 740.46484375 107.453125 738.9375 105.25 C723.08597546 83.72031742 703.19439156 69.70894649 679 59 C677.84113281 58.46503906 676.68226563 57.93007813 675.48828125 57.37890625 C671.4390179 55.7782456 667.43307185 54.79554897 663.1875 53.875 C655.2215478 52.1107739 655.2215478 52.1107739 653 51 C630.66357691 47.9315521 605.42489834 47.73378505 584 55 Z " fill="#D0DCEE" transform="translate(0,0)"/>
<path d="M0 0 C0.6084375 0.4125 1.216875 0.825 1.84375 1.25 C20.00109097 13.21248346 40.005844 22.05123249 62 23 C63.80404297 23.07927734 63.80404297 23.07927734 65.64453125 23.16015625 C89.62640243 23.70145462 112.94518154 16.15176012 132.3984375 2.03125 C134 1 134 1 136 1 C136.10957031 2.02738281 136.21914063 3.05476562 136.33203125 4.11328125 C138.6181164 24.58886824 144.74216268 40.68892584 161 54 C180.31963474 68.8168175 205.45575372 76.69330779 228.34106445 84.09814453 C233.34261719 85.79456688 238.16198451 87.88906079 243 90 C243.74878418 90.32129883 244.49756836 90.64259766 245.26904297 90.97363281 C275.05112913 103.78351099 299.88606321 121.93650093 312.24169922 152.89160156 C315.27817647 161.33429877 317.29100003 170.20236537 319 179 C319.26425781 179.92554688 319.52851562 180.85109375 319.80078125 181.8046875 C320.47185626 185.83113755 320.36111537 188.11169177 319 192 C313.492623 198.22221341 305.89865099 202.49991746 299 207 C297.17137572 208.24414871 295.34578927 209.49277542 293.5234375 210.74609375 C283.58131536 217.54153876 273.47676952 224.05961249 263 230 C262.15163574 230.48291504 261.30327148 230.96583008 260.42919922 231.46337891 C211.87811387 258.90896724 157.63435577 276.36493529 102 281 C101.00782471 281.0928125 100.01564941 281.185625 98.9934082 281.28125 C89.55917643 282.10952778 80.15160706 282.24212 70.6875 282.25 C69.84117004 282.25100708 68.99484009 282.25201416 68.12286377 282.25305176 C44.95914599 282.23459764 22.0355022 280.4687944 -0.63818359 275.50732422 C-3.03064316 274.99341777 -5.42836781 274.5248244 -7.83203125 274.06640625 C-18.47012845 272.00181459 -28.65185177 269.08744339 -38.93115234 265.67431641 C-41.66554505 264.78307347 -44.42554156 263.98865086 -47.1875 263.1875 C-89.65349056 250.03053063 -131.21766589 228.76795563 -166.26123047 201.35351562 C-169.08353666 199.15653928 -171.94857522 197.0172438 -174.8125 194.875 C-176.21435547 193.81925781 -176.21435547 193.81925781 -177.64453125 192.7421875 C-179.39543733 191.4471558 -181.18796729 190.2080218 -183 189 C-184.40729861 176.33431253 -180.50134963 161.38524343 -175 150 C-174.26136719 148.37384766 -174.26136719 148.37384766 -173.5078125 146.71484375 C-155.39760855 108.36627824 -119.62122863 94.0532083 -82.17211914 80.26171875 C-37.39105309 65.2170943 -37.39105309 65.2170943 -7 31 C-2.67798599 21.14301965 -1.45993686 10.57348212 0 0 Z " fill="#D0DCEE" transform="translate(559,805)"/>
<path d="M0 0 C0.77456543 -0.00440094 1.54913086 -0.00880188 2.34716797 -0.01333618 C38.60290454 -0.09925252 72.80015896 12.56789224 98.79589844 38.08544922 C111.21437684 50.70872359 119.81969833 66.13037453 124.875 83 C125.17893677 84.01368652 125.17893677 84.01368652 125.48901367 85.04785156 C128.47790488 95.49712496 129.49112896 105.48468522 129.39331055 116.3425293 C129.37505723 118.43095208 129.37280178 120.51892747 129.37304688 122.60742188 C129.35172533 130.62023711 128.94740842 138.52517051 128.1875 146.5 C127.26786519 155.00397689 127.26786519 155.00397689 130.4375 162.5 C131.345 163.16 132.2525 163.82 133.1875 164.5 C140.75882085 172.53018878 141.77110414 181.36350675 141.65966797 191.95874023 C141.24710474 204.03466874 137.64809855 215.53005966 129.3046875 224.53125 C126.04665667 227.54652559 123.03414104 229.66933533 118.9375 231.375 C115.53938722 232.92443303 114.38644918 234.40455565 112.875 237.8125 C112.30141745 239.37096577 111.74033053 240.93405271 111.1875 242.5 C103.71551524 260.84032623 93.80616912 277.80463575 80.24609375 292.28125 C78.41729654 294.25232555 76.74763717 296.28251415 75.0625 298.375 C60.00985445 315.50387252 35.16105978 329.9224165 12.1875 331.5 C-17.85534052 333.0371807 -41.80703347 325.11008141 -64.8125 305.5 C-65.7715625 304.68789063 -66.730625 303.87578125 -67.71875 303.0390625 C-75.47973885 296.29945501 -81.83712884 288.84699469 -87.8125 280.5 C-88.25948242 279.87947754 -88.70646484 279.25895508 -89.16699219 278.61962891 C-98.4533997 265.52572745 -106.25568931 250.80950539 -111.83105469 235.74853516 C-113.14464917 232.73903138 -114.5049199 232.34504794 -117.5 231.125 C-127.15912812 226.63593758 -133.02943154 218.66692442 -136.8515625 208.82421875 C-140.16631978 197.62529581 -141.142388 182.21921713 -135.8125 171.5 C-133.58384348 167.87297077 -131.39860526 164.48382136 -127.73805237 162.21327209 C-125.60047499 160.65850924 -125.60047499 160.65850924 -125.35166931 158.17234802 C-125.3785659 156.79817467 -125.3785659 156.79817467 -125.40600586 155.39624023 C-125.41599106 154.35342392 -125.42597626 153.3106076 -125.43626404 152.2361908 C-125.46632034 151.10508377 -125.49637665 149.97397675 -125.52734375 148.80859375 C-125.54650597 147.04782249 -125.54650597 147.04782249 -125.5660553 145.2514801 C-125.60837376 141.47961096 -125.67660804 137.70888403 -125.75 133.9375 C-126.44723075 96.13675293 -120.4891533 65.36864716 -93.8840332 37.12231445 C-82.34517857 25.25034646 -68.79867997 17.30397917 -53.8125 10.5 C-52.78125 10.02820313 -51.75 9.55640625 -50.6875 9.0703125 C-47.43267414 7.70565895 -44.17530455 6.57292907 -40.8125 5.5 C-40.11672852 5.27151367 -39.42095703 5.04302734 -38.70410156 4.80761719 C-25.89209933 0.77006083 -13.32605251 0.01822967 0 0 Z " fill="#CFDCEE" transform="translate(625.8125,482.5)"/>
<path d="M0 0 C2.38699123 0.01821945 4.773591 0.0205092 7.16064453 0.02026367 C29.94375551 0.06998745 29.94375551 0.06998745 39.71142578 3.08081055 C40.89349609 3.44303711 42.07556641 3.80526367 43.29345703 4.1784668 C44.35951172 4.51749023 45.42556641 4.85651367 46.52392578 5.20581055 C47.29091797 5.43139648 48.05791016 5.65698242 48.84814453 5.8894043 C65.76402058 11.07693962 82.18770547 19.59753905 95.52392578 31.20581055 C96.32056641 31.8812793 97.11720703 32.55674805 97.93798828 33.25268555 C102.87302926 37.54538786 107.44597135 42.11023033 111.89892578 46.89331055 C112.64891846 47.69514771 112.64891846 47.69514771 113.4140625 48.51318359 C116.50128117 51.88556076 119.07898856 55.34141925 121.52392578 59.20581055 C125.82284662 58.61726781 129.49529157 57.54712106 133.52392578 55.95581055 C136.17713314 54.99755996 138.84609671 54.0927387 141.52392578 53.20581055 C142.23919434 52.96717285 142.95446289 52.72853516 143.69140625 52.48266602 C156.97355412 48.27278894 170.02300923 47.74608732 183.83642578 47.76831055 C185.12140457 47.76811417 185.12140457 47.76811417 186.43234253 47.76791382 C188.91773363 47.77472963 191.40205941 47.80007082 193.88720703 47.8347168 C194.62405731 47.84030609 195.36090759 47.84589539 196.12008667 47.85165405 C201.45419651 47.9700822 206.35712066 48.92050448 211.52392578 50.20581055 C213.01433917 50.54383609 214.50517243 50.88002039 215.99658203 51.21362305 C226.30271946 53.66746529 235.38674366 57.01468209 244.64501953 62.16186523 C246.49923789 63.19209363 248.36858019 64.18886465 250.24267578 65.18237305 C276.16727201 79.16378561 297.00504534 103.65486019 305.93017578 131.81518555 C306.52392578 134.20581055 306.52392578 134.20581055 306.52392578 137.20581055 C307.92578125 136.96604492 307.92578125 136.96604492 309.35595703 136.72143555 C342.89535914 131.97933908 377.219225 141.97728496 404.10205078 162.1394043 C406.61626333 164.11761141 409.07714861 166.14494782 411.52392578 168.20581055 C412.28576172 168.83229492 413.04759766 169.4587793 413.83251953 170.10424805 C419.84659904 175.21152528 424.73516691 180.95038383 429.52392578 187.20581055 C430.11947266 187.9740918 430.71501953 188.74237305 431.32861328 189.53393555 C450.43551357 215.42070368 458.59793922 247.3799752 454.52392578 279.20581055 C455.19979736 279.29870361 455.87566895 279.39159668 456.57202148 279.48730469 C463.54925156 280.58069249 469.39290657 282.52612631 475.71142578 285.64331055 C476.61634766 286.08433105 477.52126953 286.52535156 478.45361328 286.97973633 C492.56073047 294.04075637 504.33154317 303.16847705 515.52392578 314.20581055 C516.37470703 315.01719482 516.37470703 315.01719482 517.24267578 315.8449707 C540.99984915 338.84186254 553.83595252 373.36742153 554.76220703 405.9597168 C555.01627446 421.60854788 554.08704016 435.74076146 549.54345703 450.78393555 C548.02499549 455.88038119 546.77329826 461.03795168 545.52392578 466.20581055 C546.00861328 466.61831055 546.49330078 467.03081055 546.99267578 467.45581055 C549.19092873 469.34969001 551.36185059 471.27073464 553.52392578 473.20581055 C554.15943359 473.77299805 554.79494141 474.34018555 555.44970703 474.92456055 C576.67972157 494.96780409 593.56222706 528.6811952 594.66918945 558.0612793 C594.68244216 559.50524873 594.68970655 560.94928195 594.69189453 562.39331055 C594.69522293 563.17287109 594.69855133 563.95243164 594.70198059 564.75561523 C594.70702563 566.40290746 594.70938967 568.05020982 594.70922852 569.69750977 C594.71139486 572.17050928 594.7295203 574.64304722 594.74853516 577.1159668 C594.81447775 595.63734576 592.27542716 613.2330426 584.52392578 630.20581055 C583.92858352 631.56375628 583.33354982 632.92183732 582.73876953 634.2800293 C576.13909971 649.08749516 567.28942117 662.90695227 555.47705078 674.15893555 C554.96577637 674.64797363 554.45450195 675.13701172 553.92773438 675.64086914 C552.47340358 677.01066203 550.99531027 678.35509563 549.51611328 679.69799805 C547.27100078 681.98604628 547.27100078 681.98604628 547.53955078 684.61206055 C548.72621342 687.73882242 550.01682142 690.78468005 551.39892578 693.83081055 C554.05540703 699.85337567 556.02770805 705.79984839 557.52392578 712.20581055 C557.79076172 713.30280273 558.05759766 714.39979492 558.33251953 715.5300293 C565.80314319 746.87805296 561.24722313 781.26229128 545.48681641 809.47583008 C544.60115976 811.06704788 543.7558075 812.68052306 542.91455078 814.2956543 C527.69709454 842.35754761 500.59499852 864.32053546 470.55517578 874.68237305 C468.52392578 875.20581055 468.52392578 875.20581055 465.52392578 875.20581055 C465.53439941 876.06110352 465.54487305 876.91639648 465.55566406 877.79760742 C466.04814689 924.10346157 456.02813852 961.94394395 423.10205078 995.76831055 C419.61497969 999.21599056 415.89671438 1002.22450816 411.96142578 1005.14331055 C410.91825195 1005.91807739 410.91825195 1005.91807739 409.85400391 1006.70849609 C394.96686275 1017.58091799 378.31584825 1025.43536413 360.52392578 1030.20581055 C358.73535156 1030.76461914 358.73535156 1030.76461914 356.91064453 1031.3347168 C341.2430026 1035.83076634 324.6565265 1034.56696744 308.52392578 1034.20581055 C308.30325439 1035.62615601 308.30325439 1035.62615601 308.078125 1037.07519531 C307.58200218 1039.87774287 306.99139014 1041.6821259 305.64892578 1044.14331055 C304.35513091 1046.5922794 303.21468611 1048.95079703 302.14892578 1051.51831055 C287.76566598 1085.17965678 260.06518739 1107.43472865 227.08642578 1121.51831055 C219.4596549 1124.45669293 211.6598589 1126.21962965 203.64672852 1127.76391602 C202.27989903 1128.04844291 200.92047271 1128.37286946 199.57495117 1128.74536133 C191.76140418 1130.83882693 183.73926776 1130.5998474 175.71142578 1130.58081055 C174.93313416 1130.5809314 174.15484253 1130.58105225 173.35296631 1130.58117676 C161.00839571 1130.55386506 149.44741042 1129.60194585 137.52392578 1126.20581055 C136.30318359 1125.88225586 135.08244141 1125.55870117 133.82470703 1125.2253418 C127.50804947 1123.42791891 121.70680234 1121.05748108 115.86376953 1118.0612793 C113.11532421 1117.05642199 112.16606147 1116.97948063 109.52392578 1118.20581055 C107.37703003 1120.14005432 107.37703003 1120.14005432 105.21142578 1122.58081055 C88.52250014 1139.68451943 67.16231067 1149.54421011 44.52392578 1156.20581055 C43.23421875 1156.62540039 43.23421875 1156.62540039 41.91845703 1157.0534668 C8.0203498 1167.5119526 -31.53085686 1160.83201179 -62.47607422 1144.89331055 C-74.18558405 1138.62716938 -84.03815534 1130.88120647 -93.60913086 1121.69604492 C-95.91486851 1119.50201083 -97.40825278 1118.22841769 -100.47607422 1117.20581055 C-102.84033782 1118.02056304 -105.06509064 1118.89761596 -107.35107422 1119.89331055 C-114.28925837 1122.77490182 -121.19321268 1125.30703436 -128.47607422 1127.20581055 C-130.19117188 1127.65633789 -130.19117188 1127.65633789 -131.94091797 1128.1159668 C-169.69675173 1136.35708787 -210.37067828 1128.10472287 -242.66357422 1107.39331055 C-249.31830214 1102.7820181 -255.45727237 1097.60884731 -261.47607422 1092.20581055 C-262.68070312 1091.12879883 -262.68070312 1091.12879883 -263.90966797 1090.0300293 C-279.81674184 1074.97360109 -291.30711327 1054.39000899 -296.47607422 1033.20581055 C-297.48283203 1033.221521 -298.48958984 1033.23723145 -299.52685547 1033.25341797 C-303.34382789 1033.30865606 -307.16076696 1033.34249328 -310.97802734 1033.37060547 C-312.61480696 1033.38548237 -314.25154829 1033.40579034 -315.88818359 1033.43212891 C-330.55906625 1033.66192467 -344.26218487 1032.22402849 -358.16357422 1027.20581055 C-359.39732788 1026.76458862 -359.39732788 1026.76458862 -360.65600586 1026.31445312 C-375.92961573 1020.61947764 -390.12532018 1012.86373396 -402.47607422 1002.20581055 C-403.38744141 1001.42077148 -404.29880859 1000.63573242 -405.23779297 999.8269043 C-425.46700157 981.95625813 -440.05324767 960.33298176 -447.47607422 934.20581055 C-448.02521484 932.50618164 -448.02521484 932.50618164 -448.58544922 930.7722168 C-454.20106446 912.84701018 -454.77695372 893.76010282 -452.47607422 875.20581055 C-453.77544922 875.04081055 -455.07482422 874.87581055 -456.41357422 874.70581055 C-485.36951038 868.8164676 -511.50295266 843.76299735 -527.28271484 820.08081055 C-530.73156241 814.66199931 -533.6265881 808.95566646 -536.47607422 803.20581055 C-536.97107422 802.22612305 -537.46607422 801.24643555 -537.97607422 800.23706055 C-540.76030025 794.46973519 -542.51567495 788.79412816 -543.89794922 782.54174805 C-544.24910139 780.26061008 -544.24910139 780.26061008 -545.47607422 779.20581055 C-548.18470109 768.18629736 -549.04557226 757.39574641 -548.97607422 746.08081055 C-548.97464417 745.32222748 -548.97321411 744.56364441 -548.97174072 743.78207397 C-548.8708071 722.03657973 -543.87759621 701.40862037 -533.47607422 682.20581055 C-534.04455078 681.95959961 -534.61302734 681.71338867 -535.19873047 681.4597168 C-555.92324399 670.04879254 -570.68117834 638.75648624 -577.47607422 617.20581055 C-579.21563016 610.61780604 -580.45148079 603.93863478 -581.47607422 597.20581055 C-581.76224609 595.4269043 -581.76224609 595.4269043 -582.05419922 593.61206055 C-584.25403234 574.93082784 -583.82148332 554.25165131 -578.47607422 536.20581055 C-578.26176758 535.47555664 -578.04746094 534.74530273 -577.82666016 533.99291992 C-569.89184759 507.86694317 -554.62251958 483.60697267 -533.47607422 466.20581055 C-534.3536508 461.36434874 -535.64564382 456.64342879 -536.91357422 451.89331055 C-537.56607954 449.4401229 -538.21714979 446.98662592 -538.86230469 444.53149414 C-539.24967511 443.06367766 -539.64365107 441.59757395 -540.046875 440.1340332 C-545.4278019 420.00168669 -544.08789799 396.09296707 -538.47607422 376.20581055 C-538.22599609 375.23256836 -537.97591797 374.25932617 -537.71826172 373.2565918 C-532.65521324 354.72117867 -522.8979192 336.7879764 -510.47607422 322.20581055 C-509.38359375 320.90450195 -509.38359375 320.90450195 -508.26904297 319.5769043 C-492.23247415 301.11317911 -470.61736402 285.04892527 -446.47607422 279.20581055 C-445.15607422 279.20581055 -443.83607422 279.20581055 -442.47607422 279.20581055 C-442.64107422 278.17456055 -442.80607422 277.14331055 -442.97607422 276.08081055 C-446.88259579 243.8095454 -435.32440286 211.31949059 -415.82617188 185.90356445 C-400.47842202 166.60369963 -380.76586477 152.28910221 -357.47607422 144.20581055 C-356.36232422 143.77848633 -356.36232422 143.77848633 -355.22607422 143.3425293 C-352.99581704 142.51885477 -350.76705538 141.84239401 -348.47607422 141.20581055 C-347.47962891 140.92608398 -346.48318359 140.64635742 -345.45654297 140.3581543 C-335.83029712 138.11585434 -326.31334316 137.93674774 -316.47607422 137.95581055 C-315.45643585 137.95697372 -315.45643585 137.95697372 -314.41619873 137.9581604 C-307.36421835 137.98143953 -300.44814048 138.10308578 -293.47607422 139.20581055 C-293.37375488 138.65256104 -293.27143555 138.09931152 -293.16601562 137.52929688 C-292.03873651 131.92437959 -290.34193215 127.02886468 -287.85107422 121.89331055 C-287.49843506 121.15838379 -287.1457959 120.42345703 -286.7824707 119.66625977 C-272.25874603 90.10275536 -245.45850954 67.17064459 -214.47607422 56.20581055 C-199.65134562 51.49804033 -185.05787382 48.85374636 -169.47607422 48.95581055 C-168.29529297 48.94807617 -167.11451172 48.9403418 -165.89794922 48.93237305 C-147.52639561 48.97283902 -128.15849383 53.44654561 -111.47607422 61.20581055 C-110.96560547 60.49038086 -110.45513672 59.77495117 -109.92919922 59.0378418 C-88.49161839 29.65619289 -60.78091409 11.1637004 -25.47607422 2.20581055 C-24.75258789 2.00785889 -24.02910156 1.80990723 -23.28369141 1.60595703 C-15.60928053 -0.24713642 -7.84242399 -0.06178296 0 0 Z M-89.17529297 55.1550293 C-94.26823292 61.12149034 -98.73423632 67.31857308 -102.97998047 73.9050293 C-104.47607422 76.20581055 -104.47607422 76.20581055 -105.47607422 77.20581055 C-110.19669761 77.61276084 -112.89413066 76.77196953 -116.97607422 74.45581055 C-144.31503966 60.27018414 -179.10741001 59.97886817 -208.02392578 69.00073242 C-222.12212533 73.91829763 -235.23503671 81.39020155 -246.47607422 91.20581055 C-247.39259766 91.98956055 -248.30912109 92.77331055 -249.25341797 93.58081055 C-264.72102256 107.16005188 -277.55240166 125.966257 -281.66357422 146.45581055 C-282.68182879 151.15544701 -282.68182879 151.15544701 -285.47607422 153.20581055 C-287.71044922 153.53393555 -287.71044922 153.53393555 -290.22607422 153.45581055 C-291.04591797 153.4403418 -291.86576172 153.42487305 -292.71044922 153.40893555 C-295.47607422 153.20581055 -295.47607422 153.20581055 -298.46044922 152.70581055 C-313.4398289 150.47311168 -330.96033709 150.73451638 -345.47607422 155.20581055 C-346.1948877 155.42624023 -346.91370117 155.64666992 -347.65429688 155.8737793 C-380.05384664 166.09027966 -403.08104807 187.4601663 -418.78857422 217.26831055 C-428.92718676 238.3784528 -430.85284001 260.25376395 -428.49951172 283.3425293 C-428.47607422 286.20581055 -428.47607422 286.20581055 -430.47607422 289.20581055 C-433.53076172 290.19799805 -433.53076172 290.19799805 -437.35107422 291.08081055 C-455.02535789 295.47147913 -470.89943015 304.10718372 -484.47607422 316.20581055 C-485.31525391 316.91350586 -486.15443359 317.62120117 -487.01904297 318.3503418 C-510.75180739 338.77155769 -525.20752488 369.28864231 -528.47607422 400.20581055 C-529.59442038 415.61413546 -527.89020396 430.18879797 -524.47607422 445.20581055 C-524.21439453 446.37370117 -523.95271484 447.5415918 -523.68310547 448.74487305 C-522.45562336 453.66836482 -520.86918592 457.86017033 -518.14794922 462.15893555 C-517.0045688 465.64225728 -517.43464034 467.68547067 -518.47607422 471.20581055 C-520.85397495 474.12119233 -523.6331046 476.50289433 -526.47607422 478.95581055 C-528.04160462 480.36899449 -529.60283562 481.78695633 -531.15966797 483.2097168 C-531.90974121 483.89437012 -532.65981445 484.57902344 -533.43261719 485.28442383 C-552.71038856 503.41059595 -567.33648352 534.69002139 -568.62133789 561.20336914 C-568.92574848 603.44770344 -559.18891836 638.04418979 -529.22607422 668.64331055 C-526.25395739 671.57244222 -523.1141091 674.15347298 -519.72607422 676.58862305 C-517.72025171 679.18365591 -518.07075898 681.00534968 -518.47607422 684.20581055 C-519.60257688 686.70756138 -520.7672745 689.01066742 -522.10107422 691.39331055 C-537.11694372 719.8833311 -538.29018343 753.18810297 -529.15576172 783.72924805 C-519.32331769 814.61602179 -496.44088025 839.83094436 -468.31933594 855.26000977 C-463.55271231 857.70582433 -458.53474133 859.47376692 -453.47607422 861.20581055 C-440.04635534 866.0652483 -440.04635534 866.0652483 -438.47607422 869.20581055 C-438.56021431 870.99451921 -438.71218467 872.78025438 -438.89794922 874.5612793 C-440.3402516 890.1637343 -440.69342322 906.02335414 -436.47607422 921.20581055 C-436.27739746 921.96667969 -436.0787207 922.72754883 -435.87402344 923.51147461 C-427.07840848 957.02046165 -406.80780252 985.68124365 -376.74560547 1003.46362305 C-359.11036497 1013.44995554 -339.67010244 1019.56932768 -319.30419922 1019.19799805 C-317.57113197 1019.18050004 -315.83805871 1019.16359004 -314.10498047 1019.1472168 C-311.40347386 1019.11615366 -308.70227282 1019.0804054 -306.00097656 1019.03442383 C-303.37284486 1018.99213424 -300.74507766 1018.96867634 -298.11669922 1018.94799805 C-297.3093634 1018.92937714 -296.50202759 1018.91075623 -295.67022705 1018.89157104 C-292.41890806 1018.87668938 -289.94927241 1018.96329117 -287.02709961 1020.4609375 C-285.26470482 1022.44359696 -284.66869572 1023.8193073 -284.01904297 1026.3815918 C-283.79756592 1027.20264404 -283.57608887 1028.02369629 -283.34790039 1028.86962891 C-283.12207275 1029.74369385 -282.89624512 1030.61775879 -282.66357422 1031.51831055 C-274.26815382 1061.44526266 -253.37338994 1085.11226576 -226.57666016 1100.28100586 C-194.98124351 1117.67695717 -158.60724232 1120.96140686 -123.96362305 1111.2409668 C-118.67720354 1109.67918688 -113.68734428 1107.76597143 -108.73779297 1105.3190918 C-107.99142578 1104.95170898 -107.24505859 1104.58432617 -106.47607422 1104.20581055 C-105.71939453 1103.82811523 -104.96271484 1103.45041992 -104.18310547 1103.0612793 C-100.53327606 1101.90787 -97.22087588 1101.39160336 -93.47607422 1102.20581055 C-90.99644765 1103.80703729 -89.2111288 1105.85944521 -87.28857422 1108.08081055 C-86.16430936 1109.28560307 -85.03396073 1110.48474391 -83.89794922 1111.6784668 C-83.33011719 1112.27675293 -82.76228516 1112.87503906 -82.17724609 1113.49145508 C-73.93104741 1121.80155943 -63.75370965 1127.77656369 -53.47607422 1133.20581055 C-52.84902588 1133.53798584 -52.22197754 1133.87016113 -51.57592773 1134.21240234 C-23.64666432 1148.64463425 13.46048929 1151.09115004 43.52392578 1142.20581055 C44.24209473 1142.00213867 44.96026367 1141.7984668 45.70019531 1141.58862305 C64.48380396 1136.1144704 82.47298421 1125.85244558 95.99658203 1111.61987305 C96.56787842 1111.02086182 97.1391748 1110.42185059 97.7277832 1109.8046875 C98.81129013 1108.64646687 99.8743433 1107.46863062 100.91186523 1106.26904297 C103.6836365 1103.25939069 105.28286087 1102.2430861 109.36376953 1101.61206055 C114.08043015 1101.98198374 117.99168086 1103.87751456 122.21142578 1105.89331055 C154.00084623 1120.19839126 190.15227914 1119.54945611 222.51220703 1107.7722168 C250.77569359 1097.0493416 275.59975083 1075.96564314 288.38793945 1048.32983398 C291.4306861 1041.46457922 293.86989304 1034.47821926 295.92724609 1027.25708008 C297.32885786 1022.40087847 297.32885786 1022.40087847 299.52392578 1020.20581055 C302.04132451 1020.06664929 304.44796842 1020.04657186 306.96142578 1020.1159668 C308.50332663 1020.13917997 310.04523811 1020.16169581 311.5871582 1020.18359375 C312.39414154 1020.19814606 313.20112488 1020.21269836 314.03256226 1020.22769165 C327.45961845 1020.44660479 340.43443623 1020.55521934 353.52392578 1017.20581055 C354.2292041 1017.02888672 354.93448242 1016.85196289 355.66113281 1016.66967773 C390.49240432 1007.75988926 416.78308016 987.19485444 435.57861328 956.89331055 C440.03433074 949.29953647 443.08498536 941.34826853 445.89892578 933.01831055 C446.23287354 932.03306396 446.56682129 931.04781738 446.91088867 930.03271484 C451.76491564 915.03355922 451.69466235 900.95114451 451.2565918 885.36547852 C451.18421567 882.62467766 451.14294563 879.88478513 451.10595703 877.14331055 C451.0738765 876.30477539 451.04179596 875.46624023 451.00874329 874.60229492 C450.95818301 868.81733458 450.95818301 868.81733458 453.81079102 865.73388672 C456.03701934 864.4800432 457.90879321 863.50169197 460.35205078 862.8190918 C461.06071289 862.60808838 461.769375 862.39708496 462.49951172 862.1796875 C463.25006836 861.96143311 464.000625 861.74317871 464.77392578 861.51831055 C494.56238162 852.13719721 518.11814831 830.72632439 532.77612305 803.40087891 C541.61381106 786.17311762 546.89908678 768.60198566 546.83959961 749.23120117 C546.83646151 747.10501683 546.85989736 744.98025929 546.88525391 742.85424805 C546.94667907 729.80541185 545.01990058 717.255679 540.71142578 704.89331055 C540.4586084 704.14331787 540.20579102 703.3933252 539.9453125 702.62060547 C538.38534182 698.15935844 536.5258473 694.1203264 534.14892578 690.01831055 C531.74659362 685.82700763 530.22965063 683.10556646 531.52392578 678.20581055 C534.33048122 674.61848405 537.66348318 671.67794976 541.22705078 668.8581543 C562.2700836 652.15652388 576.90553362 620.32865737 580.52392578 594.20581055 C581.07063274 588.03030098 581.05813986 581.83813035 581.02392578 575.64331055 C581.0217807 574.38948074 581.0217807 574.38948074 581.01959229 573.11032104 C580.9638099 559.92692606 579.94876678 547.72679627 575.52392578 535.20581055 C575.29398926 534.52663574 575.06405273 533.84746094 574.82714844 533.14770508 C567.10900723 510.76891913 552.64497028 487.56896577 533.08642578 473.76831055 C530.52392578 471.20581055 530.52392578 471.20581055 529.83642578 467.70581055 C530.21476606 462.75970355 532.28805733 458.39287552 534.14892578 453.84643555 C542.02952634 432.98075452 543.30884654 407.92783179 538.52392578 386.20581055 C538.38390137 385.55193359 538.24387695 384.89805664 538.09960938 384.22436523 C533.81811837 364.91986479 525.12646098 347.40480027 512.52392578 332.20581055 C511.76208984 331.28541992 511.00025391 330.3650293 510.21533203 329.41674805 C501.8269614 319.75741216 492.60241416 311.82205642 481.71923828 305.16674805 C479.93514039 304.07186157 478.16392691 302.95177361 476.45361328 301.74487305 C468.42774071 296.09437084 457.70938318 292.90214452 448.14892578 291.01831055 C443.3867306 289.95092197 443.3867306 289.95092197 441.52392578 287.20581055 C441.24682617 284.0456543 441.24682617 284.0456543 441.37158203 280.14331055 C441.40345352 278.70110761 441.43450932 277.25888647 441.46484375 275.81665039 C441.49599274 274.68655548 441.49599274 274.68655548 441.527771 273.53363037 C441.86922759 259.98231596 441.68542375 247.2350363 437.52392578 234.20581055 C437.30961914 233.51970703 437.0953125 232.83360352 436.87451172 232.12670898 C427.19515403 202.0460268 406.88988521 177.85396351 379.06005859 162.88012695 C367.60010221 157.00673124 356.20333147 153.3295794 343.52392578 151.20581055 C341.93257812 150.91577148 341.93257812 150.91577148 340.30908203 150.61987305 C334.79508996 150.01669125 329.31635076 150.06187288 323.77392578 150.08081055 C322.65759766 150.07694336 321.54126953 150.07307617 320.39111328 150.0690918 C314.99533172 150.07538059 309.7981842 150.26123386 304.44580078 150.96362305 C299.87549752 151.41249212 299.87549752 151.41249212 296.94580078 149.69018555 C295.19662126 146.63392682 294.49921682 143.90464345 293.77392578 140.45581055 C288.05459538 116.35376745 269.90697948 94.06933408 249.21142578 81.01831055 C237.78537941 74.32726096 226.30168006 68.72200907 213.52392578 65.20581055 C212.60764404 64.94324463 211.6913623 64.68067871 210.74731445 64.41015625 C202.486429 62.24755046 194.58035618 61.7697159 186.10327148 61.86962891 C183.95990456 61.89332737 181.81778254 61.89014773 179.67431641 61.88354492 C160.60303933 61.92141634 141.17485953 65.88447697 124.50830078 75.47143555 C121.48871768 76.58891906 119.72818574 76.78985793 116.52392578 76.20581055 C114.1730738 74.03966275 112.48977277 71.47333773 110.71142578 68.83081055 C109.65626822 67.3478908 108.5976657 65.8674163 107.53564453 64.3894043 C107.02179199 63.66736816 106.50793945 62.94533203 105.97851562 62.20141602 C86.83844041 35.94244072 56.20027287 19.76913382 24.54333496 14.4866333 C18.68932869 13.67256442 12.79654281 13.72253671 6.89892578 13.76831055 C5.85993637 13.77337112 5.85993637 13.77337112 4.79995728 13.77853394 C-31.75092314 14.03481619 -64.33589918 28.01502595 -89.17529297 55.1550293 Z " fill="#5478A4" transform="translate(620.47607421875,49.794189453125)"/>
<path d="M0 0 C2.9375 2.0625 2.9375 2.0625 5 5 C5.4375 8.375 5.4375 8.375 4 12 C0.94745528 14.78629843 -2.47049229 16.86779055 -6 19 C-16.28574664 25.24607643 -25.62930517 32.47488664 -35 40 C-35.59119629 40.46970215 -36.18239258 40.9394043 -36.79150391 41.42333984 C-45.56554152 48.44099705 -53.49767376 56.31915512 -61.4375 64.25 C-61.95846252 64.76987488 -62.47942505 65.28974976 -63.01617432 65.82537842 C-114.84673926 117.66821434 -149.35776325 186.4831322 -164 258 C-164.22816406 259.11213867 -164.45632812 260.22427734 -164.69140625 261.37011719 C-177.52805937 325.27831167 -174.96621055 394.70547476 -153.77636719 456.71826172 C-152.84572937 459.45340041 -151.94429886 462.19775779 -151.0390625 464.94140625 C-146.4410408 478.70968613 -141.27613891 492.08436627 -135.23974609 505.28564453 C-134.04536419 507.90067762 -132.87578763 510.52578371 -131.70703125 513.15234375 C-122.33423893 533.84861105 -110.41759869 553.67328712 -97 572 C-96.51047852 572.67063477 -96.02095703 573.34126953 -95.51660156 574.03222656 C-89.26244305 582.56278772 -82.8175668 590.90982073 -76 599 C-75.5359375 599.55429687 -75.071875 600.10859375 -74.59375 600.6796875 C-68.93262955 607.43175304 -63.20956417 613.97184806 -56.8828125 620.1171875 C-55.27443863 621.72556137 -53.84566378 623.34381271 -52.4375 625.125 C-49.28678642 628.84122627 -45.71665773 631.86538489 -42 635 C-40.66608367 636.14515459 -39.33270803 637.29093945 -38 638.4375 C-37.01 639.283125 -36.02 640.12875 -35 641 C-35.06380859 639.2675 -35.06380859 639.2675 -35.12890625 637.5 C-35.12206521 633.05136917 -34.25069219 629.22900873 -32.9375 625 C-32.71489502 624.26942383 -32.49229004 623.53884766 -32.26293945 622.78613281 C-22.13132023 590.66064398 -1.30993864 566.00874244 28.3125 550.125 C42.61571348 542.7023939 57.78160846 537.32313384 72.88134766 531.77856445 C113.02844464 518.91671783 113.02844464 518.91671783 140.71875 489.4296875 C145.88638039 477.94523418 148.48011841 465.59880332 146 453 C143.91510781 448.61128511 140.14873879 445.62316642 136.55664062 442.47509766 C133.81250538 439.87471102 131.64343655 436.87058636 129.4375 433.8125 C128.98568359 433.18972168 128.53386719 432.56694336 128.06835938 431.92529297 C123.28219017 425.18939317 119.12183073 418.09475763 115.07080078 410.89941406 C114.12108764 409.21478838 113.15361005 407.54020487 112.18359375 405.8671875 C109.61366213 401.34565366 107.71194233 397.18358732 106.25 392.1875 C104.36740745 386.65689615 101.68138613 385.17586045 96.65234375 382.546875 C85.93260027 376.29500693 79.91719673 363.39560401 76.34863281 351.90209961 C73.02618227 338.80329394 72.37197544 320.03005613 79 308 C83.87234043 300.12765957 83.87234043 300.12765957 87 297 C87.06422625 293.86633398 87.06590952 290.75402324 87.02734375 287.62109375 C87.01466973 285.6464863 87.00231093 283.67187682 86.99023438 281.69726562 C86.96568243 278.59083646 86.93801401 275.48451486 86.90405273 272.37817383 C86.77784191 260.06615886 86.97598047 248.16692049 89 236 C89.13559326 235.16960205 89.27118652 234.3392041 89.41088867 233.48364258 C94.96444113 202.6899292 113.63460532 173.67753062 138.99829102 155.43798828 C174.02347125 131.37019155 217.42210296 122.25613779 259.375 129.5625 C294.33989364 136.32390674 327.74665866 154.82869259 348.75 184 C349.85203161 185.65436248 350.93513023 187.32147646 352 189 C352.58394531 189.91136719 353.16789063 190.82273437 353.76953125 191.76171875 C361.44405945 204.28507741 366.13664568 217.64706305 369 232 C369.18602783 232.81275391 369.37205566 233.62550781 369.5637207 234.46289062 C371.06413669 242.1315394 371.08456764 249.53806818 370.94921875 257.328125 C370.92225418 259.01015518 370.92225418 259.01015518 370.89474487 260.72616577 C370.81227241 265.4243625 370.720933 270.12146237 370.58178711 274.81835938 C370.48464539 278.28013715 370.43238918 281.74033585 370.38671875 285.203125 C370.34431564 286.25332825 370.30191254 287.30353149 370.25822449 288.38555908 C370.20959723 295.33725841 371.67288006 298.98156754 376.34153748 304.16026306 C378.33091168 306.36708122 379.38027984 308.52454579 380.375 311.3125 C380.81972656 312.51326172 380.81972656 312.51326172 381.2734375 313.73828125 C383.15284744 319.58870252 383.18360873 324.94153226 383.1875 331.0625 C383.19974609 332.04927734 383.21199219 333.03605469 383.22460938 334.05273438 C383.24443273 344.14282398 382.05978304 353.2003982 377.3125 362.1875 C376.95873291 362.87312012 376.60496582 363.55874023 376.24047852 364.26513672 C373.45878614 369.49021594 370.35008784 373.94583651 366 378 C365.40058594 378.56074219 364.80117188 379.12148438 364.18359375 379.69921875 C361.71902233 381.89763775 359.5892992 383.73641569 356.5546875 385.09375 C352.67789197 387.98652709 351.54034754 391.78992564 349.75 396.1875 C341.3383074 415.73453749 329.95649871 436.38813282 313.40991211 450.34082031 C311.58675786 452.48630192 311.61354591 453.67527653 311.6015625 456.46484375 C311.59527832 457.34148682 311.58899414 458.21812988 311.58251953 459.12133789 C311.59653809 460.05067139 311.61055664 460.98000488 311.625 461.9375 C311.63515137 462.88810303 311.64530273 463.83870605 311.65576172 464.81811523 C311.97712972 479.41793819 316.28620585 493.08553032 326.56640625 503.8515625 C339.24049198 515.04056274 355.59333113 521.82814026 371.53515625 526.86328125 C375.69396302 528.22766994 379.65767874 529.90540394 383.67578125 531.6328125 C387.72126431 533.2966422 391.82275737 534.76802188 395.9375 536.25 C434.87617658 550.42694958 466.63969682 569.89370664 484.85351562 608.37841797 C487.62523455 614.71630508 489.39029993 621.28943218 491 628 C491.18401367 628.69206543 491.36802734 629.38413086 491.55761719 630.09716797 C492.84969984 634.98505533 493.17864224 638.99801721 493 644 C499.11487118 638.8352134 504.85047566 633.33579675 510.50854492 627.67675781 C511.92668284 626.26080053 513.35296665 624.85301711 514.77929688 623.4453125 C520.22476068 618.0112013 525.27754897 612.42873102 530.06005859 606.40136719 C531.8569644 604.17705741 533.72869074 602.08156614 535.6875 600 C556.77154643 576.48479116 572.8188789 548.02845327 587 520 C587.40750488 519.20110352 587.81500977 518.40220703 588.23486328 517.57910156 C599.10357843 496.11999943 607.32215197 473.08238784 614 450 C614.2882666 449.00983887 614.5765332 448.01967773 614.87353516 446.99951172 C621.99722478 422.1267709 626.95269378 396.15715351 628.82739258 370.32495117 C628.95660989 368.58444699 629.10241636 366.84516058 629.2565918 365.10668945 C637.71213352 266.4587027 604.08875437 164.7450402 541.32421875 88.7265625 C538.07869966 84.91921406 534.71692474 81.2267373 531.328125 77.546875 C529.38199408 75.41788614 527.49426568 73.25843347 525.625 71.0625 C522.56983796 67.55231383 519.34323893 64.23511832 516.0625 60.9375 C515.58441895 60.45482666 515.10633789 59.97215332 514.61376953 59.47485352 C510.57616802 55.45420532 506.32272995 51.71013264 502 48 C501.37037354 47.45835205 500.74074707 46.9167041 500.09204102 46.35864258 C488.04365918 36.07305875 475.30203809 27.00827517 462.21435547 18.10498047 C460.85334717 17.16936279 460.85334717 17.16936279 459.46484375 16.21484375 C458.21948853 15.36394165 458.21948853 15.36394165 456.94897461 14.49584961 C455 13 455 13 454 11 C453.61067802 7.4182378 453.56403282 5.63718279 455.625 2.625 C458.8659299 0.40752164 460.07854132 0.43288322 464 1 C467.57540936 2.85603198 470.82769452 5.13067899 474.125 7.4375 C475.06134277 8.07840576 475.99768555 8.71931152 476.96240234 9.37963867 C483.78051781 14.07366256 490.50098849 18.87073531 497 24 C498.33998047 25.051875 498.33998047 25.051875 499.70703125 26.125 C506.0667903 31.22008594 512.04991272 36.65945989 518 42.21875 C520.35016717 44.41067649 522.74437604 46.53652306 525.1875 48.625 C532.72942918 55.16452087 539.53408839 62.41126542 546 70 C546.89095625 71.01647677 547.78297339 72.03202418 548.67578125 73.046875 C577.27555481 105.72152539 599.66284579 143.84971204 616 184 C616.3825293 184.93859863 616.76505859 185.87719727 617.15917969 186.84423828 C636.0442927 233.78332352 645.18918399 283.36410244 645.18530273 333.87866211 C645.18747977 337.03317975 645.20568215 340.18734108 645.22460938 343.34179688 C645.27643826 361.84074146 644.01362125 380.14572457 641.1875 398.4375 C641.01863281 399.55020264 640.84976563 400.66290527 640.67578125 401.80932617 C638.31721448 416.89753072 635.48924834 432.00255893 631.02124023 446.62329102 C630.02489128 449.91769752 629.08988777 453.22422973 628.1640625 456.5390625 C611.31435626 515.59260564 582.06476083 569.53730061 542 616 C541.38511719 616.71671875 540.77023437 617.4334375 540.13671875 618.171875 C538.44133265 620.13026849 536.72590996 622.0684497 535 624 C534.24976563 624.84304688 533.49953125 625.68609375 532.7265625 626.5546875 C527.08495703 632.80619626 521.25621593 638.8474038 515.3125 644.8125 C514.61205566 645.51753662 513.91161133 646.22257324 513.18994141 646.94897461 C508.62268378 651.5028086 503.89841569 655.80622581 499 660 C497.97903257 660.88916896 496.95818881 661.77847996 495.9375 662.66796875 C469.40901676 685.42178748 439.47193145 705.13340879 407.87890625 720.10546875 C405.95251189 721.02260869 404.0386316 721.96280288 402.125 722.90625 C368.49126724 739.31604225 332.74440739 750.37702731 295.9375 756.875 C294.87144531 757.06594238 293.80539062 757.25688477 292.70703125 757.45361328 C273.36659373 760.66633957 253.91274138 761.35105794 234.34008789 761.31567383 C230.7010298 761.31251176 227.06278688 761.3361001 223.42382812 761.36132812 C199.60735823 761.42505898 176.34413084 758.61558448 153 754 C152.02756348 753.81131348 151.05512695 753.62262695 150.05322266 753.42822266 C101.8599669 743.85854217 54.28061265 723.54099996 13 697 C12.34370605 696.58089355 11.68741211 696.16178711 11.01123047 695.72998047 C-5.40781612 685.18590659 -21.07834078 673.56685211 -36 661 C-36.48914886 660.5923642 -36.97829773 660.18472839 -37.48226929 659.76473999 C-46.07261678 652.59623647 -54.2156539 645.10364685 -62.09741211 637.16333008 C-63.82248477 635.42745269 -65.55811991 633.7026491 -67.29492188 631.97851562 C-73.24846554 626.03162733 -78.85982261 620.00639252 -84.07373047 613.39160156 C-86.05706717 610.92914702 -88.15187604 608.61995999 -90.3125 606.3125 C-102.81840186 592.49132226 -112.89659434 576.60122186 -123 561 C-123.44972168 560.30583984 -123.89944336 559.61167969 -124.36279297 558.89648438 C-141.56445854 532.03736379 -154.47699172 502.45622499 -164.82104492 472.38989258 C-166.06081984 468.82512249 -167.34551918 465.27832825 -168.6328125 461.73046875 C-170.51501045 456.46995742 -172.19257183 451.22758768 -173.5625 445.8125 C-173.76738037 445.0169873 -173.97226074 444.22147461 -174.18334961 443.40185547 C-176.19499641 435.45987077 -177.91486285 427.46476274 -179.51171875 419.43017578 C-180.00197759 416.99015751 -180.51550858 414.55583921 -181.03125 412.12109375 C-185.84771277 388.84159872 -187.51030467 365.4780925 -187.39111328 341.73608398 C-187.37498948 337.93502029 -187.3911059 334.13501698 -187.41015625 330.33398438 C-187.42462109 313.70544471 -186.24283221 297.47264257 -184 281 C-183.89540466 280.2153537 -183.79080933 279.4307074 -183.68304443 278.62228394 C-175.0518091 214.71769663 -149.78623747 152.19195285 -112 100 C-110.91912109 98.49566406 -110.91912109 98.49566406 -109.81640625 96.9609375 C-99.18405225 82.48532894 -87.50094201 68.88538923 -75 56 C-74.30938477 55.2874707 -73.61876953 54.57494141 -72.90722656 53.84082031 C-65.44467999 46.17775749 -58.01603518 38.62396232 -49.58203125 32.0234375 C-46.77395527 29.82285753 -44.08257665 27.51037361 -41.375 25.1875 C-34.55585712 19.49307289 -27.33610039 14.42321789 -20.01708984 9.39550781 C-18.14911359 8.10316307 -16.30101923 6.78717621 -14.45703125 5.4609375 C-12.90048828 4.36652344 -12.90048828 4.36652344 -11.3125 3.25 C-10.42175781 2.61578125 -9.53101563 1.9815625 -8.61328125 1.328125 C-5.47161563 -0.26853615 -3.48158329 -0.40538983 0 0 Z M185.0625 148.6875 C184.31581055 148.94168701 183.56912109 149.19587402 182.79980469 149.45776367 C165.39070024 155.60096371 149.23968697 165.12119036 136 178 C134.88044922 179.02673828 134.88044922 179.02673828 133.73828125 180.07421875 C115.3876244 197.40005707 103.57717369 222.8183422 102 248 C101.92216236 252.3977581 101.97863844 256.78990978 102.05078125 261.1875 C102.06877274 262.38154953 102.08676422 263.57559906 102.1053009 264.80583191 C102.1878173 269.81058926 102.27966969 274.81431781 102.41821289 279.81787109 C102.51490984 283.50375936 102.56747935 287.18817562 102.61328125 290.875 C102.65568436 292.00317139 102.69808746 293.13134277 102.74177551 294.29370117 C102.79259783 301.97442983 102.79259783 301.97442983 100.46075439 304.99168396 C98.57055664 306.59545898 98.57055664 306.59545898 96.67982483 307.86009216 C94.27528706 309.49178102 93.32151364 311.45905136 92.125 314.0625 C91.54105469 315.28646484 91.54105469 315.28646484 90.9453125 316.53515625 C86.73455351 327.51444931 87.69359541 343.25697646 92 354 C96.40328759 362.84237427 102.73885469 371.17679476 112.25 374.6875 C114.96472952 375.94126941 115.84270079 376.69243733 117.22265625 379.390625 C117.99554686 381.55139445 118.74158448 383.72185421 119.46875 385.8984375 C128.52729466 411.71528977 147.3915066 436.58254843 169 453 C169.77730469 453.60457031 170.55460937 454.20914062 171.35546875 454.83203125 C187.86961206 467.08624479 207.29373682 474.44619889 227.875 474.25 C228.94073242 474.24033203 230.00646484 474.23066406 231.10449219 474.22070312 C260.37914247 473.77184311 285.44691217 459.06354783 305.56152344 438.46459961 C321.3510845 421.74276615 334.87044203 400.05828948 341.9296875 378.109375 C343.41900806 375.17421768 345.15847335 374.58865548 348.125 373.25 C358.00389202 368.16831863 363.3647349 360.35627847 367 350 C370.26291991 339.05083567 371.48346508 324.46291364 366.27734375 313.9765625 C363.77121497 310.09857729 360.96489379 306.55534918 357.33203125 303.6796875 C355.34808181 301.17793307 355.6736492 299.21197035 355.75 296.0625 C355.76546875 295.02222656 355.7809375 293.98195313 355.796875 292.91015625 C355.96013877 289.76732873 356.20769972 286.66347827 356.49609375 283.53125 C358.11814613 264.540828 358.7542108 244.34428391 353 226 C352.78569336 225.30567871 352.57138672 224.61135742 352.35058594 223.89599609 C343.08981252 194.86677404 322.77286996 172.09699685 295.89892578 157.95849609 C277.54073562 148.69207098 258.3495382 142.91887574 237.65234375 142.796875 C236.87798477 142.79117493 236.10362579 142.78547485 235.30580139 142.77960205 C233.67466571 142.77021552 232.0435116 142.76364356 230.41235352 142.75976562 C227.96790744 142.75011999 225.52432558 142.71906095 223.08007812 142.6875 C209.8863268 142.59766359 197.60740371 144.37876865 185.0625 148.6875 Z M161 465 C160.84144531 466.20914062 160.68289063 467.41828125 160.51953125 468.6640625 C157.75229715 488.56529179 152.07789528 505.77858358 136 519 C122.93856057 528.71488684 108.14910592 534.38958522 93 540 C91.57259066 540.52945833 90.14518183 541.05891803 88.71777344 541.58837891 C87.20510257 542.14882901 85.69240679 542.70921186 84.1796875 543.26953125 C83.41633591 543.55248047 82.65298431 543.83542969 81.86650085 544.12695312 C78.10875429 545.51859586 74.34876371 546.90317763 70.58227539 548.27099609 C38.51058316 559.97708689 8.37272764 574.13110378 -9 605 C-9.56203125 605.98484375 -10.1240625 606.9696875 -10.703125 607.984375 C-16.51677779 618.84827163 -20.85840735 631.6980613 -22 644 C-22.17341919 645.13199829 -22.17341919 645.13199829 -22.3503418 646.28686523 C-22.71546677 650.15162337 -22.89586991 652.85876444 -20.4284668 656.00195312 C-18.10797726 657.95660808 -15.71972743 659.64110941 -13.1875 661.3125 C-12.28257812 661.94712158 -11.37765625 662.58174316 -10.4453125 663.2355957 C-8.56547099 664.54726884 -6.67513604 665.84402399 -4.77490234 667.12597656 C-2.20607641 668.8608268 0.32858057 670.63452772 2.85546875 672.4296875 C42.52054979 700.40973995 87.44348384 722.6155417 134.61914062 734.40039062 C136.789604 734.94701266 138.94987592 735.52119285 141.109375 736.109375 C151.70531823 738.92054361 162.42554558 740.74420646 173.23388672 742.52880859 C176.0155999 743.00265735 178.78609373 743.52205769 181.55859375 744.046875 C257.7650128 757.92711311 341.26557511 737.91926256 409.01123047 703.02099609 C411.00308297 701.99841726 413.00313761 700.99328012 415.00390625 699.98828125 C436.16595395 689.21781438 455.66267555 675.60296218 474.35546875 661.03125 C476.18909063 659.62285506 478.07622747 658.28251502 480 657 C483.94213261 637.65069912 472.86527954 613.67870185 462.4753418 597.87646484 C446.52482492 574.57735298 423.23897919 562.76377249 397.69140625 552.859375 C394.54964377 551.63824571 391.47287335 550.3284751 388.40625 548.9296875 C384.32620949 547.09204756 380.20597682 545.69999181 375.9375 544.375 C353.24865781 537.02280738 330.86850611 528.29353934 314 511 C313.39800781 510.41863281 312.79601562 509.83726562 312.17578125 509.23828125 C301.15325285 497.75286452 298.02130717 481.28439 297 466 C292.63178423 467.54707642 288.89668787 469.85520194 285 472.3125 C278.27024203 476.45758673 271.47807071 479.41615211 264 482 C263.0716333 482.36557007 263.0716333 482.36557007 262.12451172 482.73852539 C237.51629261 492.4276743 208.58517377 488.93685054 184.75 478.6875 C178.08271659 475.72578025 172.0415958 472.08845009 166 468 C164.33928934 466.99013968 162.67422775 465.98728883 161 465 Z " fill="#5377A3" transform="translate(398,340)"/>
<path d="M0 0 C4.17940122 0.6687042 5.33611655 2.37243169 8.125 5.5 C9.92333984 8.24121094 9.92333984 8.24121094 11.5859375 11.234375 C12.21443604 12.35279785 12.84293457 13.4712207 13.49047852 14.62353516 C13.98102219 15.50903046 13.98102219 15.50903046 14.48147583 16.41241455 C16.23676043 19.57923724 18.01999145 22.73028383 19.80078125 25.8828125 C20.34408333 26.84669388 20.34408333 26.84669388 20.89836121 27.83004761 C24.38338193 33.99587973 28.01786661 40.06740844 31.6875 46.125 C38.15452362 56.82115151 44.42348566 67.62251055 50.6484375 78.4609375 C55.08101622 86.17582244 59.59283774 93.84331176 64.125 101.5 C68.45126551 100.03938926 71.50378019 97.83620545 75.0625 95 C79.57338155 91.45265767 84.12858593 88.00333013 88.8125 84.6875 C93.39475818 81.44208176 97.9604938 78.17664031 102.50512695 74.87866211 C112.1696787 67.86700091 121.91677482 60.97728911 131.73193359 54.17797852 C133.42955962 52.98763127 135.11352136 51.77768873 136.78759766 50.55444336 C137.66464355 49.91901611 138.54168945 49.28358887 139.4453125 48.62890625 C140.23695801 48.0469751 141.02860352 47.46504395 141.84423828 46.86547852 C145.5931722 44.62101401 147.85592353 44.69034757 152.125 45.5 C154.625 47 154.625 47 156.125 49.5 C156.63392593 56.37441493 155.19305469 62.47189041 153.5625 69.125 C153.16248779 70.80843506 153.16248779 70.80843506 152.75439453 72.52587891 C152.18235859 74.93279704 151.60672616 77.33886276 151.02783203 79.74414062 C149.49620501 86.11584157 147.99596898 92.49484626 146.5 98.875 C146.20383789 100.1345752 145.90767578 101.39415039 145.60253906 102.69189453 C143.68898667 110.89359867 141.91218668 119.10890741 140.36669922 127.38818359 C139.79013401 130.43420118 139.16808559 133.3714682 138.18188477 136.31347656 C137.07613926 139.64731586 136.2155733 142.97669386 135.390625 146.390625 C135.23201996 147.04451202 135.07341492 147.69839905 134.91000366 148.37210083 C134.39549238 150.4973923 133.88500393 152.62362276 133.375 154.75 C133.0187553 156.22868751 132.66247236 157.7073658 132.30615234 159.18603516 C130.08808372 168.40797635 127.89792696 177.63645774 125.75 186.875 C125.5118457 187.89368164 125.27369141 188.91236328 125.02832031 189.96191406 C123.71497059 195.66067686 122.63134944 201.31203914 121.86083984 207.11181641 C120.86045873 210.35857422 119.87507752 211.45990235 117.125 213.5 C114.01740104 214.10323017 110.94459859 214.03937266 107.78735352 214.00793457 C106.83120683 214.01417453 105.87506014 214.0204145 104.88993931 214.02684355 C101.67767938 214.04283161 98.46617216 214.0301463 95.25390625 214.01757812 C92.9544124 214.02299664 90.65492201 214.03011777 88.35543823 214.03881836 C82.10345356 214.05708661 75.85173229 214.04996959 69.59974289 214.03730202 C63.06461616 214.02719255 56.52951236 214.03656198 49.99438477 214.04284668 C38.31514613 214.05139628 26.63601855 214.03814572 14.95679915 214.01780933 C4.36534566 213.99993804 -6.22593248 214.00304206 -16.81738281 214.02148438 C-29.11415907 214.04288602 -41.4108235 214.0508609 -53.70761585 214.03903532 C-60.2179517 214.03279112 -66.72816673 214.03199027 -73.23849487 214.04518127 C-79.35838757 214.05671448 -85.47794829 214.04876003 -91.59780502 214.02560425 C-93.84725263 214.02030366 -96.09672806 214.02185385 -98.3461647 214.03065491 C-101.41027474 214.0415404 -104.47331233 214.02793098 -107.53735352 214.00793457 C-108.43345557 214.01685746 -109.32955763 214.02578034 -110.25281429 214.03497362 C-116.26506317 213.95855053 -116.26506317 213.95855053 -119.40748596 211.59607697 C-120.94295609 209.40293709 -121.6100844 207.85621191 -122.1484375 205.24609375 C-122.33003418 204.40626953 -122.51163086 203.56644531 -122.69873047 202.70117188 C-122.88064941 201.78916016 -123.06256836 200.87714844 -123.25 199.9375 C-123.67699725 197.93617955 -124.10408453 195.9348783 -124.53125 193.93359375 C-124.75039063 192.88026855 -124.96953125 191.82694336 -125.1953125 190.74169922 C-126.33265039 185.31728381 -127.54434684 179.90956492 -128.75 174.5 C-129.12294189 172.81692749 -129.12294189 172.81692749 -129.50341797 171.09985352 C-133.19642253 154.47196583 -137.07549781 137.88528341 -141.09448242 121.33325195 C-144.26094221 108.28735148 -147.19825324 95.19645928 -150.07202148 82.08349609 C-150.39539183 80.61159238 -150.71903488 79.13974855 -151.04296875 77.66796875 C-151.19837128 76.96144165 -151.3537738 76.25491455 -151.5138855 75.52697754 C-152.67148001 70.30927531 -153.94756106 65.12860014 -155.31005859 59.96020508 C-156.39029268 55.25600504 -156.979435 51.26709599 -154.3125 47 C-150.71027392 44.78324549 -149.08717575 44.76454074 -144.875 45.5 C-141.61265925 47.10795087 -138.67630063 49.12005029 -135.70556641 51.21142578 C-133.60990503 52.68660593 -131.49848292 54.1378132 -129.38671875 55.58984375 C-120.00646019 62.07176535 -110.76761906 68.73300841 -101.60839844 75.52294922 C-96.43334316 79.3593296 -91.22394242 83.13952928 -85.96630859 86.86181641 C-82.86792082 89.06005255 -79.79771675 91.29047616 -76.75 93.55859375 C-76.06196289 94.06946533 -75.37392578 94.58033691 -74.66503906 95.10668945 C-73.33061322 96.09984339 -71.99910069 97.09692683 -70.67089844 98.09838867 C-67.60371332 100.64720471 -67.60371332 100.64720471 -63.875 101.5 C-62.22244445 99.15682422 -62.22244445 99.15682422 -60.5234375 96.10546875 C-60.02703262 95.25020096 -60.02703262 95.25020096 -59.52059937 94.37765503 C-58.42369613 92.4847267 -57.33706795 90.58609069 -56.25 88.6875 C-55.48556767 87.36530231 -54.72025717 86.04361198 -53.95410156 84.72241211 C-52.77007827 82.68042575 -51.58659136 80.63814974 -50.40576172 78.59431458 C-46.52965109 71.88657236 -42.5837556 65.22177202 -38.625 58.5625 C-37.30190804 56.33343737 -35.97898871 54.10427226 -34.65625 51.875 C-33.70492187 50.27205078 -33.70492187 50.27205078 -32.734375 48.63671875 C-30.39895505 44.69692416 -28.0712776 40.75259602 -25.74462891 36.80761719 C-23.64909185 33.25588088 -21.54938626 29.7066248 -19.44824219 26.15820312 C-18.36437855 24.32687053 -17.28176984 22.49479484 -16.20019531 20.66210938 C-14.55466167 17.87619148 -12.90308193 15.09394398 -11.25 12.3125 C-10.50411621 11.04611694 -10.50411621 11.04611694 -9.74316406 9.75415039 C-9.04658691 8.58613892 -9.04658691 8.58613892 -8.3359375 7.39453125 C-7.93165527 6.71237549 -7.52737305 6.03021973 -7.11083984 5.32739258 C-4.9935827 2.19667948 -3.80407433 0.66157814 0 0 Z " fill="#CFDCEE" transform="translate(626.875,199.5)"/>
<path d="M0 0 C4.17940122 0.6687042 5.33611655 2.37243169 8.125 5.5 C9.92333984 8.24121094 9.92333984 8.24121094 11.5859375 11.234375 C12.21443604 12.35279785 12.84293457 13.4712207 13.49047852 14.62353516 C13.98102219 15.50903046 13.98102219 15.50903046 14.48147583 16.41241455 C16.23676043 19.57923724 18.01999145 22.73028383 19.80078125 25.8828125 C20.34408333 26.84669388 20.34408333 26.84669388 20.89836121 27.83004761 C24.38338193 33.99587973 28.01786661 40.06740844 31.6875 46.125 C38.15452362 56.82115151 44.42348566 67.62251055 50.6484375 78.4609375 C55.08101622 86.17582244 59.59283774 93.84331176 64.125 101.5 C68.45126551 100.03938926 71.50378019 97.83620545 75.0625 95 C79.57338155 91.45265767 84.12858593 88.00333013 88.8125 84.6875 C93.39475818 81.44208176 97.9604938 78.17664031 102.50512695 74.87866211 C112.1696787 67.86700091 121.91677482 60.97728911 131.73193359 54.17797852 C133.42955962 52.98763127 135.11352136 51.77768873 136.78759766 50.55444336 C137.66464355 49.91901611 138.54168945 49.28358887 139.4453125 48.62890625 C140.23695801 48.0469751 141.02860352 47.46504395 141.84423828 46.86547852 C145.5931722 44.62101401 147.85592353 44.69034757 152.125 45.5 C154.625 47 154.625 47 156.125 49.5 C156.63392593 56.37441493 155.19305469 62.47189041 153.5625 69.125 C153.16248779 70.80843506 153.16248779 70.80843506 152.75439453 72.52587891 C152.18235859 74.93279704 151.60672616 77.33886276 151.02783203 79.74414062 C149.49620501 86.11584157 147.99596898 92.49484626 146.5 98.875 C146.20383789 100.1345752 145.90767578 101.39415039 145.60253906 102.69189453 C143.68898667 110.89359867 141.91218668 119.10890741 140.36669922 127.38818359 C139.79013401 130.43420118 139.16808559 133.3714682 138.18188477 136.31347656 C137.07613926 139.64731586 136.2155733 142.97669386 135.390625 146.390625 C135.23201996 147.04451202 135.07341492 147.69839905 134.91000366 148.37210083 C134.39549238 150.4973923 133.88500393 152.62362276 133.375 154.75 C133.0187553 156.22868751 132.66247236 157.7073658 132.30615234 159.18603516 C130.08808372 168.40797635 127.89792696 177.63645774 125.75 186.875 C125.5118457 187.89368164 125.27369141 188.91236328 125.02832031 189.96191406 C123.71497059 195.66067686 122.63134944 201.31203914 121.86083984 207.11181641 C120.86045873 210.35857422 119.87507752 211.45990235 117.125 213.5 C114.01740104 214.10323017 110.94459859 214.03937266 107.78735352 214.00793457 C106.83120683 214.01417453 105.87506014 214.0204145 104.88993931 214.02684355 C101.67767938 214.04283161 98.46617216 214.0301463 95.25390625 214.01757812 C92.9544124 214.02299664 90.65492201 214.03011777 88.35543823 214.03881836 C82.10345356 214.05708661 75.85173229 214.04996959 69.59974289 214.03730202 C63.06461616 214.02719255 56.52951236 214.03656198 49.99438477 214.04284668 C38.31514613 214.05139628 26.63601855 214.03814572 14.95679915 214.01780933 C4.36534566 213.99993804 -6.22593248 214.00304206 -16.81738281 214.02148438 C-29.11415907 214.04288602 -41.4108235 214.0508609 -53.70761585 214.03903532 C-60.2179517 214.03279112 -66.72816673 214.03199027 -73.23849487 214.04518127 C-79.35838757 214.05671448 -85.47794829 214.04876003 -91.59780502 214.02560425 C-93.84725263 214.02030366 -96.09672806 214.02185385 -98.3461647 214.03065491 C-101.41027474 214.0415404 -104.47331233 214.02793098 -107.53735352 214.00793457 C-108.43345557 214.01685746 -109.32955763 214.02578034 -110.25281429 214.03497362 C-116.26506317 213.95855053 -116.26506317 213.95855053 -119.40748596 211.59607697 C-120.94295609 209.40293709 -121.6100844 207.85621191 -122.1484375 205.24609375 C-122.33003418 204.40626953 -122.51163086 203.56644531 -122.69873047 202.70117188 C-122.88064941 201.78916016 -123.06256836 200.87714844 -123.25 199.9375 C-123.67699725 197.93617955 -124.10408453 195.9348783 -124.53125 193.93359375 C-124.75039063 192.88026855 -124.96953125 191.82694336 -125.1953125 190.74169922 C-126.33265039 185.31728381 -127.54434684 179.90956492 -128.75 174.5 C-129.12294189 172.81692749 -129.12294189 172.81692749 -129.50341797 171.09985352 C-133.19642253 154.47196583 -137.07549781 137.88528341 -141.09448242 121.33325195 C-144.26094221 108.28735148 -147.19825324 95.19645928 -150.07202148 82.08349609 C-150.39539183 80.61159238 -150.71903488 79.13974855 -151.04296875 77.66796875 C-151.19837128 76.96144165 -151.3537738 76.25491455 -151.5138855 75.52697754 C-152.67148001 70.30927531 -153.94756106 65.12860014 -155.31005859 59.96020508 C-156.39029268 55.25600504 -156.979435 51.26709599 -154.3125 47 C-150.71027392 44.78324549 -149.08717575 44.76454074 -144.875 45.5 C-141.61265925 47.10795087 -138.67630063 49.12005029 -135.70556641 51.21142578 C-133.60990503 52.68660593 -131.49848292 54.1378132 -129.38671875 55.58984375 C-120.00646019 62.07176535 -110.76761906 68.73300841 -101.60839844 75.52294922 C-96.43334316 79.3593296 -91.22394242 83.13952928 -85.96630859 86.86181641 C-82.86792082 89.06005255 -79.79771675 91.29047616 -76.75 93.55859375 C-76.06196289 94.06946533 -75.37392578 94.58033691 -74.66503906 95.10668945 C-73.33061322 96.09984339 -71.99910069 97.09692683 -70.67089844 98.09838867 C-67.60371332 100.64720471 -67.60371332 100.64720471 -63.875 101.5 C-62.22244445 99.15682422 -62.22244445 99.15682422 -60.5234375 96.10546875 C-60.02703262 95.25020096 -60.02703262 95.25020096 -59.52059937 94.37765503 C-58.42369613 92.4847267 -57.33706795 90.58609069 -56.25 88.6875 C-55.48556767 87.36530231 -54.72025717 86.04361198 -53.95410156 84.72241211 C-52.77007827 82.68042575 -51.58659136 80.63814974 -50.40576172 78.59431458 C-46.52965109 71.88657236 -42.5837556 65.22177202 -38.625 58.5625 C-37.30190804 56.33343737 -35.97898871 54.10427226 -34.65625 51.875 C-33.70492187 50.27205078 -33.70492187 50.27205078 -32.734375 48.63671875 C-30.39895505 44.69692416 -28.0712776 40.75259602 -25.74462891 36.80761719 C-23.64909185 33.25588088 -21.54938626 29.7066248 -19.44824219 26.15820312 C-18.36437855 24.32687053 -17.28176984 22.49479484 -16.20019531 20.66210938 C-14.55466167 17.87619148 -12.90308193 15.09394398 -11.25 12.3125 C-10.50411621 11.04611694 -10.50411621 11.04611694 -9.74316406 9.75415039 C-9.04658691 8.58613892 -9.04658691 8.58613892 -8.3359375 7.39453125 C-7.93165527 6.71237549 -7.52737305 6.03021973 -7.11083984 5.32739258 C-4.9935827 2.19667948 -3.80407433 0.66157814 0 0 Z M0.125 23.5 C-4.71870633 29.90169056 -8.60703188 37.04030789 -12.62182617 43.97305298 C-18.91269332 54.83164455 -25.3300507 65.60534342 -31.875 76.3125 C-36.712414 84.22878573 -41.47505138 92.1684196 -45.9609375 100.29052734 C-54.99806495 116.62306495 -54.99806495 116.62306495 -57.875 119.5 C-62.89536188 120.42039968 -65.48817767 120.36970214 -69.87109375 117.62109375 C-72.70799358 115.4710594 -75.43103161 113.18227605 -78.16015625 110.89794922 C-80.86597886 108.69214907 -83.70612755 106.69204381 -86.5625 104.6875 C-87.739915 103.85333253 -88.91698893 103.01868346 -90.09375 102.18359375 C-90.70347656 101.75159668 -91.31320312 101.31959961 -91.94140625 100.87451172 C-95.49358459 98.34941525 -99.02837604 95.80027648 -102.5625 93.25 C-103.30878662 92.71221924 -104.05507324 92.17443848 -104.82397461 91.62036133 C-108.91647097 88.66396875 -112.98702994 85.6809691 -117.03515625 82.6640625 C-118.31096558 81.71515137 -118.31096558 81.71515137 -119.61254883 80.74707031 C-121.24699693 79.5292151 -122.87851355 78.30741235 -124.5065918 77.08105469 C-128.49964144 74.10687354 -132.32868607 71.54149766 -136.875 69.5 C-136.44597433 77.57556459 -134.63976349 85.23107999 -132.6661377 93.04367065 C-131.74129595 96.70762325 -130.84007347 100.37738479 -129.9375 104.046875 C-129.75809875 104.77438461 -129.57869751 105.50189423 -129.39385986 106.25144958 C-127.21622102 115.11938464 -125.30685306 124.04250992 -123.41308594 132.97460938 C-122.54476839 137.04987106 -121.65012447 141.11916284 -120.75 145.1875 C-120.60336914 145.85773193 -120.45673828 146.52796387 -120.30566406 147.21850586 C-118.94861105 153.34866792 -117.39985006 159.40059977 -115.875 165.5 C-113.235 176.72 -110.595 187.94 -107.875 199.5 C-36.595 199.5 34.685 199.5 108.125 199.5 C109.66802877 194.87091369 110.69320873 190.83510328 111.51953125 186.078125 C112.84112961 178.72807628 114.49765102 171.49630873 116.31225586 164.25076294 C119.62839342 150.98762881 122.68987236 137.67743749 125.61557007 124.32333374 C127.48055425 115.81391563 129.3844668 107.31746634 131.40625 98.84375 C131.5930835 98.05939072 131.77991699 97.27503143 131.97241211 96.46690369 C132.86919584 92.70838964 133.77334231 88.95183473 134.6875 85.19750977 C135.01056542 83.85176096 135.33348987 82.50597831 135.65625 81.16015625 C135.94048828 79.99105713 136.22472656 78.82195801 136.51757812 77.61743164 C137.06501695 74.80784711 137.25054709 72.34985221 137.125 69.5 C132.47407979 72.07994442 128.12758538 74.81314636 123.8125 77.9375 C123.21912842 78.36579102 122.62575684 78.79408203 122.0144043 79.23535156 C120.72699817 80.16508045 119.44065522 81.09628298 118.15527344 82.02880859 C116.06808819 83.54123984 113.97603727 85.04672175 111.8828125 86.55078125 C103.97263694 92.23975635 96.09725384 97.97455872 88.25 103.75 C87.05298462 104.62567627 87.05298462 104.62567627 85.83178711 105.51904297 C82.35321097 108.07253131 78.91053373 110.64039771 75.578125 113.3828125 C67.33005027 120.06082224 67.33005027 120.06082224 62.3125 120.75 C59.34701363 120.30574706 58.34216847 119.76931903 56.43530273 117.40454102 C55.89848877 116.50920654 55.3616748 115.61387207 54.80859375 114.69140625 C53.90282593 113.19552979 53.90282593 113.19552979 52.97875977 111.66943359 C52.36701904 110.62352051 51.75527832 109.57760742 51.125 108.5 C50.54484131 107.51467285 49.96468262 106.5293457 49.36694336 105.51416016 C47.56074536 102.41486854 45.77798818 99.30305294 44 96.1875 C37.71337931 85.2331743 31.33870995 74.3351312 24.890625 63.47509766 C22.91429391 60.1449579 20.94129207 56.81285345 18.96875 53.48046875 C17.54176104 51.07025661 16.11464833 48.66011777 14.6875 46.25 C14.02500244 45.13117432 13.36250488 44.01234863 12.67993164 42.85961914 C11.4236252 40.73955225 10.16595774 38.62029111 8.90673828 36.50195312 C7.7176404 34.49850731 6.53372436 32.49197698 5.35498047 30.48242188 C4.81373535 29.56525391 4.27249023 28.64808594 3.71484375 27.703125 C3.23781006 26.89004883 2.76077637 26.07697266 2.26928711 25.23925781 C1.89167236 24.66530273 1.51405762 24.09134766 1.125 23.5 C0.795 23.5 0.465 23.5 0.125 23.5 Z " fill="#5376A3" transform="translate(626.875,199.5)"/>
<path d="M0 0 C0.66 0.33 1.32 0.66 2 1 C0.61559342 2.63474589 -0.78303245 4.25745662 -2.1875 5.875 C-2.96480469 6.77992188 -3.74210937 7.68484375 -4.54296875 8.6171875 C-6.99573203 10.99586095 -8.77053123 12.00190486 -12 13 C-8.19524578 8.43969176 -4.25030379 4.14910608 0 0 Z " fill="#C2D2E7" transform="translate(94,528)"/>
<path d="M0 0 C0 2 0 2 -1.57421875 3.5859375 C-2.27160156 4.17632812 -2.96898437 4.76671875 -3.6875 5.375 C-4.77611328 6.30119141 -4.77611328 6.30119141 -5.88671875 7.24609375 C-8.23449112 9.19461463 -10.59564775 11.1215998 -13 13 C-12.42400084 9.46616733 -11.1890605 7.83087229 -8.625 5.375 C-8.01914063 4.78460938 -7.41328125 4.19421875 -6.7890625 3.5859375 C-2.74384236 0 -2.74384236 0 0 0 Z " fill="#C6D5EA" transform="translate(138,366)"/>
<path d="M0 0 C0.66 0.33 1.32 0.66 2 1 C0.59419724 2.65512248 -0.82506266 4.29882206 -2.25 5.9375 C-3.03890625 6.85402344 -3.8278125 7.77054687 -4.640625 8.71484375 C-6.91251033 10.91526249 -7.92319022 11.66832555 -11 12 C-7.49102731 7.81576108 -3.91939465 3.80411834 0 0 Z " fill="#C7D5EA" transform="translate(542,94)"/>
<path d="M0 0 C0.66 0.33 1.32 0.66 2 1 C0.59419724 2.65512248 -0.82506266 4.29882206 -2.25 5.9375 C-3.03890625 6.85402344 -3.8278125 7.77054687 -4.640625 8.71484375 C-6.91251033 10.91526249 -7.92319022 11.66832555 -11 12 C-7.49102731 7.81576108 -3.91939465 3.80411834 0 0 Z " fill="#5D7FA9" transform="translate(533,83)"/>
<path d="M0 0 C0.33 0.99 0.66 1.98 1 3 C-1.31 5.31 -3.62 7.62 -6 10 C-6.99 9.67 -7.98 9.34 -9 9 C-6.03 6.03 -3.06 3.06 0 0 Z " fill="#5D7DA7" transform="translate(121,360)"/>
<path d="M0 0 C1.98 0.99 3.96 1.98 6 3 C5.01 3.495 5.01 3.495 4 4 C4 4.66 4 5.32 4 6 C3.34 6 2.68 6 2 6 C1.67 7.32 1.34 8.64 1 10 C0.67 6.7 0.34 3.4 0 0 Z " fill="#BED0E8" transform="translate(490,269)"/>
<path d="M0 0 C-0.33 0.99 -0.66 1.98 -1 3 C-4.80269732 4.6900877 -7.05272168 5.19873962 -11 4 C-9.73308493 3.32591692 -8.46129251 2.66099503 -7.1875 2 C-6.47980469 1.62875 -5.77210938 1.2575 -5.04296875 0.875 C-3 0 -3 0 0 0 Z " fill="#BFD1E7" transform="translate(170,346)"/>
<path d="M0 0 C0.66 0.66 1.32 1.32 2 2 C0.75823305 2.70226141 -0.49385599 3.38629109 -1.75 4.0625 C-2.79414062 4.63677734 -2.79414062 4.63677734 -3.859375 5.22265625 C-6 6 -6 6 -10 5 C-6.7 3.35 -3.4 1.7 0 0 Z " fill="#5B7FAB" transform="translate(694,1178)"/>
<path d="M0 0 C0.66 0.33 1.32 0.66 2 1 C-0.64 3.97 -3.28 6.94 -6 10 C-6.33 9.01 -6.66 8.02 -7 7 C-4.69 4.69 -2.38 2.38 0 0 Z " fill="#C5D4E9" transform="translate(370,144)"/>
<path d="M0 0 C0.99 0.33 1.98 0.66 3 1 C2.0409375 1.86625 2.0409375 1.86625 1.0625 2.75 C-0.98223868 4.98062401 -1.58205199 6.07436391 -2 9 C-2.66 9 -3.32 9 -4 9 C-3.38461538 3.46153846 -3.38461538 3.46153846 -1.4375 1.125 C-0.963125 0.75375 -0.48875 0.3825 0 0 Z " fill="#5F81AD" transform="translate(920,1069)"/>
<path d="M0 0 C0.66 0.66 1.32 1.32 2 2 C-1.465 4.97 -1.465 4.97 -5 8 C-5 5 -5 5 -2.5 2.3125 C-1.675 1.549375 -0.85 0.78625 0 0 Z " fill="#5B7EAC" transform="translate(320,399)"/>
<path d="M0 0 C0.33 0 0.66 0 1 0 C2.12029814 5.48946087 1.79217969 8.83430559 0 14 C-0.33 14 -0.66 14 -1 14 C-1.08333357 9.1666528 -0.95261487 4.76307437 0 0 Z " fill="#A4B9D4" transform="translate(53,602)"/>
<path d="M0 0 C0.66 0.33 1.32 0.66 2 1 C1.01 2.485 1.01 2.485 0 4 C-3.625 4.6875 -3.625 4.6875 -7 5 C-4.702779 3.25728062 -2.40133271 1.60088848 0 0 Z " fill="#6484AB" transform="translate(151,338)"/>
<path d="M0 0 C0.33 0.66 0.66 1.32 1 2 C-0.32 3.65 -1.64 5.3 -3 7 C-3.99 6.67 -4.98 6.34 -6 6 C-4.02 4.02 -2.04 2.04 0 0 Z " fill="#6584AD" transform="translate(357,137)"/>
</svg>
