<?xml version="1.0" encoding="UTF-8"?>
<svg version="1.1" xmlns="http://www.w3.org/2000/svg" width="1254" height="1254">
<path d="M0 0 C413.82 0 827.64 0 1254 0 C1254 413.82 1254 827.64 1254 1254 C840.18 1254 426.36 1254 0 1254 C0 840.18 0 426.36 0 0 Z " fill="none" transform="translate(0,0)"/>
<path d="M596 46 C595.21367188 46.19867676 594.42734375 46.39735352 593.6171875 46.60205078 C581.64269638 49.69530652 570.76146152 53.91515302 560 60 C558.88238281 60.62777344 557.76476562 61.25554688 556.61328125 61.90234375 C539.12695746 72.21695453 524.71008336 85.43240058 513 102 C509.28169729 100.5630735 505.71474557 98.91843329 502.125 97.1875 C476.23636988 85.28801755 446.78045022 81.99423144 419 89 C417.16695313 89.40025391 417.16695313 89.40025391 415.296875 89.80859375 C384.69989996 97.00976465 356.55028456 118.55386052 339.80419922 144.87988281 C335.32829661 152.22088031 331.45623149 159.84624746 327.9375 167.6875 C327.4885437 168.67617065 327.4885437 168.67617065 327.03051758 169.68481445 C325.48939097 173.25463751 324.64995347 176.10480139 325 180 C323.98570923 179.75769653 323.98570923 179.75769653 322.95092773 179.51049805 C317.4564318 178.55997343 311.85569198 178.81408575 306.29272461 178.81469727 C304.10054303 178.81253748 301.90888779 178.79443508 299.71679688 178.77539062 C264.58199081 178.63027427 233.80638804 192.30046448 208.8125 216.75 C201.98698571 223.63029887 196.13385644 230.78627767 191 239 C190.41895508 239.91918213 190.41895508 239.91918213 189.82617188 240.85693359 C173.840142 266.54124271 170.91313857 293.3638279 170 323 C169.24323975 323.22469971 168.48647949 323.44939941 167.70678711 323.6809082 C146.29661711 330.15976816 128.22573328 342.91059658 112 358 C111.33226563 358.60199219 110.66453125 359.20398438 109.9765625 359.82421875 C87.56417316 380.91016056 74.18228499 413.09019228 72.89013672 443.59350586 C72.66281704 454.53636934 72.52707834 465.28863706 75 476 C75.29644607 477.43054054 75.59051401 478.86157499 75.8828125 480.29296875 C77.54985329 488.28355615 79.4343755 495.97372341 82.36328125 503.6171875 C83.10990228 506.41129076 83.26058687 507.39344787 82 510 C80.04293559 511.95997671 78.0927023 513.76077573 76 515.5625 C70.00006849 520.9235651 64.82888854 526.54057767 60 533 C59.27425781 533.96035156 58.54851563 534.92070313 57.80078125 535.91015625 C35.14292294 567.18828177 26.74086609 604.48068596 31.71801758 642.67626953 C36.57240474 671.89892337 51.49595431 699.61987911 73.04296875 719.8828125 C73.81072632 720.61528198 73.81072632 720.61528198 74.59399414 721.36254883 C76.05108926 722.74250225 77.52896294 724.10041722 79.0078125 725.45703125 C81 728 81 728 80.9765625 730.40234375 C79.79390389 733.54821565 78.56105895 736.6548196 77.25 739.75 C66.75044998 765.35299363 62.27506192 794.96271672 70 822 C70.23976562 822.91136719 70.47953125 823.82273437 70.7265625 824.76171875 C80.34060416 859.25605503 103.33952585 886.16702886 134.0625 903.8125 C140.80454827 907.56759553 147.68637466 910.51647179 155 913 C156.14597656 913.391875 157.29195313 913.78375 158.47265625 914.1875 C161.30967702 915.14312805 164.15240799 916.07655118 167 917 C166.99476318 917.68924561 166.98952637 918.37849121 166.98413086 919.08862305 C166.732767 957.18456565 172.77939482 992.11039038 198 1022 C199.12921875 1023.33998047 199.12921875 1023.33998047 200.28125 1024.70703125 C220.07911349 1047.3978924 246.7407359 1061.78925218 276 1068 C276.88913086 1068.18981445 277.77826172 1068.37962891 278.69433594 1068.57519531 C287.05754793 1070.17234627 295.26164793 1070.23335324 303.75 1070.125 C305.14061846 1070.11493717 306.53124408 1070.10581723 307.921875 1070.09765625 C311.28143819 1070.07432595 314.64062175 1070.0415923 318 1070 C318.14783936 1070.94383545 318.29567871 1071.8876709 318.44799805 1072.86010742 C318.94384948 1075.68060512 319.59961077 1077.74658694 320.8125 1080.3125 C323 1085 323 1085 323.86401367 1087.00390625 C329.41596879 1099.842716 336.67851761 1111.55737712 346 1122 C346.79148437 1122.92296875 347.58296875 1123.8459375 348.3984375 1124.796875 C364.17335285 1142.81113165 384.57573495 1155.72457499 407.125 1163.375 C408.10186768 1163.70894775 409.07873535 1164.04289551 410.08520508 1164.38696289 C422.27669161 1168.34555517 434.35144826 1169.43955113 447.125 1169.5 C447.80899872 1169.50367584 448.49299744 1169.50735168 449.19772339 1169.51113892 C465.80231584 1169.52531711 482.84748189 1167.09775848 498 1160 C499.134375 1159.525625 500.26875 1159.05125 501.4375 1158.5625 C504.75712445 1157.10652436 507.86603485 1155.4709012 511.0078125 1153.671875 C513.77524668 1152.73854426 515.25386781 1153.02776687 518 1154 C520.0703125 1155.96875 520.0703125 1155.96875 522.125 1158.5 C526.92476625 1164.07724905 532.19792938 1168.5031963 538 1173 C539.30130859 1174.07701172 539.30130859 1174.07701172 540.62890625 1175.17578125 C567.52688709 1196.71712295 604.65527551 1207.21393774 638.84887695 1203.43554688 C676.48077027 1198.82848535 711.93131828 1182.08585215 736 1152 C739.5066306 1153.36368968 742.93702368 1154.86237306 746.36547852 1156.41113281 C764.93091815 1164.73862682 783.05464845 1169.63299979 803.4375 1169.5625 C804.1696875 1169.56367828 804.901875 1169.56485657 805.65625 1169.56607056 C818.48475443 1169.54153688 830.25522829 1167.72284886 842.51489258 1163.78833008 C844.16271616 1163.26560463 845.82207484 1162.77786334 847.4909668 1162.3269043 C854.10078354 1160.52552343 859.8359997 1157.76064479 865.8125 1154.4375 C866.77591309 1153.90519775 867.73932617 1153.37289551 868.73193359 1152.82446289 C876.43347124 1148.48433767 883.30998306 1143.78228059 890 1138 C890.5067627 1137.56864746 891.01352539 1137.13729492 891.53564453 1136.69287109 C903.24942377 1126.66347399 912.2081825 1115.32254392 920 1102 C920.60714844 1101.05769531 921.21429687 1100.11539062 921.83984375 1099.14453125 C926.76253994 1091.33500228 933 1079.51622583 933 1070 C933.92111572 1070.01047363 934.84223145 1070.02094727 935.79125977 1070.03173828 C939.28591531 1070.06630201 942.78038318 1070.09112862 946.27514648 1070.10986328 C947.77322294 1070.1197769 949.27128085 1070.13331185 950.76928711 1070.15087891 C986.48115019 1070.55846647 1018.63681885 1058.11874816 1045 1034 C1045.80953125 1033.26136719 1046.6190625 1032.52273438 1047.453125 1031.76171875 C1072.34070828 1007.9618795 1085.93497566 973.36524568 1087.09326172 939.25341797 C1087.44541887 927.06396822 1087.44541887 927.06396822 1086 915 C1086.73605469 914.85691406 1087.47210937 914.71382812 1088.23046875 914.56640625 C1107.92656659 910.53829033 1125.8457393 898.81875292 1141 886 C1141.68449219 885.44957031 1142.36898438 884.89914062 1143.07421875 884.33203125 C1148.86755457 879.54029377 1153.44270803 873.95652913 1158 868 C1158.72058594 867.07960938 1159.44117188 866.15921875 1160.18359375 865.2109375 C1174.50377453 845.86210144 1183.91171841 822.03743006 1184.2734375 797.84765625 C1184.28592026 797.07864487 1184.29840302 796.30963348 1184.31126404 795.51731873 C1184.59829758 773.57435629 1183.34804624 753.13721311 1174.8203125 732.609375 C1173.92003481 729.74563453 1173.72519116 728.69310265 1175 726 C1176.86328125 723.984375 1176.86328125 723.984375 1179.3125 721.75 C1199.31837188 702.25783097 1213.71312814 675.38215465 1219 648 C1219.17587646 647.14470703 1219.35175293 646.28941406 1219.53295898 645.40820312 C1221.11117135 637.06030881 1221.36029646 628.8526936 1221.3125 620.375 C1221.31001251 619.66934906 1221.30752502 618.96369812 1221.30496216 618.23666382 C1221.09954961 580.51171647 1206.32774793 545.23115104 1180 518 C1179.06671875 517.15308594 1178.1334375 516.30617188 1177.171875 515.43359375 C1170.26953867 509.11930563 1170.26953867 509.11930563 1169.48828125 505.875 C1169.82705408 502.47398654 1171.2001402 499.4918273 1172.44921875 496.3203125 C1174.09184662 491.9557741 1175.15346675 487.5545479 1176.125 483 C1176.29386719 482.24460937 1176.46273438 481.48921875 1176.63671875 480.7109375 C1178.82256142 470.69392619 1179.27519141 460.91211721 1179.3125 450.6875 C1179.31545074 449.97779053 1179.31840149 449.26808105 1179.32144165 448.53686523 C1179.35162361 416.59624843 1166.80106387 389.61753887 1147 365 C1146.443125 364.29875 1145.88625 363.5975 1145.3125 362.875 C1141.63559158 358.39876367 1137.47652458 354.66395411 1133 351 C1132.07445312 350.236875 1131.14890625 349.47375 1130.1953125 348.6875 C1121.68314695 341.82783965 1112.55600588 336.28199084 1103 331 C1102.02546875 330.46117187 1101.0509375 329.92234375 1100.046875 329.3671875 C1094.34693236 326.3738214 1087.56152605 323 1081 323 C1081.02094727 322.23147705 1081.04189453 321.4629541 1081.06347656 320.67114258 C1082.01442372 280.28297213 1072.18810233 246.89343236 1044 217 C1043.09894531 216.00226563 1043.09894531 216.00226563 1042.1796875 214.984375 C1028.99122162 200.93951523 1011.51417291 191.27946425 993.4375 185.125 C992.63618652 184.85075195 991.83487305 184.57650391 991.00927734 184.29394531 C978.07882166 180.14610039 965.43299879 178.52179048 951.91357422 178.71875 C949.70914135 178.75059015 947.50542397 178.75980928 945.30078125 178.765625 C937.55908675 178.62291942 937.55908675 178.62291942 930 180 C929.773125 178.7625 929.54625 177.525 929.3125 176.25 C922.67971507 147.03848828 899.72719881 120.79950435 875 105 C846.3619648 87.68111746 811.59908982 80.28683546 778.58520508 88.08886719 C765.80326218 91.46775591 753.29423148 96.07117934 742 103 C741.77441406 102.46761719 741.54882812 101.93523437 741.31640625 101.38671875 C739.56336145 98.20834969 737.29085881 95.55428114 734.9375 92.8125 C734.44145264 92.23443604 733.94540527 91.65637207 733.43432617 91.06079102 C714.7586162 69.48790169 691.15896501 54.96041038 663.75 47.1875 C663.06647461 46.99260986 662.38294922 46.79771973 661.67871094 46.59692383 C650.47660975 43.59815464 639.31726377 42.63348703 627.75 42.6875 C625.83876343 42.69595947 625.83876343 42.69595947 623.88891602 42.70458984 C614.25901303 42.828325 605.3283129 43.56052344 596 46 Z " fill="#CDD9ED" transform="translate(0,0)"/>
<path d="M0 0 C1.90688599 0.00737183 1.90688599 0.00737183 3.85229492 0.01489258 C19.29834725 0.20682403 33.244434 3.09956222 47.75 8.3125 C48.4409375 8.55983887 49.131875 8.80717773 49.84375 9.06201172 C75.41729464 18.42291627 98.87988586 36.0943402 114.75 58.3125 C114.75 58.9725 114.75 59.6325 114.75 60.3125 C116.16925781 59.55066406 116.16925781 59.55066406 117.6171875 58.7734375 C127.69897321 53.47885392 137.81279348 49.46702062 148.75 46.3125 C149.87792969 45.97089844 151.00585938 45.62929687 152.16796875 45.27734375 C170.53173695 40.64872691 192.4728389 41.58962014 210.75 46.3125 C211.7090625 46.54598145 211.7090625 46.54598145 212.6875 46.78417969 C235.04057948 52.33918605 254.35593395 65.52472338 270.75 81.3125 C271.39453125 81.89386719 272.0390625 82.47523437 272.703125 83.07421875 C287.32433944 96.63642 297.14808051 116.46368854 302.75 135.3125 C302.75 135.9725 302.75 136.6325 302.75 137.3125 C303.2646582 137.15168945 303.77931641 136.99087891 304.30957031 136.82519531 C309.51580381 135.73144878 314.96604696 136.08626235 320.27197266 136.07226562 C322.45125833 136.06271364 324.62953551 136.0317459 326.80859375 136 C340.43076955 135.89534275 353.26336626 138.01550433 366.1875 142.4375 C367.50609009 142.88536865 367.50609009 142.88536865 368.85131836 143.34228516 C387.0533965 149.76964229 401.75173352 160.12365709 415.75 173.3125 C416.42546875 173.92351562 417.1009375 174.53453125 417.796875 175.1640625 C438.83483235 194.9397424 452.69732965 226.38850511 453.90869141 255.06982422 C454.11131057 263.48460779 453.97931225 271.89938617 453.75 280.3125 C454.8225 280.43882812 455.895 280.56515625 457 280.6953125 C460.13442051 281.21118588 462.04409452 281.68292325 464.75 283.1875 C467.16792689 284.51110653 469.53421862 285.64347152 472.08203125 286.71875 C489.11791588 294.12092351 504.00845782 305.9175454 516.75 319.3125 C517.40355469 319.9828125 518.05710937 320.653125 518.73046875 321.34375 C531.95774414 335.36784921 541.22288349 352.92472701 546.75 371.3125 C547.28849991 372.83445751 547.82997288 374.35536773 548.375 375.875 C551.70868676 386.10429522 552.11783443 396.32589592 552.0625 407 C552.06100952 407.71004181 552.05951904 408.42008362 552.0579834 409.15164185 C552.01877492 419.53062256 551.38426815 429.20891458 548.75 439.3125 C548.40478214 440.83863805 548.06524472 442.3660687 547.73046875 443.89453125 C545.1336787 455.56920607 545.1336787 455.56920607 543.62890625 458.484375 C542.44506269 460.9467696 542.47885481 462.59952626 542.75 465.3125 C544.09282909 467.26135733 544.09282909 467.26135733 546.046875 468.921875 C547.10551758 469.91682983 547.10551758 469.91682983 548.18554688 470.93188477 C548.94931641 471.63498779 549.71308594 472.33809082 550.5 473.0625 C569.45938364 491.27795279 582.30502878 514.23371893 589.5 539.4375 C589.69883789 540.1289209 589.89767578 540.8203418 590.10253906 541.53271484 C593.25799259 553.17217077 594.15735354 564.78776676 594.125 576.8125 C594.12512085 577.50782837 594.1252417 578.20315674 594.12536621 578.91955566 C594.09550382 591.04993548 592.90532623 602.57299607 589.75 614.3125 C589.46125 615.40433594 589.1725 616.49617187 588.875 617.62109375 C587.9711236 620.5950085 586.91710902 623.431429 585.75 626.3125 C585.48735352 626.96750488 585.22470703 627.62250977 584.95410156 628.29736328 C576.85264853 648.23767999 565.0182349 668.19886433 548.421875 682.2890625 C546.50554748 684.15396037 546.50554748 684.15396037 546.8203125 686.48046875 C547.12710937 687.41503906 547.43390625 688.34960938 547.75 689.3125 C548.18573503 690.7458389 548.62053124 692.17946335 549.0546875 693.61328125 C549.82803102 696.09229867 550.60697305 698.56897151 551.40234375 701.04101562 C555.61901281 714.65513557 557.25219297 727.69765134 557.14111328 741.87597656 C557.12500915 744.31111619 557.1410786 746.7445971 557.16015625 749.1796875 C557.20648954 779.27658051 546.05758819 807.30063132 526.75 830.3125 C526.04101562 831.19035156 525.33203125 832.06820312 524.6015625 832.97265625 C510.67859126 849.5381506 489.96417235 861.94571536 469.75 869.3125 C468.9971875 869.61027344 468.244375 869.90804687 467.46875 870.21484375 C464.42487399 871.41143994 462.05035968 872.3125 458.75 872.3125 C458.91113281 873.10140625 459.07226562 873.8903125 459.23828125 874.703125 C464.01879825 908.42219147 454.09833084 946.15423938 433.75 973.3125 C430.26463458 977.81282032 426.56531994 982.08998948 422.75 986.3125 C422.03328125 987.11300781 421.3165625 987.91351562 420.578125 988.73828125 C401.79099753 1008.62014735 374.58179869 1022.02998318 347.75 1026.3125 C347.11553955 1026.4163501 346.4810791 1026.5202002 345.82739258 1026.62719727 C337.83819801 1027.72303903 329.73310709 1027.420572 321.6875 1027.375 C320.13867332 1027.36997503 318.58984507 1027.36541388 317.04101562 1027.36132812 C313.27730424 1027.35040138 309.51366985 1027.33319175 305.75 1027.3125 C305.45234741 1028.42419556 305.45234741 1028.42419556 305.14868164 1029.55834961 C304.75217407 1031.02800171 304.75217407 1031.02800171 304.34765625 1032.52734375 C304.08734619 1033.49534912 303.82703613 1034.46335449 303.55883789 1035.46069336 C295.28063105 1064.64805652 272.59778726 1092.07330887 246.43847656 1107.10253906 C243.87812628 1108.52630223 241.30195219 1109.91355522 238.70214844 1111.26391602 C237.35222013 1111.98902133 236.02267872 1112.75291795 234.71191406 1113.54663086 C228.5090985 1117.25385913 222.2131525 1119.1695665 215.25 1121 C214.17363281 1121.29455078 213.09726562 1121.58910156 211.98828125 1121.89257812 C208.91509778 1122.72544453 205.83383985 1123.52021534 202.75 1124.3125 C201.65631104 1124.62815918 201.65631104 1124.62815918 200.54052734 1124.95019531 C192.97959947 1126.96524117 185.14277544 1126.71024142 177.375 1126.6875 C176.61611481 1126.6862915 175.85722961 1126.68508301 175.0753479 1126.68383789 C152.94655881 1126.58812943 131.74152985 1121.93819039 112.66455078 1110.16577148 C110.60001983 1108.98747738 110.60001983 1108.98747738 107.75 1110.3125 C106.30974728 1111.77163617 106.30974728 1111.77163617 104.875 1113.625 C89.30994411 1131.87143106 68.37456886 1145.55962226 45.75 1153.3125 C44.78964844 1153.66957031 43.82929687 1154.02664063 42.83984375 1154.39453125 C9.73325103 1166.29151679 -28.60610859 1163.0753539 -60.25 1148.3125 C-70.73352308 1143.32278135 -80.26001401 1137.72156982 -89.25 1130.3125 C-89.82911133 1129.83876953 -90.40822266 1129.36503906 -91.00488281 1128.87695312 C-102.65282631 1119.30481976 -102.65282631 1119.30481976 -107.25 1113.5 C-109.53841656 1110.64586451 -109.53841656 1110.64586451 -113.125 1110 C-116.54011951 1111.43435019 -119.63311998 1113.18133515 -122.828125 1115.046875 C-125.9555902 1116.68122778 -129.10097993 1117.63029672 -132.5 1118.5390625 C-134.88748521 1119.21054272 -137.21134772 1119.964194 -139.55859375 1120.76171875 C-170.53287793 1131.12263276 -206.33658566 1128.93992209 -235.5625 1114.375 C-238.14151482 1113.05051666 -240.70049261 1111.69282927 -243.25 1110.3125 C-244.62285156 1109.57193359 -244.62285156 1109.57193359 -246.0234375 1108.81640625 C-266.82953202 1096.93201893 -283.38332544 1079.76060552 -295.49609375 1059.25 C-296.73006466 1057.18330484 -298.03282025 1055.15690821 -299.3828125 1053.1640625 C-301.18478549 1050.41209537 -302.31205344 1047.76586596 -303.390625 1044.66796875 C-304.84147355 1040.69132478 -306.57667138 1036.83128954 -308.26171875 1032.94921875 C-309.25 1030.3125 -309.25 1030.3125 -309.25 1027.3125 C-310.02786865 1027.33868408 -310.8057373 1027.36486816 -311.60717773 1027.3918457 C-352.26407533 1028.57052273 -388.89608196 1018.63959505 -419.12744141 990.34375 C-443.53977423 966.94482148 -459.49113689 933.35718222 -460.25 899.3125 C-460.3446974 890.97912837 -460.31331699 882.6459895 -460.25 874.3125 C-460.79712646 874.14758057 -461.34425293 873.98266113 -461.90795898 873.81274414 C-485.21016704 866.68606905 -504.56224456 856.23759932 -522.25 839.3125 C-523.05824219 838.57902344 -523.86648438 837.84554687 -524.69921875 837.08984375 C-544.51874792 818.45264128 -559.34291147 788.71519724 -560.35986328 761.35693359 C-560.79566276 736.15014498 -558.25366976 713.99935024 -547.25390625 691.0625 C-546.1442722 688.02287987 -546.13675773 687.25413924 -547.25 684.3125 C-548.73434075 682.49632858 -548.73434075 682.49632858 -550.64453125 680.80078125 C-551.34698975 680.13449707 -552.04944824 679.46821289 -552.77319336 678.78173828 C-553.52866455 678.07001465 -554.28413574 677.35829102 -555.0625 676.625 C-580.61348338 651.73410373 -595.941522 617.98566167 -596.56498718 582.25683594 C-596.59209335 580.0670609 -596.60982396 577.87738775 -596.625 575.6875 C-596.63312714 574.99652222 -596.64125427 574.30554443 -596.64962769 573.59362793 C-596.77233139 559.6563075 -594.74184634 546.3670553 -590.25 533.125 C-589.95440186 532.25335205 -589.65880371 531.3817041 -589.35424805 530.48364258 C-580.54079004 505.65339816 -564.72154009 482.97128907 -544.25 466.3125 C-545.30270493 461.13670076 -546.57801952 456.15693898 -548.1875 451.125 C-559.40373515 415.34186174 -555.43581328 378.52722684 -538.39208984 345.43945312 C-522.01341787 314.93689002 -492.8748554 291.99714014 -460.25 281.3125 C-459.26 280.9825 -458.27 280.6525 -457.25 280.3125 C-457.23541748 279.69544189 -457.22083496 279.07838379 -457.20581055 278.44262695 C-456.04474406 234.04721885 -444.56610538 199.26169361 -412.0546875 167.8203125 C-406.86931899 162.9510934 -401.39888984 158.91211425 -395.25 155.3125 C-394.49477051 154.86922363 -393.73954102 154.42594727 -392.96142578 153.96923828 C-371.47564919 141.58867602 -350.16790344 135.8912448 -325.36938477 136.10668945 C-323.1582512 136.12524546 -320.94753244 136.12719619 -318.73632812 136.12695312 C-307.04406336 136.16724836 -307.04406336 136.16724836 -302.25 137.3125 C-302.14816406 136.31347656 -302.04632813 135.31445312 -301.94140625 134.28515625 C-301.34641714 130.16369256 -299.89897486 126.52488548 -298.1875 122.75 C-297.72331665 121.71335205 -297.72331665 121.71335205 -297.24975586 120.65576172 C-292.2033669 109.61402544 -286.26556678 99.49259252 -278.25 90.3125 C-277.50492187 89.45785156 -276.75984375 88.60320312 -275.9921875 87.72265625 C-273.77472147 85.22330894 -271.52125151 82.76295117 -269.25 80.3125 C-268.45916016 79.42304688 -268.45916016 79.42304688 -267.65234375 78.515625 C-248.43585437 57.8738717 -217.47702827 44.44629902 -189.49047852 43.18847656 C-163.79238761 42.52008277 -142.27133374 45.71551187 -119.41796875 57.73828125 C-116.54108047 59.46083459 -116.54108047 59.46083459 -114.25 59.3125 C-112.74457477 57.63243856 -112.74457477 57.63243856 -111.1875 55.4375 C-92.09070749 30.27698368 -66.34240729 13.17632318 -36.125 4.5625 C-35.43374023 4.36374268 -34.74248047 4.16498535 -34.03027344 3.96020508 C-22.79545682 0.91385139 -11.61040833 -0.05345421 0 0 Z M-82.09765625 46.25 C-84.0550107 48.12565 -86.07758905 49.80188253 -88.1875 51.5 C-93.6136376 56.19527009 -97.803665 62.0812516 -102.10009766 67.79052734 C-103.07334069 69.07867958 -104.07117273 70.34819751 -105.07421875 71.61328125 C-106.43967112 73.24221761 -106.43967112 73.24221761 -106.25 75.3125 C-111.10920007 76.93223336 -114.82421727 76.96989683 -119.51171875 74.80859375 C-120.64222656 74.12925781 -121.77273438 73.44992188 -122.9375 72.75 C-148.23124822 58.41880095 -179.0177145 54.08286783 -207.25 61.3125 C-223.8912561 66.10378643 -239.22530838 73.84365891 -252.25 85.3125 C-253.06726563 85.99828125 -253.88453125 86.6840625 -254.7265625 87.390625 C-271.81977968 102.10243421 -283.42045953 121.29420035 -289.46386719 142.91967773 C-291.35685808 149.4575669 -291.35685808 149.4575669 -294.25 151.3125 C-296.34375 151.640625 -296.34375 151.640625 -298.75 151.5625 C-299.64589844 151.53671875 -300.54179687 151.5109375 -301.46484375 151.484375 C-304.09135256 151.3222903 -306.69532313 151.08420691 -309.3125 150.8125 C-340.41672182 147.85019316 -371.25912271 155.10408633 -396.25 174.3125 C-400.7865273 178.10109864 -405.05423201 182.15309533 -409.25 186.3125 C-410.0646875 187.11429688 -410.879375 187.91609375 -411.71875 188.7421875 C-426.70114104 204.41039221 -436.03234677 225.24806241 -440.25 246.3125 C-440.43087158 247.20735107 -440.61174316 248.10220215 -440.7980957 249.02416992 C-441.32247442 252.83986789 -441.28311769 256.54251126 -441.171875 260.37890625 C-441.14463205 261.93162001 -441.11862755 263.48435591 -441.09375 265.03710938 C-441.05045363 267.4624442 -440.99965553 269.88661294 -440.92773438 272.3112793 C-440.86099727 274.66733751 -440.82634085 277.02212527 -440.796875 279.37890625 C-440.75345978 280.46033653 -440.75345978 280.46033653 -440.70916748 281.56361389 C-440.68861549 285.4455009 -441.1074748 287.13174411 -443.5390625 290.21557617 C-445.8522068 292.00480495 -447.31413501 293.04802488 -450.078125 293.796875 C-450.78678711 294.00473633 -451.49544922 294.21259766 -452.22558594 294.42675781 C-452.97614258 294.63655273 -453.72669922 294.84634766 -454.5 295.0625 C-484.8245413 304.41122547 -510.59401253 326.51387623 -526.06396484 354.04101562 C-540.22203598 381.15643223 -544.19749935 413.82539295 -535.25 443.3125 C-533.63407885 447.83238364 -531.85737248 452.27636835 -529.89257812 456.65600586 C-527.79349003 461.40226626 -526.68569474 465.00534337 -527.25 470.3125 C-529.20699501 473.57415836 -531.77441393 475.79702786 -534.625 478.25 C-555.56521275 496.3878051 -570.79785747 518.4396224 -578.25 545.3125 C-578.5696875 546.4365625 -578.889375 547.560625 -579.21875 548.71875 C-586.66874236 580.45019892 -580.42589014 614.97249248 -563.640625 642.62109375 C-556.42052693 653.98947716 -547.46519114 663.44004812 -537.8515625 672.81640625 C-536.92778809 673.72350342 -536.92778809 673.72350342 -535.98535156 674.64892578 C-534.45792168 676.11317834 -532.86970936 677.51346154 -531.2734375 678.90234375 C-529.25 681.3125 -529.25 681.3125 -528.70703125 684.12890625 C-529.4153101 688.28176428 -531.0204763 691.52778965 -532.9375 695.25 C-543.94153011 717.70978161 -551.2384203 748.34889333 -543.375 773.0625 C-543.00375 774.135 -542.6325 775.2075 -542.25 776.3125 C-542.07984375 777.12976563 -541.9096875 777.94703125 -541.734375 778.7890625 C-537.66112434 798.1631137 -525.73627464 814.31538163 -512.25 828.3125 C-511.66734375 828.95832031 -511.0846875 829.60414063 -510.484375 830.26953125 C-494.68676698 847.30382071 -471.56000929 856.27691424 -449.7265625 862.453125 C-447.25 863.3125 -447.25 863.3125 -445.25 865.3125 C-445.0986785 867.94776384 -445.06714019 870.47696423 -445.125 873.109375 C-445.13635986 874.28720551 -445.13635986 874.28720551 -445.14794922 875.48883057 C-445.18048767 878.84552075 -445.23585299 882.20172158 -445.29101562 885.55810547 C-445.44862364 896.04525966 -445.17575929 905.964569 -443.25 916.3125 C-443.04648926 917.44606934 -443.04648926 917.44606934 -442.83886719 918.60253906 C-438.66015207 940.1007866 -427.62792369 959.03658639 -413.25 975.3125 C-412.35087891 976.33730469 -412.35087891 976.33730469 -411.43359375 977.3828125 C-393.30152039 996.72891237 -363.77558537 1011.13995844 -337.18725586 1012.41111755 C-334.92280492 1012.45650462 -332.65939973 1012.47622857 -330.39453125 1012.48828125 C-328.70376325 1012.51145463 -327.01300796 1012.5355709 -325.32226562 1012.56054688 C-322.68228273 1012.5957795 -320.04277849 1012.62509956 -317.40258789 1012.63842773 C-314.83683357 1012.65387979 -312.2724292 1012.69403099 -309.70703125 1012.73828125 C-308.91843216 1012.73637283 -308.12983307 1012.73446442 -307.31733704 1012.73249817 C-303.82212711 1012.81061155 -301.67735582 1012.99954933 -298.81958008 1015.09228516 C-297.30346395 1017.23687375 -296.42991641 1018.9077518 -295.6796875 1021.41015625 C-295.42856201 1022.20220459 -295.17743652 1022.99425293 -294.91870117 1023.81030273 C-294.65677979 1024.65665283 -294.3948584 1025.50300293 -294.125 1026.375 C-288.81849385 1042.38815406 -281.15359057 1056.44446089 -270.25 1069.3125 C-269.58355469 1070.12976562 -268.91710937 1070.94703125 -268.23046875 1071.7890625 C-263.1968276 1077.75561881 -257.43618563 1082.57674773 -251.25 1087.3125 C-250.48171875 1087.90804688 -249.7134375 1088.50359375 -248.921875 1089.1171875 C-238.36126126 1096.91192621 -225.88725594 1103.68498327 -213.25 1107.3125 C-212.06792969 1107.68246094 -210.88585937 1108.05242187 -209.66796875 1108.43359375 C-190.74799923 1113.80268151 -167.15208557 1113.61712941 -148.25 1108.3125 C-147.30125 1108.06886719 -146.3525 1107.82523438 -145.375 1107.57421875 C-136.25661269 1104.90202469 -121.06669582 1100.12919582 -114.25 1093.3125 C-108.6197479 1092.74947479 -108.6197479 1092.74947479 -106.25 1093.3125 C-104.43107078 1094.92228404 -102.87419518 1096.51978654 -101.25 1098.3125 C-74.29725899 1126.42995384 -44.41637044 1145.14752859 -4.44921875 1146.78442383 C29.85976273 1147.23523883 63.29296655 1133.78215425 88.05078125 1110.22265625 C93.56525208 1104.83841522 98.77031211 1099.1946556 103.75 1093.3125 C104.75 1092.3125 104.75 1092.3125 107.3515625 1091.9921875 C111.65506533 1092.39780501 114.54183724 1094.20401296 118.125 1096.4375 C143.14924432 1111.24574518 176.14412185 1116.41233986 204.57177734 1109.29370117 C237.50952458 1099.89135692 264.64882579 1079.15502052 281.578125 1049.484375 C287.02155722 1039.4115734 291.07232437 1028.42379664 293.92822266 1017.35473633 C294.75 1015.3125 294.75 1015.3125 297.75 1013.3125 C300.42168326 1013.18804559 302.98615639 1013.17609582 305.65234375 1013.2578125 C307.27203479 1013.28666436 308.89174655 1013.31437145 310.51147461 1013.34106445 C311.35757294 1013.35771149 312.20367126 1013.37435852 313.07540894 1013.39151001 C327.73087388 1013.64954263 341.59273601 1013.53849713 355.75 1009.3125 C356.40822754 1009.13058105 357.06645508 1008.94866211 357.74462891 1008.76123047 C388.07150495 1000.31739511 414.15562114 979.58070792 429.75 952.3125 C441.60870641 929.5192071 445.30628486 907.26441082 444.61303711 881.90063477 C444.54677508 879.26321594 444.5048274 876.62620898 444.46484375 873.98828125 C444.43478745 873.18932938 444.40473114 872.3903775 444.37376404 871.56721497 C444.3220713 867.69067669 444.47735827 865.76622635 446.52099609 862.36523438 C448.68651473 860.37096485 449.89893889 859.52475628 452.69921875 858.79296875 C453.45638184 858.57987061 454.21354492 858.36677246 454.99365234 858.1472168 C455.80012207 857.93363525 456.6065918 857.72005371 457.4375 857.5 C472.30475197 853.16074739 485.50286391 846.8668197 497.75 837.3125 C498.32347168 836.86922363 498.89694336 836.42594727 499.48779297 835.96923828 C517.3362918 821.97776839 528.53386088 804.36635649 536.75 783.3125 C537.3378125 781.81783203 537.3378125 781.81783203 537.9375 780.29296875 C548.22913907 752.02879822 543.58017326 716.78725153 531.70703125 689.76171875 C530.38005213 686.36573546 530.01923557 683.8932457 530.75 680.3125 C532.36332585 678.59414751 534.04157071 676.93633032 535.75 675.3125 C560.66450623 650.33443636 579.12927565 617.65302066 579.11132812 581.56054688 C579.09521484 580.26181641 579.07910156 578.96308594 579.0625 577.625 C579.06733398 575.65950195 579.06733398 575.65950195 579.07226562 573.65429688 C579.02850482 565.67789567 578.38243323 558.12019496 576.75 550.3125 C576.59442627 549.56025146 576.43885254 548.80800293 576.27856445 548.03295898 C572.37937481 530.53460506 564.55887162 513.61709796 553.75 499.3125 C553.1003125 498.44238281 552.450625 497.57226562 551.78125 496.67578125 C546.11440593 489.43363911 539.65506265 483.03454693 533.10546875 476.59765625 C532.23112183 475.73744873 532.23112183 475.73744873 531.33911133 474.85986328 C530.02073304 473.57612053 528.6809647 472.31438775 527.3359375 471.05859375 C525.75 469.3125 525.75 469.3125 525.1875 466.3125 C525.45169537 461.82117872 527.50565696 458.03445442 529.30859375 453.9765625 C531.05621644 449.53409614 532.30417787 445.05419751 533.5 440.4375 C533.81553833 439.22465332 533.81553833 439.22465332 534.13745117 437.98730469 C539.05664419 418.58415646 539.21992231 394.38483334 532.75 375.3125 C532.53037598 374.66087891 532.31075195 374.00925781 532.08447266 373.33789062 C525.78481391 355.27262719 515.80760748 340.15866637 502.75 326.3125 C502.13769531 325.63574219 501.52539062 324.95898438 500.89453125 324.26171875 C486.35826863 308.79563123 465.02760986 297.49556768 444.63671875 292.27734375 C441.75 291.3125 441.75 291.3125 439.75 288.3125 C439.54477318 285.82798088 439.44904062 283.44658015 439.44140625 280.9609375 C439.41618096 279.45312223 439.39078421 277.94530981 439.36523438 276.4375 C439.33690929 274.08627623 439.31288847 271.73510507 439.29370117 269.38378906 C438.95073766 234.15276839 426.72743322 205.325463 401.75 180.3125 C377.86938577 158.51339732 346.66578343 149.3838814 314.8515625 150.19897461 C311.45643654 150.38237767 308.11954537 150.86091145 304.75 151.3125 C303.00309202 151.45968424 301.25227485 151.57130125 299.5 151.625 C298.69046875 151.66238281 297.8809375 151.69976562 297.046875 151.73828125 C293.75981649 151.12894557 292.745471 149.97878891 290.75 147.3125 C289.91359497 144.77155921 289.2393708 142.34127422 288.625 139.75 C281.34796009 112.6761238 261.87014223 88.0964883 237.66992188 74.11035156 C233.1213603 71.64495474 228.46995991 69.42811697 223.75 67.3125 C222.82316406 66.89226562 221.89632812 66.47203125 220.94140625 66.0390625 C194.95435064 54.97897163 164.18097971 55.47549397 138.00390625 65.484375 C132.63147875 67.68678311 127.54017448 70.46528567 122.54467773 73.41650391 C118.14232724 75.93444747 114.96275152 77.02709996 109.75 76.3125 C108.03515625 75.1328125 108.03515625 75.1328125 106.8125 73.4375 C106.32394531 72.79554687 105.83539062 72.15359375 105.33203125 71.4921875 C104.54892578 70.41324219 104.54892578 70.41324219 103.75 69.3125 C90.50000391 52.35480436 76.94537354 39.19137386 57.75 29.3125 C57.08597168 28.96558105 56.42194336 28.61866211 55.73779297 28.26123047 C12.32948614 5.83038683 -46.26413616 11.90705895 -82.09765625 46.25 Z " fill="#5A7396" transform="translate(627.25,42.6875)"/>
<path d="M0 0 C2.39907361 1.89777465 4.70215278 3.85576763 6.9921875 5.8828125 C7.97058594 6.66140625 8.94898438 7.44 9.95703125 8.2421875 C24.48966035 20.33816687 33.90790608 40.48612125 36.9921875 58.8828125 C38.12602446 77.74203998 38.3392855 97.87464368 28.9921875 114.8828125 C28.46109375 115.92308594 27.93 116.96335937 27.3828125 118.03515625 C16.53889548 138.66264469 0.5129265 152.34625269 -21.0078125 160.8828125 C-22.72484375 161.56730469 -22.72484375 161.56730469 -24.4765625 162.265625 C-45.74753318 169.24211309 -69.94799365 165.77826934 -89.77783203 156.29443359 C-110.36747813 145.773586 -124.94322609 127.35898764 -133.0078125 105.8828125 C-140.96945259 80.96465849 -139.70100892 56.4310477 -128.10546875 32.9765625 C-123.06561973 23.22069609 -116.84005278 15.53114659 -109.0078125 7.8828125 C-108.34265625 7.20863281 -107.6775 6.53445313 -106.9921875 5.83984375 C-78.28157329 -21.43523975 -31.68161554 -22.30056575 0 0 Z " fill="#CDD9EC" transform="translate(937.0078125,489.1171875)"/>
<path d="M0 0 C1.13179687 0.59039063 2.26359375 1.18078125 3.4296875 1.7890625 C20.44381145 11.02305587 35.42131348 23.28369166 49 37 C52.78769438 35.67762951 55.35588693 34.05936135 58.375 31.4375 C74.25269618 18.4530729 93.31227476 10.23597454 113 5 C114.18650146 4.68023193 114.18650146 4.68023193 115.39697266 4.35400391 C154.22485127 -5.59154859 198.17542511 0.82209685 233 20 C234.58167969 20.84691406 234.58167969 20.84691406 236.1953125 21.7109375 C262.3557157 36.25967348 283.68796414 59.32526401 297 86 C297.52352051 87.04510742 297.52352051 87.04510742 298.05761719 88.11132812 C302.31610842 96.76960615 305.6896156 105.54370048 308.375 114.8125 C308.61371826 115.63516357 308.85243652 116.45782715 309.09838867 117.30541992 C312.38470254 129.30135693 313.38229651 141.1539815 313.4375 153.5625 C313.47047303 154.91471917 313.50367522 156.26693278 313.53710938 157.61914062 C313.54419922 158.90111328 313.55128906 160.18308594 313.55859375 161.50390625 C313.57204834 162.65705322 313.58550293 163.8102002 313.59936523 164.99829102 C313 168 313 168 310.68774414 170.37475586 C307.16604605 172.50428117 305.04917954 172.58897157 301 172 C298.63502561 170.13291495 297.33969285 168.67938569 296 166 C295.88222987 164.39861787 295.82108798 162.79288746 295.7890625 161.1875 C294.71243236 120.47554796 281.65085479 84.35582569 251.87109375 55.58984375 C220.90326537 27.65559856 181.84281556 17.00932848 140.75244141 18.77246094 C132.5811131 19.26795072 124.84921842 20.72018722 117 23 C116.24267578 23.21430664 115.48535156 23.42861328 114.70507812 23.64941406 C99.55532442 28.04092495 85.51613351 34.21258128 72.5625 43.25 C71.83409912 43.75740723 71.10569824 44.26481445 70.35522461 44.78759766 C66.89711057 47.29453364 64.7313527 49.00514493 63 53 C63.61746094 53.825 64.23492188 54.65 64.87109375 55.5 C86.61112417 84.96818526 99.79742436 119.94267945 100.375 156.75 C100.41238281 157.66910156 100.44976563 158.58820313 100.48828125 159.53515625 C100.54815784 164.13234783 100.51132008 166.30034516 97.73046875 170.10546875 C93.61740719 172.95930975 91.91588179 172.70226883 87 172 C83.97137633 169.80076974 83.09865001 168.61025355 82.49609375 164.8828125 C82.47675781 163.64273438 82.45742188 162.40265625 82.4375 161.125 C80.71853147 114.55017116 61.24568982 73.43711917 27.4375 41.5625 C6.90137605 23.76018653 -16.22028821 10.58383753 -42 2 C-43.76923828 1.40832031 -43.76923828 1.40832031 -45.57421875 0.8046875 C-61.68979073 -4.13301489 -79.15044776 -8.07957229 -96.02734375 -8.23828125 C-97.31356125 -8.25304001 -97.31356125 -8.25304001 -98.62576294 -8.26809692 C-117.07189994 -8.43606723 -134.98593856 -8.46553772 -153 -4 C-154.02287109 -3.75330566 -155.04574219 -3.50661133 -156.09960938 -3.25244141 C-204.81864712 8.75047942 -248.71743118 36.43683879 -275.26953125 79.65625 C-289.54158928 103.52411724 -298.69081187 130.68258346 -298.40942383 158.66723633 C-298.44912755 162.99975459 -298.57508504 166.08397374 -301.28125 169.59375 C-304.8913717 172.78891518 -304.8913717 172.78891518 -308.0625 172.625 C-312.29509682 171.95315923 -313.51129559 171.38463799 -316 168 C-323.89799141 152.20401719 -313.02260756 120.88476596 -307.91430664 105.41870117 C-302.11160023 88.6031324 -294.16356914 70.01975152 -282.10546875 56.73046875 C-279.83879006 54.29643643 -279.83879006 54.29643643 -279.8125 51.91796875 C-281.63061027 48.98148143 -284.20283033 47.23598112 -287 45.3125 C-287.93126709 44.6632959 -287.93126709 44.6632959 -288.88134766 44.00097656 C-305.71848376 32.54254391 -324.13441139 25.20792456 -344 21 C-344.77674072 20.82194824 -345.55348145 20.64389648 -346.35375977 20.46044922 C-354.65043791 18.72171285 -362.87675868 18.60504935 -371.3125 18.625 C-372.43060059 18.62432022 -372.43060059 18.62432022 -373.57128906 18.62362671 C-413.96653319 18.69552938 -449.46742231 34.60453278 -478.4609375 62.35546875 C-502.82753622 87.90960929 -515.34380805 123.02048068 -515.44677734 157.8918457 C-515.5697685 165.29262551 -515.5697685 165.29262551 -517.91015625 169.140625 C-520.6718192 171.59773073 -521.6235171 171.96514047 -525.375 172.3125 C-529 172 -529 172 -531.375 170.125 C-537.44966302 162.1812099 -534.05374244 146.42127022 -532.8125 137.0625 C-526.89014327 96.10012511 -506.33325133 58.83175507 -473.32885742 33.40844727 C-470.28497967 31.16830603 -467.16805452 29.0598439 -464 27 C-463.35659668 26.5767041 -462.71319336 26.1534082 -462.05029297 25.71728516 C-444.21674306 14.15324017 -424.81089213 7.01074615 -404 3 C-403.13810059 2.81526123 -402.27620117 2.63052246 -401.38818359 2.44018555 C-392.74244804 0.74934708 -384.1966622 0.6615517 -375.42089844 0.68432617 C-372.89994286 0.68746891 -370.38018504 0.66400789 -367.859375 0.63867188 C-353.18540274 0.58044822 -338.90954785 2.31450288 -324.875 6.75 C-324.04718018 7.00604004 -323.21936035 7.26208008 -322.36645508 7.52587891 C-303.8899293 13.41324206 -284.95074284 22.25529543 -270.4453125 35.296875 C-268.22025329 37.18089587 -268.22025329 37.18089587 -265.98046875 37.046875 C-263.18512283 35.56925625 -261.45375823 33.57613924 -259.3125 31.25 C-231.11015865 1.96481249 -189.4796518 -16.5626679 -150 -24 C-148.7318042 -24.24339111 -148.7318042 -24.24339111 -147.43798828 -24.49169922 C-97.42973322 -33.62610057 -44.53045933 -23.93362154 0 0 Z " fill="#5B7396" transform="translate(735,662)"/>
<path d="M0 0 C0.64372559 0.22494141 1.28745117 0.44988281 1.95068359 0.68164062 C31.71502481 11.24060067 54.07500573 31.9265334 68 60 C69.50931758 63.28705607 70.82248189 66.58159283 72 70 C72.40992188 71.11568359 72.40992188 71.11568359 72.828125 72.25390625 C76.4013161 82.32540077 77.34932167 92.00456926 77.31567383 102.65722656 C77.31252584 104.73296311 77.33601042 106.80725218 77.36132812 108.8828125 C77.40356934 117.90328639 76.21889116 126.2385032 74 135 C73.73074707 136.1741748 73.46149414 137.34834961 73.18408203 138.55810547 C69.65017003 153.66679269 60.73948235 167.13391508 51 179 C50.39027344 179.7734375 49.78054688 180.546875 49.15234375 181.34375 C32.19883717 201.78874307 5.14521564 215.08340224 -21 218 C-25.06329484 218.16528781 -29.12121702 218.18507237 -33.1875 218.1875 C-34.24775391 218.19974609 -35.30800781 218.21199219 -36.40039062 218.22460938 C-66.65307043 218.27991592 -93.15354589 204.31053598 -114.47265625 183.59765625 C-120.49192577 177.21744288 -125.28686587 170.05422385 -129.953125 162.65820312 C-130.79790891 161.32010324 -131.66166832 159.99399408 -132.53125 158.671875 C-145.89534263 136.91239085 -148.40432193 106.23760858 -143.03125 81.78515625 C-138.2166471 64.11337515 -130.29136411 47.66693193 -118 34 C-117.38898437 33.2471875 -116.77796875 32.494375 -116.1484375 31.71875 C-89.61285403 -0.34978492 -39.25499144 -14.02273123 0 0 Z M-104.09765625 44.25390625 C-117.37752533 59.85709238 -126.86174733 79.28974934 -127 100 C-127.03738281 100.87269531 -127.07476563 101.74539063 -127.11328125 102.64453125 C-127.89143155 129.96170242 -117.92817868 153.60945576 -99.3984375 173.59375 C-81.81684754 191.23260898 -59.37882739 200.70591487 -34.5625 201.25 C-11.97298286 200.75832974 8.62245687 193.66444846 26 179 C26.59039063 178.54238281 27.18078125 178.08476563 27.7890625 177.61328125 C44.47608884 164.31699771 57.48818528 140.28192106 60 119 C61.6534827 91.44195496 55.55134412 66.00223308 37 45 C36.23558594 44.03449219 35.47117187 43.06898438 34.68359375 42.07421875 C31.9102076 38.74141904 28.74239139 36.13240635 25.3125 33.5 C24.38123291 32.78227417 24.38123291 32.78227417 23.43115234 32.05004883 C11.51659404 22.98395423 -2.04435268 16.28036603 -17 14 C-17.64066406 13.89042969 -18.28132812 13.78085937 -18.94140625 13.66796875 C-51.28888967 9.06443695 -81.94661194 20.45287726 -104.09765625 44.25390625 Z " fill="#5B7396" transform="translate(662,407)"/>
<path d="M0 0 C1.09602539 0.00942627 2.19205078 0.01885254 3.32128906 0.02856445 C11.13719637 0.17440096 18.12910974 0.81529261 25.5625 3.375 C26.64273438 3.73851562 27.72296875 4.10203125 28.8359375 4.4765625 C41.00198613 8.8722211 50.88997275 14.79691773 60.5625 23.375 C61.26117188 23.97828125 61.95984375 24.5815625 62.6796875 25.203125 C77.07508718 38.50008053 85.33277038 57.36928337 88.5625 76.375 C88.74554688 77.18066406 88.92859375 77.98632812 89.1171875 78.81640625 C92.76465801 99.77336402 86.21642007 123.87108164 74.6875 141.3828125 C60.64757622 161.152264 41.48685828 174.77412334 17.51953125 179.64453125 C-6.09037586 183.63377466 -28.9601691 179.5489792 -48.7890625 166.171875 C-68.60408191 151.82479766 -82.80986933 130.76487689 -87.02734375 106.45922852 C-89.00140773 91.61497239 -88.90495507 75.42957567 -83.4375 61.375 C-83.18548828 60.71467773 -82.93347656 60.05435547 -82.67382812 59.37402344 C-73.79450474 36.4730347 -56.68672513 17.15574843 -34.140625 6.87109375 C-22.87109793 2.35519474 -12.15813891 -0.16284903 0 0 Z M-49.4375 39.375 C-50.20964844 40.11234375 -50.98179687 40.8496875 -51.77734375 41.609375 C-64.7082094 54.78338514 -70.7257832 72.92055053 -70.875 91.125 C-70.58537519 112.96663061 -60.66332479 131.12245637 -45.50390625 146.3125 C-30.67093229 160.12782709 -13.06686159 163.99503932 6.54296875 163.46386719 C25.58335716 162.62601644 41.99413177 152.66958521 54.72265625 139.06640625 C69.77898528 121.39915311 72.58030495 101.75863116 71.5625 79.375 C70.08087085 64.82540175 62.3105953 51.03635881 52.5625 40.375 C52.02238281 39.75496094 51.48226562 39.13492188 50.92578125 38.49609375 C40.07831955 26.75562068 23.87232957 18.72602623 7.875 18.00390625 C-15.2301756 17.55343831 -32.64849467 22.66897163 -49.4375 39.375 Z " fill="#5A7396" transform="translate(365.4375,473.625)"/>
<path d="M0 0 C2.39907361 1.89777465 4.70215278 3.85576763 6.9921875 5.8828125 C7.97058594 6.66140625 8.94898438 7.44 9.95703125 8.2421875 C24.48966035 20.33816687 33.90790608 40.48612125 36.9921875 58.8828125 C38.12602446 77.74203998 38.3392855 97.87464368 28.9921875 114.8828125 C28.46109375 115.92308594 27.93 116.96335937 27.3828125 118.03515625 C16.53889548 138.66264469 0.5129265 152.34625269 -21.0078125 160.8828125 C-22.72484375 161.56730469 -22.72484375 161.56730469 -24.4765625 162.265625 C-45.74753318 169.24211309 -69.94799365 165.77826934 -89.77783203 156.29443359 C-110.36747813 145.773586 -124.94322609 127.35898764 -133.0078125 105.8828125 C-140.96945259 80.96465849 -139.70100892 56.4310477 -128.10546875 32.9765625 C-123.06561973 23.22069609 -116.84005278 15.53114659 -109.0078125 7.8828125 C-108.34265625 7.20863281 -107.6775 6.53445313 -106.9921875 5.83984375 C-78.28157329 -21.43523975 -31.68161554 -22.30056575 0 0 Z M-101.0078125 24.8828125 C-101.67167969 25.51574219 -102.33554687 26.14867187 -103.01953125 26.80078125 C-109.10865596 32.99937337 -112.53455155 41.03501381 -116.0078125 48.8828125 C-116.69810547 50.39101563 -116.69810547 50.39101563 -117.40234375 51.9296875 C-123.76962683 68.57912029 -121.22422511 89.49548332 -114.46484375 105.546875 C-110.99803539 113.16716893 -106.5940656 119.66838636 -101.0078125 125.8828125 C-100.48960937 126.49382812 -99.97140625 127.10484375 -99.4375 127.734375 C-88.05315052 140.2628802 -71.18245222 147.30968248 -54.51171875 148.15625 C-35.38390073 148.71059553 -18.22078818 143.72271069 -3.6953125 130.6328125 C7.93218716 119.64186854 15.04142311 106.31637412 18.9921875 90.8828125 C19.16274658 90.28831299 19.33330566 89.69381348 19.5090332 89.08129883 C22.6169846 74.93925621 20.63364132 59.06174595 14.9921875 45.8828125 C14.59644531 44.9340625 14.20070313 43.9853125 13.79296875 43.0078125 C11.01924542 36.96275435 7.22519803 31.9758026 2.9921875 26.8828125 C2.55519531 26.28855469 2.11820313 25.69429687 1.66796875 25.08203125 C-7.28464964 13.38716939 -23.70356669 5.04990995 -38.0078125 2.8828125 C-63.12584542 0.97757471 -83.39641571 6.62214763 -101.0078125 24.8828125 Z " fill="#5B7396" transform="translate(937.0078125,489.1171875)"/>
<path d="M0 0 C0.33 0 0.66 0 1 0 C1.01981934 0.71655762 1.03963867 1.43311523 1.06005859 2.17138672 C1.15509519 5.4063063 1.26486019 8.64056094 1.375 11.875 C1.4059375 13.00292969 1.436875 14.13085938 1.46875 15.29296875 C1.52675781 16.90751953 1.52675781 16.90751953 1.5859375 18.5546875 C1.6173584 19.54968262 1.6487793 20.54467773 1.68115234 21.56982422 C1.77247083 24.17854517 1.77247083 24.17854517 4 26 C3.6875 27.8125 3.6875 27.8125 3 30 C2.65939189 31.66519519 2.32441604 33.33157466 2 35 C1.67 35 1.34 35 1 35 C0.25265639 30.34785065 -0.11936092 25.90132058 -0.09765625 21.19140625 C-0.09443359 19.95068359 -0.09121094 18.70996094 -0.08789062 17.43164062 C-0.07951172 16.15482422 -0.07113281 14.87800781 -0.0625 13.5625 C-0.05798828 12.25861328 -0.05347656 10.95472656 -0.04882812 9.61132812 C-0.03709251 6.40750448 -0.02067363 3.20377637 0 0 Z " fill="#788AA7" transform="translate(67,779)"/>
<path d="M0 0 C0.66 0.99 1.32 1.98 2 3 C1.30900052 4.71104634 0.60574354 6.41966274 -0.1953125 8.08203125 C-1.40760265 10.97151893 -1.68402512 13.90344621 -2 17 C-1.01 17.33 -0.02 17.66 1 18 C0.67 18.99 0.34 19.98 0 21 C-2.89053162 18.74177217 -3.9121294 17.54919127 -4.5 13.875 C-3.84998364 8.83737324 -2.07633997 4.60687931 0 0 Z " fill="#647CA0" transform="translate(1156,495)"/>
<path d="M0 0 C0.66 0.99 1.32 1.98 2 3 C1.34 3 0.68 3 0 3 C-0.33 7.62 -0.66 12.24 -1 17 C-1.66 17 -2.32 17 -3 17 C-3 18.98 -3 20.96 -3 23 C-3.33 23 -3.66 23 -4 23 C-4.65720455 14.94924431 -2.22928846 7.64327471 0 0 Z " fill="#6981A3" transform="translate(282,535)"/>
<path d="M0 0 C1.75029762 0.31082872 3.50022694 0.62373179 5.25 0.9375 C6.71179688 1.19853516 6.71179688 1.19853516 8.203125 1.46484375 C10.49721795 1.90379729 12.74291971 2.40348592 15 3 C15 3.66 15 4.32 15 5 C15.99 5.33 16.98 5.66 18 6 C11.69632197 5.41632611 6.01339937 3.95928381 0 2 C0 1.34 0 0.68 0 0 Z " fill="#697F9D" transform="translate(582,1195)"/>
<path d="M0 0 C0.33 0 0.66 0 1 0 C2.03863773 6.23182639 1.83288874 11.74692761 1 18 C0.34 17.67 -0.32 17.34 -1 17 C-1.10477512 11.21408489 -0.99250545 5.70690634 0 0 Z " fill="#667C9A" transform="translate(32,595)"/>
<path d="M0 0 C1.72274487 2.58411731 2.68895522 4.54902656 3.6875 7.4375 C3.95949219 8.19933594 4.23148438 8.96117187 4.51171875 9.74609375 C5.04729142 12.21829721 4.80445309 13.62983284 4 16 C4 15.01 4 14.02 4 13 C3.34 13 2.68 13 2 13 C0.54815522 8.46298506 -0.23509196 4.81938524 0 0 Z " fill="#7086A4" transform="translate(1171,407)"/>
<path d="M0 0 C0.66 1.32 1.32 2.64 2 4 C1.67 4 1.34 4 1 4 C0.34 7.3 -0.32 10.6 -1 14 C-1.66 14 -2.32 14 -3 14 C-2.48594831 9.03083364 -1.76615118 4.70973649 0 0 Z " fill="#6A80A0" transform="translate(79,411)"/>
<path d="M0 0 C1.93816735 0.1141866 3.87555099 0.24173423 5.8125 0.375 C6.89144531 0.44460937 7.97039063 0.51421875 9.08203125 0.5859375 C12 1 12 1 15 3 C13.35 3.33 11.7 3.66 10 4 C10 3.34 10 2.68 10 2 C8.35 2.66 6.7 3.32 5 4 C3.35 2.68 1.7 1.36 0 0 Z " fill="#8397B2" transform="translate(823,87)"/>
<path d="M0 0 C0 0.66 0 1.32 0 2 C-1.65 2.33 -3.3 2.66 -5 3 C-5 3.66 -5 4.32 -5 5 C-5.99 5.33 -6.98 5.66 -8 6 C-8.99 5.34 -9.98 4.68 -11 4 C-9.73308493 3.32591692 -8.46129251 2.66099503 -7.1875 2 C-6.47980469 1.62875 -5.77210938 1.2575 -5.04296875 0.875 C-3 0 -3 0 0 0 Z " fill="#6A81A2" transform="translate(400,96)"/>
<path d="M0 0 C0 0.99 0 1.98 0 3 C-2.57213134 4.61949011 -3.67669159 5.04408751 -6.75 4.625 C-7.4925 4.41875 -8.235 4.2125 -9 4 C-3 0 -3 0 0 0 Z " fill="#627A9D" transform="translate(502,1142)"/>
<path d="M0 0 C0.66 0.33 1.32 0.66 2 1 C-2.82142857 7.29464286 -2.82142857 7.29464286 -7 8 C-6.02133662 6.85373678 -5.04205413 5.70800212 -4.0625 4.5625 C-3.51722656 3.92441406 -2.97195313 3.28632812 -2.41015625 2.62890625 C-1.63204305 1.73008851 -0.84063472 0.84063472 0 0 Z " fill="#EFF2F6" transform="translate(733,1155)"/>
<path d="M0 0 C0.99 0 1.98 0 3 0 C3.1875 2.875 3.1875 2.875 3 6 C2.01 6.66 1.02 7.32 0 8 C0 5.36 0 2.72 0 0 Z " fill="#BECDE4" transform="translate(183,910)"/>
<path d="M0 0 C0 0.33 0 0.66 0 1 C-1.98 1 -3.96 1 -6 1 C-6 1.66 -6 2.32 -6 3 C-7.98 3 -9.96 3 -12 3 C-12 2.34 -12 1.68 -12 1 C-8.0186217 -0.3271261 -4.14954773 -0.06915913 0 0 Z " fill="#6C84A6" transform="translate(361,474)"/>
<path d="M0 0 C0.33 0.99 0.66 1.98 1 3 C-0.98 4.98 -2.96 6.96 -5 9 C-5.66 8.67 -6.32 8.34 -7 8 C-4.69 5.36 -2.38 2.72 0 0 Z " fill="#506A8F" transform="translate(205,221)"/>
<path d="M0 0 C0 0.66 0 1.32 0 2 C-6.4 3.23076923 -6.4 3.23076923 -9.4375 2.0625 C-9.953125 1.711875 -10.46875 1.36125 -11 1 C-7.32589215 -0.17571451 -3.83070817 -0.07366746 0 0 Z " fill="#6D85A6" transform="translate(787,88)"/>
<path d="M0 0 C3.34373475 0.55728913 6.03312999 1.35173889 9 3 C9 3.66 9 4.32 9 5 C6.03 4.01 3.06 3.02 0 2 C0 1.34 0 0.68 0 0 Z " fill="#687E9E" transform="translate(745,1154)"/>
<path d="M0 0 C3.45925163 1.2491742 6.14693203 2.67527795 9 5 C8.01 5.33 7.02 5.66 6 6 C2.8125 4.1875 2.8125 4.1875 0 2 C0 1.34 0 0.68 0 0 Z " fill="#637A9D" transform="translate(738,1135)"/>
<path d="M0 0 C0.99 0 1.98 0 3 0 C2.67 1.98 2.34 3.96 2 6 C1.01 6.33 0.02 6.66 -1 7 C-0.67 4.69 -0.34 2.38 0 0 Z " fill="#C3D2E9" transform="translate(338,183)"/>
<path d="M0 0 C1.32 0.66 2.64 1.32 4 2 C-2.75 5 -2.75 5 -5 5 C-5 4.34 -5 3.68 -5 3 C-3.35 2.67 -1.7 2.34 0 2 C0 1.34 0 0.68 0 0 Z " fill="#62799C" transform="translate(854,1156)"/>
<path d="M0 0 C2.64 0.99 5.28 1.98 8 3 C8 3.66 8 4.32 8 5 C4.65626525 4.44271087 1.96687001 3.64826111 -1 2 C-0.67 1.34 -0.34 0.68 0 0 Z " fill="#BFCDE2" transform="translate(754,1141)"/>
<path d="M0 0 C0.99 0.33 1.98 0.66 3 1 C1.35 2.65 -0.3 4.3 -2 6 C-2.99 5.67 -3.98 5.34 -5 5 C-3.35 3.35 -1.7 1.7 0 0 Z " fill="#C5D3E7" transform="translate(261,719)"/>
<path d="M0 0 C0.33 0 0.66 0 1 0 C1 1.98 1 3.96 1 6 C1.66 6 2.32 6 3 6 C2.67 7.98 2.34 9.96 2 12 C-0.13586678 8.79619983 -0.23132175 7.98060033 -0.125 4.3125 C-0.10695313 3.50425781 -0.08890625 2.69601562 -0.0703125 1.86328125 C-0.04710938 1.24839844 -0.02390625 0.63351562 0 0 Z " fill="#7287A5" transform="translate(74,464)"/>
<path d="M0 0 C0.99 0.33 1.98 0.66 3 1 C-0.465 3.97 -0.465 3.97 -4 7 C-3.04065919 3.16263678 -2.76390737 2.40339772 0 0 Z " fill="#C4D3E8" transform="translate(564,445)"/>
<path d="M0 0 C2.92879371 0.62759865 5.36095629 1.58622659 8 3 C4.71303767 3.79953138 3.28976808 4.09658936 0 3 C0 2.01 0 1.02 0 0 Z " fill="#7086A4" transform="translate(1085,324)"/>
<path d="M0 0 C0 0.33 0 0.66 0 1 C-4.16138263 1.08159574 -7.9472484 0.98248524 -12 0 C-12 -0.33 -12 -0.66 -12 -1 C-7.48281619 -2.36884358 -4.41225737 -1.47075246 0 0 Z " fill="#8699B2" transform="translate(431,1167)"/>
</svg>
