<?xml version="1.0" encoding="UTF-8"?>
<svg version="1.1" xmlns="http://www.w3.org/2000/svg" width="1254" height="1254">
<path d="M0 0 C413.82 0 827.64 0 1254 0 C1254 413.82 1254 827.64 1254 1254 C840.18 1254 426.36 1254 0 1254 C0 840.18 0 426.36 0 0 Z " fill="none" transform="translate(0,0)"/>
<path d="M535 99 C534.13503906 99.82628906 533.27007813 100.65257812 532.37890625 101.50390625 C527.48489565 106.26702207 522.54969032 111.11270874 519 117 C519 117.66 519 118.32 519 119 C517.45505859 118.22076172 517.45505859 118.22076172 515.87890625 117.42578125 C508.45051051 113.75824195 501.09205748 110.44383161 493.125 108.125 C492.47345947 107.93462158 491.82191895 107.74424316 491.15063477 107.5480957 C489.10915645 106.98400637 487.06286897 106.48000211 485 106 C483.81833252 105.72071655 483.81833252 105.72071655 482.61279297 105.43579102 C474.3925742 103.70833147 466.23182468 103.6444558 457.875 103.6875 C456.7773381 103.69023422 456.7773381 103.69023422 455.65750122 103.69302368 C444.82638664 103.73849834 434.51774609 104.18922303 424 107 C423.34902344 107.16628906 422.69804687 107.33257812 422.02734375 107.50390625 C387.56826278 116.46725101 359.89383499 139.85524238 341.75 169.94140625 C336.91390681 178.39377448 331.4942112 189.10099068 332 199 C331.48606689 198.83918945 330.97213379 198.67837891 330.44262695 198.51269531 C325.21824546 197.41612348 319.74745244 197.77377248 314.4230957 197.75976562 C312.23282827 197.750198 310.04355745 197.71922178 307.85351562 197.6875 C280.92972344 197.48622091 254.12494359 207.34953098 233 224 C232.4323291 224.44569336 231.8646582 224.89138672 231.27978516 225.35058594 C208.00865054 243.83302973 192.45923239 269.22468562 185.47265625 298.05078125 C185.08648064 299.64335671 184.6722389 301.22910412 184.25 302.8125 C183.19784535 307.37183682 182.91070932 311.8901918 182.88671875 316.55859375 C182.8813208 317.5630957 182.87592285 318.56759766 182.87036133 319.60253906 C182.87707732 324.06902482 182.92317656 328.5341943 183 333 C181.80117188 333.23783203 181.80117188 333.23783203 180.578125 333.48046875 C149.76185486 340.02711769 122.00174929 360.82986632 104.71728516 386.9375 C98.32942757 396.91651658 93.56403536 406.88418989 89.94140625 418.1640625 C89.17270401 420.47973813 88.31819866 422.6908861 87.375 424.9375 C83.68723304 434.78858707 83.67530956 445.60796539 83.73925781 455.9934082 C83.75000914 458.06426118 83.73927446 460.13425063 83.7265625 462.20507812 C83.71161155 474.16441058 85.4127155 484.99158732 89 496.375 C89.39058594 497.64923828 89.39058594 497.64923828 89.7890625 498.94921875 C91.13477137 503.31937432 92.5327849 507.66889388 94 512 C93.50113281 512.35449219 93.00226563 512.70898438 92.48828125 513.07421875 C73.46907646 527.17642984 58.64121662 546.94119807 50 569 C49.40251953 570.46373047 49.40251953 570.46373047 48.79296875 571.95703125 C39.59804178 595.81939459 36.92544592 624.71207398 44.0625 649.5 C44.27801514 650.25700195 44.49353027 651.01400391 44.71557617 651.79394531 C50.45622069 671.12124485 59.33728434 689.72759769 73.31640625 704.4375 C74.05761719 705.22125 74.79882812 706.005 75.5625 706.8125 C76.24441406 707.49957031 76.92632812 708.18664062 77.62890625 708.89453125 C79 711 79 711 78.9140625 713.35546875 C77.80424988 716.56633688 76.35676117 719.47283903 74.8125 722.5 C60.62364862 751.71039047 59.28308931 785.31501889 69 816 C69.50466797 817.64742187 69.50466797 817.64742187 70.01953125 819.328125 C75.99512083 837.48716046 85.84558392 853.63811504 98.82421875 867.61328125 C100.39871949 869.34042659 101.90418266 871.13134921 103.36328125 872.95703125 C106.07126009 876.22707284 109.1452301 878.79122543 112.5 881.375 C113.10585937 881.84615234 113.71171875 882.31730469 114.3359375 882.80273438 C122.07798107 888.72170337 130.26739644 893.6700336 139 898 C139.01458252 899.03705078 139.02916504 900.07410156 139.04418945 901.14257812 C139.10313185 905.07176486 139.18033631 909.00043426 139.26245117 912.92919922 C139.29525768 914.61433377 139.32341961 916.29956658 139.34643555 917.98486328 C139.87386061 955.62281354 152.95238333 988.74086627 179 1016 C179.64839844 1016.72316406 180.29679688 1017.44632813 180.96484375 1018.19140625 C201.33178035 1040.04383919 232.48900071 1053.46217443 262 1056 C265.16853038 1056.10623935 268.33019367 1056.09605658 271.5 1056.0625 C272.32242188 1056.05798828 273.14484375 1056.05347656 273.9921875 1056.04882812 C275.99482396 1056.03718489 277.99742227 1056.01925556 280 1056 C280.2475 1057.27617188 280.495 1058.55234375 280.75 1059.8671875 C284.09943323 1074.85180227 291.81270709 1088.83554963 301 1101 C301.72960937 1101.97066406 302.45921875 1102.94132812 303.2109375 1103.94140625 C317.44019143 1121.99766169 335.60727453 1137.25830254 357 1146 C357.61037109 1146.25168945 358.22074219 1146.50337891 358.84960938 1146.76269531 C366.45620946 1149.86765991 373.75892338 1152.53738605 381.9609375 1153.578125 C385 1154 385 1154 387.06103516 1154.48144531 C394.59552047 1156.22457876 401.9154695 1156.29720121 409.625 1156.25 C410.89601563 1156.25773437 412.16703125 1156.26546875 413.4765625 1156.2734375 C420.02467019 1156.25979561 425.74091309 1155.93370165 432 1154 C433.39422273 1153.70072902 434.78976812 1153.4074283 436.1875 1153.125 C441.24631799 1152.04285285 446.09350559 1150.37866898 450.984375 1148.70703125 C454.30943417 1147.92745131 455.84047587 1147.71091416 459 1149 C460.94561916 1151.00669241 462.61405405 1152.92961031 464.3125 1155.125 C468.52874552 1160.31325422 472.68696435 1164.89730413 478 1169 C478.5151416 1169.40428223 479.0302832 1169.80856445 479.56103516 1170.22509766 C501.79295676 1187.56512295 526.54943921 1197.79753553 554.95629883 1197.57641602 C557.43381821 1197.56252065 559.90755965 1197.59683547 562.38476562 1197.63476562 C573.97892645 1197.68873596 584.01186724 1195.60027028 595 1192 C596.01296143 1191.68772461 597.02592285 1191.37544922 598.06958008 1191.05371094 C605.29024266 1188.79348498 611.82087259 1185.00374673 618.36499023 1181.26489258 C619.14946533 1180.83072021 619.93394043 1180.39654785 620.7421875 1179.94921875 C621.79188721 1179.35113403 621.79188721 1179.35113403 622.86279297 1178.7409668 C625.62824819 1177.7821872 627.2221743 1178.16978728 630 1179 C632.15885536 1180.16868268 634.28101283 1181.40621415 636.375 1182.6875 C651.16157032 1191.44589647 667.51383415 1197.09539128 684.8125 1197.203125 C685.90957275 1197.21167511 685.90957275 1197.21167511 687.02880859 1197.22039795 C688.57176291 1197.2297932 690.11473679 1197.23635998 691.65771484 1197.24023438 C693.96619849 1197.24985907 696.27375885 1197.28090012 698.58203125 1197.3125 C731.25162887 1197.54745589 760.54060715 1183.276474 783.56762695 1160.67236328 C789.72176019 1154.70531836 789.72176019 1154.70531836 795 1148 C799.67214006 1148.48668126 803.42747652 1149.52643992 807.84033203 1151.21801758 C836.70249965 1161.66856278 870.33206837 1156.49410591 897.87890625 1144.49609375 C930.12815544 1129.03744239 958.12310768 1102.04823972 970.5859375 1067.93359375 C971.86580586 1063.87160019 973 1060.26999389 973 1056 C974.52753906 1056.05220703 974.52753906 1056.05220703 976.0859375 1056.10546875 C1009.43920298 1056.88640771 1042.49707036 1044.71371278 1067 1022 C1067.57782227 1021.47132324 1068.15564453 1020.94264648 1068.75097656 1020.39794922 C1094.76360621 996.36716656 1110.79113718 962.48684437 1112.36930847 927.07435608 C1112.74183068 917.38645822 1112.90710997 907.69419578 1113 898 C1113.845625 897.55994629 1114.69125 897.11989258 1115.5625 896.66650391 C1122.00242256 893.26633456 1128.21151446 889.82090316 1134 885.375 C1134.66588135 884.86775391 1135.3317627 884.36050781 1136.01782227 883.83789062 C1164.62607756 861.55406788 1182.59046449 827.61521214 1188 792 C1190.43986719 766.4497684 1186.69942748 738.809127 1173.16015625 716.70703125 C1172 714 1172 714 1172.4921875 712.00390625 C1174.5557655 709.26137902 1176.78605557 706.68963632 1179.0625 704.125 C1197.85473126 682.32168814 1209.57639423 653.86037149 1211 625 C1211.05285156 623.94167969 1211.10570312 622.88335938 1211.16015625 621.79296875 C1212.10980982 583.6829581 1196.38135009 550.01331625 1170.69140625 522.640625 C1166.72156997 518.74569129 1162.47257148 515.29864274 1158 512 C1158.38871397 508.73480264 1158.88799885 506.21805811 1160.3984375 503.27734375 C1162.56141407 498.8511551 1163.53809403 494.34958278 1164.625 489.5625 C1164.94984375 488.18868164 1164.94984375 488.18868164 1165.28125 486.78710938 C1171.53780451 459.88778706 1169.13184716 429.97901549 1157 405 C1156.70222656 404.3797998 1156.40445312 403.75959961 1156.09765625 403.12060547 C1149.66084048 389.87638962 1141.11028929 378.69390531 1131 368 C1130.23042969 367.16597656 1129.46085937 366.33195312 1128.66796875 365.47265625 C1118.37183621 354.6775189 1106.13335692 347.59012039 1092.93164062 340.97070312 C1091.23246272 340.11681898 1089.54491216 339.23987949 1087.859375 338.359375 C1081.58509036 335.24015921 1075.99875898 334.14890977 1069 334 C1069.03480469 332.71609375 1069.06960938 331.4321875 1069.10546875 330.109375 C1069.76330436 295.27731185 1059.57210579 266.78612185 1037 240 C1036.32195313 239.13503906 1035.64390625 238.27007812 1034.9453125 237.37890625 C1016.68617413 215.04995993 984.95788228 201.29823091 957 198 C952.03740932 197.75874653 947.09231537 197.76405083 942.125 197.8125 C940.206875 197.8134668 940.206875 197.8134668 938.25 197.81445312 C932.70151572 197.84051594 927.46531028 197.96837252 922 199 C921.773125 197.783125 921.54625 196.56625 921.3125 195.3125 C917.24760926 177.43811743 907.53792998 161.96089528 896 148 C895.3709375 147.22914063 894.741875 146.45828125 894.09375 145.6640625 C890.11972346 140.94942192 885.7808978 136.88603305 881 133 C880.18402344 132.32324219 879.36804688 131.64648438 878.52734375 130.94921875 C864.06657888 119.4985709 847.88602004 111.43379972 830 107 C828.98131836 106.73292236 827.96263672 106.46584473 826.91308594 106.19067383 C818.22871995 104.09023732 810.0623227 103.56146644 801.18652344 103.66381836 C799.0015771 103.68748292 796.81785566 103.68433941 794.6328125 103.67773438 C776.12784185 103.71288473 758.8873472 106.80015458 742.55078125 115.765625 C740.0051383 116.99751347 737.78500737 117.57848537 735 118 C734.73703125 117.41863281 734.4740625 116.83726563 734.203125 116.23828125 C732.94085206 113.88996178 731.53551439 112.16202155 729.75 110.1875 C727.46494652 107.64331674 725.2339463 105.07893056 723.0625 102.4375 C702.92390439 79.09145182 671.28625822 65.50281845 641 63 C600.97279577 61.35001877 564.35832686 70.32784439 535 99 Z " fill="#CDD9EA" transform="translate(0,0)"/>
<path d="M0 0 C2.11425781 1.39038086 2.11425781 1.39038086 4.203125 3.15234375 C8.85460732 6.93047083 13.70684331 10.20832964 18.75 13.4375 C19.63051025 14.00460693 20.51102051 14.57171387 21.41821289 15.15600586 C23.94153964 16.77693861 26.46945161 18.39037068 29 20 C29.6089209 20.38833008 30.2178418 20.77666016 30.84521484 21.17675781 C53.17527875 35.35651833 76.65936604 47.97442951 100.71728516 58.95654297 C103.3088556 60.14118169 105.89446365 61.33841974 108.48046875 62.53515625 C121.71969733 68.63700708 134.99913791 73.96134457 148.74609375 78.8203125 C151.44674411 79.79941983 154.09776171 80.8365709 156.75 81.9375 C189.68578383 95.28402678 226.72563184 103.57599635 262.04296875 106.765625 C262.72601578 106.82840637 263.40906281 106.89118774 264.11280823 106.95587158 C267.46298131 107.26069637 270.81091252 107.54098183 274.16625977 107.78613281 C275.37467529 107.88764648 276.58309082 107.98916016 277.828125 108.09375 C278.8996582 108.17302734 279.97119141 108.25230469 281.07519531 108.33398438 C284.81531558 109.18565784 286.48393782 110.07880432 289 113 C289.46600765 116.1185466 289.60711917 118.67605951 289.5234375 121.7890625 C289.5191423 122.69200043 289.51484711 123.59493835 289.51042175 124.52523804 C289.48956081 127.55925206 289.43239883 130.59147332 289.375 133.625 C289.35206761 135.77211481 289.33120299 137.91925257 289.31225586 140.06640625 C289.25233385 146.05340373 289.15889828 152.0395191 289.06109619 158.02600098 C288.97463385 163.64994032 288.91029549 169.2740678 288.84503174 174.89828491 C288.75941547 182.26563465 288.66242485 189.63283198 288.5625 197 C288.55291008 197.71295479 288.54332016 198.42590958 288.53343964 199.16046906 C288.46789447 203.98210216 288.39390857 208.80354407 288.31640625 213.625 C288.29966354 214.82555023 288.28292084 216.02610046 288.26567078 217.26303101 C288.10709176 226.52845613 287.59737376 235.75460164 287 245 C288.12895187 244.99111755 289.25790375 244.98223511 290.42106628 244.9730835 C301.05922517 244.89200449 311.69732138 244.8320378 322.33571911 244.79275131 C327.80507978 244.7718747 333.27419106 244.74355535 338.7434082 244.69824219 C344.02131413 244.65478761 349.29898015 244.63086345 354.57705116 244.62049103 C356.59091278 244.613099 358.60476123 244.59866414 360.61852074 244.57707977 C363.43892183 244.54805117 366.25833103 244.5440438 369.07885742 244.54589844 C369.91179825 244.53151733 370.74473907 244.51713623 371.60292053 244.50231934 C375.58962733 244.53069447 377.54918357 244.7207953 381.02046204 246.8706665 C383.5084235 249.54689691 383.61880383 250.76138359 383.5 254.375 C382.42613011 277.68928045 371.78970064 299.05095197 355 315 C350.82486449 318.38216013 346.74598999 321.30286011 341.7421875 323.30078125 C340.83726562 323.86152344 339.93234375 324.42226563 339 325 C338.23699861 327.83372603 338.23699861 327.83372603 338.4375 331.125 C337.78160053 351.64830611 327.97964055 370.38789949 313.5 384.625 C307.14675253 390.20394543 299.62240108 393.50936773 292 397 C291.01 397.495 291.01 397.495 290 398 C289.67221376 399.82103468 289.44132682 401.6596182 289.25 403.5 C287.56847318 415.36193339 283.67223671 426.65743848 276.61328125 436.41015625 C272.5181395 442.98419736 270.79472278 450.87862215 268.625 458.25 C266.48108458 465.40877406 264.26107392 472.39549279 261.22265625 479.234375 C259.83628137 482.37032841 258.61125785 485.55193126 257.375 488.75 C241.66106389 528.44397594 220.3171206 566.06175093 193.42138672 599.24316406 C191.8769547 601.15208416 190.34655474 603.07180288 188.81640625 604.9921875 C182.64298265 612.70554391 176.29101432 620.14798108 169.52514648 627.34741211 C167.58904091 629.44529888 165.69862848 631.58229295 163.80078125 633.71484375 C159.01290103 639.04442934 154.01419416 644.13411125 148.9375 649.1875 C148.09123047 650.03763672 147.24496094 650.88777344 146.37304688 651.76367188 C141.94965616 656.18024164 137.45976702 660.44944316 132.71801758 664.52270508 C130.55639006 666.38145285 128.46911492 668.31579931 126.375 670.25 C121.93141222 674.26006702 117.31391416 677.97220112 112.58642578 681.63623047 C108.74951603 684.61252495 104.97451691 687.65045965 101.23046875 690.74267578 C92.11436291 698.25627091 82.67768845 705.22871 73 712 C72.15695312 712.59039063 71.31390625 713.18078125 70.4453125 713.7890625 C48.76792562 728.90534119 26.31920537 742.59891095 3.34643555 755.6340332 C1.52644574 756.693532 -0.24776833 757.83184556 -2 759 C-6.47025998 759.43706515 -9.0824489 758.80237876 -12.89453125 756.4921875 C-13.83385498 755.92846436 -14.77317871 755.36474121 -15.7409668 754.78393555 C-17.26137573 753.83901245 -17.26137573 753.83901245 -18.8125 752.875 C-19.8847583 752.21991455 -20.9570166 751.5648291 -22.06176758 750.88989258 C-45.52971332 736.45629976 -68.49126671 720.9275474 -90.375 704.1875 C-91.26493652 703.5080835 -92.15487305 702.82866699 -93.07177734 702.12866211 C-100.60106848 696.35521623 -107.98946988 690.42390342 -115.30859375 684.38720703 C-116.84155409 683.12994943 -118.38875452 681.89010444 -119.9375 680.65234375 C-125.82594415 675.93645316 -131.39404983 670.95277638 -136.87939453 665.77929688 C-139.72581918 663.09578763 -142.59965346 660.47792373 -145.578125 657.94140625 C-151.2302712 653.02472494 -156.46951848 647.67953557 -161.75463867 642.37573242 C-163.55862085 640.56639067 -165.36788665 638.76245681 -167.17773438 636.95898438 C-172.99985766 631.14046817 -178.67698073 625.28435531 -184 619 C-184.99702414 617.87755791 -185.99700467 616.75773455 -187 615.640625 C-195.96353389 605.55386729 -204.06154526 594.90502171 -212 584 C-212.54043945 583.25959473 -213.08087891 582.51918945 -213.63769531 581.75634766 C-241.90570029 542.86347184 -263.91104982 499.61330468 -278.90966797 453.92211914 C-280.89441417 447.92834644 -283.68012248 443.3699681 -287.375 438.3125 C-292.46820804 431.05951386 -296.02666858 423.78341585 -298.37890625 415.23828125 C-299.01190057 412.8394316 -299.01190057 412.8394316 -300.125 409.9375 C-301 407 -301 407 -300.78125 404.91796875 C-300.58568112 402.04799539 -300.67567569 400.58684682 -302 398 C-305.12244249 396.03150365 -308.21178427 394.52193254 -311.56884766 393.015625 C-329.59497305 384.90287045 -339.27077226 369.40782124 -346.3203125 351.6796875 C-347.90724877 346.98940919 -349.02452779 342.56807562 -349.328125 337.625 C-349.45103218 329.64308382 -349.45103218 329.64308382 -352.9921875 322.90234375 C-355.49415336 321.45247239 -355.49415336 321.45247239 -358.21484375 320.296875 C-363.29787848 317.93002012 -367.03723223 313.89302306 -371 310 C-371.77472656 309.24976563 -372.54945313 308.49953125 -373.34765625 307.7265625 C-382.42449672 298.35390733 -388.24209635 286.42086049 -392 274 C-392.22429687 273.31421875 -392.44859375 272.6284375 -392.6796875 271.921875 C-394.12891264 266.7205464 -394.23386643 261.4911793 -394.3125 256.125 C-394.33908691 254.99940674 -394.33908691 254.99940674 -394.36621094 253.85107422 C-394.35891058 248.47922612 -394.35891058 248.47922612 -392.72050762 246.29159069 C-389.6590767 243.9933645 -385.80391774 244.61318766 -382.12231445 244.65942383 C-380.76103424 244.65876671 -380.76103424 244.65876671 -379.37225342 244.65809631 C-376.36904474 244.66018831 -373.36639255 244.68353888 -370.36328125 244.70703125 C-368.28248906 244.71262574 -366.20169293 244.71689653 -364.12089539 244.71989441 C-358.64139924 244.73135474 -353.16214124 244.76083227 -347.68273926 244.79400635 C-342.09256207 244.82468156 -336.50234645 244.8383943 -330.91210938 244.85351562 C-319.94130155 244.88570073 -308.97067057 244.93691153 -298 245 C-298.06593353 243.8390683 -298.13186707 242.6781366 -298.19979858 241.48202515 C-299.81962665 212.72617371 -300.27716467 184.00735446 -300.36334229 155.21073151 C-300.37502716 152.24310321 -300.39445943 149.27561624 -300.41601562 146.30804443 C-300.44925173 141.57991295 -300.4618042 136.85216349 -300.4583931 132.12392044 C-300.46007982 130.35341102 -300.46846393 128.58289442 -300.48377609 126.81245041 C-300.50328214 124.3709584 -300.49781914 121.93076949 -300.48583984 119.48925781 C-300.49708389 118.76962797 -300.50832794 118.04999813 -300.51991272 117.30856133 C-300.47936271 114.12153304 -300.41255607 112.43865282 -298.18408203 110.06921387 C-295.02087969 108.52067322 -291.87301414 108.31992126 -288.4140625 108.078125 C-286.84662585 107.94292417 -285.27924541 107.80707043 -283.71191406 107.6706543 C-282.4701239 107.56906509 -282.4701239 107.56906509 -281.20324707 107.46542358 C-240.15049513 104.03529035 -200.82322281 94.61660834 -162 81 C-161.17967285 80.7127002 -160.3593457 80.42540039 -159.51416016 80.12939453 C-133.4211545 70.89075143 -107.76823462 59.5249744 -83.44677734 46.32275391 C-80.89551818 44.94351602 -78.33336041 43.58618124 -75.76953125 42.23046875 C-54.54526647 30.92960954 -32.36141902 18.64689502 -14.125 2.8125 C-9.54981585 -0.77980238 -5.62062642 -1.39803989 0 0 Z " fill="#607A9A" transform="translate(634,272)"/>
<path d="M0 0 C3.38223416 1.0128227 5.79007621 2.59743644 8.71459961 4.578125 C9.8954032 5.36844292 11.07623105 6.15872459 12.25708008 6.94897461 C12.87323181 7.36565399 13.48938354 7.78233337 14.12420654 8.2116394 C33.97149413 21.60756202 54.51451342 33.51254179 75.86401367 44.35742188 C78.69872745 45.80234251 81.52142195 47.26887503 84.34350586 48.73828125 C96.0180101 54.75900696 107.89233342 60.18080557 119.97631836 65.31640625 C121.02272491 65.76279449 121.02272491 65.76279449 122.090271 66.21820068 C129.66766053 69.44008461 137.24846682 72.46702897 145.11181641 74.93798828 C147.91252697 75.87896845 150.58495849 77.00246963 153.28881836 78.19140625 C167.74891008 84.31634147 183.11411891 88.15416383 198.31567383 91.95263672 C200.91432949 92.6107644 203.50432501 93.28911578 206.09399414 93.98095703 C217.90741293 97.09311237 229.7227148 99.32612228 241.80200195 101.12939453 C244.75374442 101.57050482 247.70293858 102.02635214 250.65209961 102.484375 C252.57254266 102.77819383 254.49311143 103.07119237 256.41381836 103.36328125 C257.27346191 103.49555115 258.13310547 103.62782104 259.01879883 103.76409912 C265.56870466 104.73568954 272.1239145 105.3271216 278.72631836 105.81640625 C278.79796792 132.74010775 278.62393166 159.65385464 278.26275635 186.57507324 C278.20052311 191.2570556 278.14131318 195.93907633 278.08178711 200.62109375 C277.96612024 209.68623596 277.84733126 218.75133393 277.72631836 227.81640625 C277.14717682 227.8244931 276.56803528 227.83257996 275.97134399 227.84091187 C269.90329299 227.92746352 263.83554984 228.02698445 257.76782227 228.13378906 C255.50810954 228.17189769 253.24833989 228.206781 250.98852539 228.23828125 C247.72643794 228.28432748 244.46473632 228.34225439 241.20288086 228.40234375 C240.20455231 228.41389496 239.20622375 228.42544617 238.17764282 228.43734741 C218.44163616 228.84573283 201.58171487 236.82778477 187.72631836 250.81640625 C187.06631836 251.80640625 186.40631836 252.79640625 185.72631836 253.81640625 C185.06631836 253.81640625 184.40631836 253.81640625 183.72631836 253.81640625 C182.98188477 252.27533203 182.98188477 252.27533203 182.22241211 250.703125 C167.57572665 220.67542039 146.40617459 201.07131505 114.72631836 189.81640625 C96.58973704 184.20393982 74.63945297 185.00132151 56.72631836 190.81640625 C56.08114258 191.02539551 55.4359668 191.23438477 54.77124023 191.44970703 C41.24969017 196.00350858 29.8483858 203.25447007 19.61694336 213.1640625 C17.72631836 214.81640625 17.72631836 214.81640625 15.72631836 214.81640625 C15.47237305 215.39261719 15.21842773 215.96882812 14.95678711 216.5625 C13.58935678 219.06728507 12.00423096 220.8130993 10.03881836 222.87890625 C5.56710623 227.78389214 2.12548789 233.13341969 -1.27368164 238.81640625 C-5.28129448 237.4805353 -6.52638723 234.86688501 -8.77368164 231.50390625 C-23.9725711 209.56684246 -45.63093171 193.2407329 -72.12060547 188.05834961 C-92.16453545 184.47771113 -112.67368332 186.43330842 -131.27368164 194.81640625 C-132.29075195 195.27015625 -133.30782227 195.72390625 -134.35571289 196.19140625 C-159.00785781 207.83709217 -176.95945669 228.89824812 -187.27368164 253.81640625 C-188.26368164 252.97078125 -189.25368164 252.12515625 -190.27368164 251.25390625 C-191.24241211 250.43019531 -191.24241211 250.43019531 -192.23071289 249.58984375 C-193.5410201 248.4524069 -194.83231386 247.29246425 -196.09790039 246.10546875 C-209.86527905 233.3482751 -226.31274365 228.82239205 -244.70336914 228.5 C-246.18886765 228.46882835 -246.18886765 228.46882835 -247.70437622 228.43702698 C-250.85241082 228.37190305 -254.00052531 228.31281996 -257.14868164 228.25390625 C-259.28931474 228.21068566 -261.4299399 228.16707026 -263.57055664 228.12304688 C-268.8048484 228.01625997 -274.03921876 227.91442613 -279.27368164 227.81640625 C-280.02938961 216.4624035 -280.46102336 205.14695795 -280.59008789 193.76953125 C-280.6107941 192.1817793 -280.63179247 190.59403114 -280.65306091 189.00628662 C-280.69656289 185.69871488 -280.73751049 182.39112561 -280.77636719 179.08349609 C-280.82511993 174.93921087 -280.87886254 170.79501034 -280.93433571 166.65081024 C-281.19999991 146.70487797 -281.34107105 126.7642642 -281.27368164 106.81640625 C-276.12842701 105.59802221 -271.10276878 104.56639473 -265.82446289 104.10546875 C-264.65858643 103.99750977 -263.49270996 103.88955078 -262.29150391 103.77832031 C-261.06874756 103.66713867 -259.84599121 103.55595703 -258.58618164 103.44140625 C-233.2682552 100.94909112 -207.77736268 96.02490343 -183.44555664 88.48852539 C-179.24726838 87.18930242 -175.00065535 86.05251906 -170.76586914 84.87890625 C-167.68154508 83.94049893 -164.68544853 82.87569194 -161.67602539 81.72265625 C-158.73314761 80.61249748 -155.7718259 79.55921705 -152.80883789 78.50390625 C-136.31425645 72.59263666 -120.17028498 66.21762954 -104.27368164 58.81640625 C-103.13608398 58.2867627 -101.99848633 57.75711914 -100.82641602 57.21142578 C-75.86181073 45.51140209 -51.28934972 33.0573156 -28.27368164 17.81640625 C-26.90541468 16.92153451 -25.53692926 16.02699671 -24.16821289 15.1328125 C-16.99862348 10.435135 -16.99862348 10.435135 -10.07836914 5.3828125 C-9.11157227 4.63902344 -8.14477539 3.89523437 -7.14868164 3.12890625 C-5.90731445 2.13310547 -5.90731445 2.13310547 -4.64086914 1.1171875 C-2.27368164 -0.18359375 -2.27368164 -0.18359375 0 0 Z " fill="#CCD9EA" transform="translate(629.273681640625,289.18359375)"/>
<path d="M0 0 C14.98745127 12.39272456 25.75438042 27.43324524 34 45 C36.97 45 39.94 45 43 45 C43.24621094 43.99453125 43.49242187 42.9890625 43.74609375 41.953125 C44.93163182 37.8250047 46.82075401 34.39253843 49.0625 30.75 C49.46025635 30.09813721 49.8580127 29.44627441 50.26782227 28.7746582 C54.02255541 22.75037776 58.2484491 17.27770219 63 12 C63.74636719 11.15953125 64.49273438 10.3190625 65.26171875 9.453125 C74.8643726 -0.7685429 86.70468534 -8.51709262 100 -13 C101.06734375 -13.39058594 102.1346875 -13.78117187 103.234375 -14.18359375 C126.15552207 -21.54382875 149.06485591 -16.52745192 170 -6 C183.68773527 1.24539833 194.42024707 12.25244026 203 25 C203.55171875 25.80824219 204.1034375 26.61648438 204.671875 27.44921875 C212.10679524 39.04232891 215.85097084 51.52847395 218 65 C218.226875 66.299375 218.45375 67.59875 218.6875 68.9375 C221.52929811 97.11362595 213.61747749 126.88987789 196.125 149.375 C194.77527275 150.93884061 193.3980386 152.47919456 192 154 C191.56461914 154.48065918 191.12923828 154.96131836 190.68066406 155.45654297 C187.68041121 158.76876446 184.64193391 162.04345636 181.58642578 165.3046875 C178.94229443 168.13030278 176.31400062 170.97050224 173.6875 173.8125 C173.17848145 174.36284912 172.66946289 174.91319824 172.14501953 175.48022461 C169.59585782 178.24356285 167.07923291 181.02710567 164.625 183.875 C160.59055287 188.54541909 156.33486662 193.01040237 152.11376953 197.51123047 C149.19152383 200.63280868 146.2879501 203.75687437 143.5 207 C139.59789546 211.53274769 135.48295668 215.86661255 131.39453125 220.23046875 C127.73946899 224.13280795 124.10616696 228.05242079 120.5 232 C116.36208792 236.52736263 112.18973467 241.02057672 108 245.5 C101.95738031 251.96177987 95.96687029 258.46821892 90 265 C81.85169546 273.90518624 73.671256 282.7803042 65.47949219 291.64550781 C63.96530774 293.28433253 62.45136409 294.92337935 60.9375 296.5625 C60.19886719 297.36192017 60.19886719 297.36192017 59.4453125 298.17749023 C56.94868669 300.88148381 54.45780334 303.59047069 51.9765625 306.30859375 C51.48679932 306.84476318 50.99703613 307.38093262 50.49243164 307.93334961 C49.15146288 309.4025312 47.81200557 310.87309193 46.47265625 312.34375 C44.03661518 314.96066616 41.54349728 317.48835331 39 320 C36.08052804 318.69182776 34.12323065 317.3375529 31.96875 314.98046875 C31.41147217 314.37678467 30.85419434 313.77310059 30.2800293 313.15112305 C29.69261963 312.50312744 29.10520996 311.85513184 28.5 311.1875 C27.57731323 310.18360229 27.57731323 310.18360229 26.63598633 309.15942383 C25.36779613 307.7789842 24.1019346 306.39640173 22.83837891 305.01171875 C21.14333341 303.15684825 19.43963654 301.3106025 17.73046875 299.46875 C12.54940955 293.88466481 7.4206529 288.25805685 2.3359375 282.5859375 C-1.39413443 278.45666055 -5.17854657 274.37789794 -8.95703125 270.29296875 C-11.83394774 267.18217146 -14.70047268 264.06199517 -17.5625 260.9375 C-18.01294678 260.44580322 -18.46339355 259.95410645 -18.92749023 259.44750977 C-20.73678494 257.47211162 -22.54562988 255.4963019 -24.35449219 253.52050781 C-25.71528573 252.03431357 -27.07633763 250.54835644 -28.4375 249.0625 C-28.88585205 248.57289795 -29.3342041 248.0832959 -29.79614258 247.57885742 C-32.22831838 244.92506318 -34.66677316 242.27730991 -37.11328125 239.63671875 C-37.63672119 239.07138428 -38.16016113 238.5060498 -38.69946289 237.92358398 C-39.69116521 236.85318257 -40.68375584 235.78360304 -41.67749023 234.71508789 C-44.29996813 231.88416483 -46.86793792 229.01514865 -49.3984375 226.1015625 C-52.959568 222.01444445 -56.64994703 218.06244423 -60.375 214.125 C-65.23619178 208.96403572 -70.04746458 203.76953779 -74.76953125 198.48046875 C-77.9521778 194.94109824 -81.18642927 191.45030143 -84.41870117 187.95629883 C-88.24269943 183.82236118 -92.05342692 179.67661542 -95.8527832 175.52001953 C-98.22384612 172.92838274 -100.60516475 170.3473097 -103.00390625 167.78125 C-106.02796441 164.54363796 -109.02253537 161.28048094 -112 158 C-112.87914062 157.03449219 -113.75828125 156.06898438 -114.6640625 155.07421875 C-128.8740671 138.81850142 -136.02903734 119.74937686 -141 99 C-141.20625 98.19820312 -141.4125 97.39640625 -141.625 96.5703125 C-145.61754008 69.20477737 -137.9875176 41.19878521 -121.87963867 19.01098633 C-108.12190491 0.64432224 -87.41499162 -12.54793108 -64.7265625 -16.58203125 C-41.35284647 -19.20361156 -18.94791813 -14.30875233 0 0 Z " fill="#CCD8EA" transform="translate(589,506)"/>
<path d="M0 0 C-15.21415664 54.23338218 -46.74537869 106.21449339 -84.203125 147.953125 C-85.55903868 149.49768754 -86.87547958 151.07702884 -88.171875 152.671875 C-95.34844393 161.43646247 -103.2449871 169.43792102 -111.25 177.4375 C-111.81707672 178.00539246 -112.38415344 178.57328491 -112.96841431 179.15838623 C-119.13770339 185.32667329 -125.35835436 191.33677531 -132 197 C-133.5448126 198.4132355 -135.08695325 199.82940409 -136.625 201.25 C-141.66597347 205.79842034 -146.95074984 209.96733221 -152.3125 214.125 C-155.36124444 216.4905163 -158.36650446 218.90487509 -161.36328125 221.33569336 C-173.49928861 231.16046698 -186.01126048 240.57866767 -199.09765625 249.10546875 C-201.14133028 250.43949554 -203.16867171 251.79871183 -205.18359375 253.17578125 C-215.19309664 260.01560823 -225.55615369 266.22844262 -235.984375 272.40625 C-239.61606129 274.56021566 -243.21316579 276.74906408 -246.765625 279.03125 C-247.45205078 279.46622803 -248.13847656 279.90120605 -248.84570312 280.34936523 C-250.07267033 281.13100627 -251.29099751 281.92646439 -252.49804688 282.73852539 C-255.04417123 284.34296951 -256.42193723 285.12194239 -259.42578125 284.48828125 C-260.27527344 283.99714844 -261.12476563 283.50601562 -262 283 C-263.11246094 282.37351562 -264.22492188 281.74703125 -265.37109375 281.1015625 C-266.73033191 280.28226292 -268.08548805 279.45617018 -269.4375 278.625 C-270.19611328 278.1594873 -270.95472656 277.69397461 -271.73632812 277.21435547 C-304.8848643 256.63517669 -336.61275091 233.78345914 -366.29248047 208.453125 C-367.98281411 207.01462545 -369.68011492 205.58474563 -371.37890625 204.15625 C-384.16000385 193.36791401 -396.21429108 181.86239115 -408.0625 170.0625 C-408.84778076 169.28189209 -409.63306152 168.50128418 -410.44213867 167.69702148 C-414.60589589 163.52167475 -418.60481971 159.26202617 -422.4519043 154.79321289 C-424.53961136 152.37494947 -426.70728309 150.03403531 -428.875 147.6875 C-463.27863982 109.90585929 -489.658107 64.9069345 -508.75 17.6875 C-509.02305969 17.01699615 -509.29611938 16.34649231 -509.57745361 15.65567017 C-510.34730772 13.75704545 -511.10548103 11.85422858 -511.859375 9.94921875 C-512.29733398 8.84924561 -512.73529297 7.74927246 -513.18652344 6.6159668 C-514 4 -514 4 -513 2 C-512.319375 2.32613281 -511.63875 2.65226563 -510.9375 2.98828125 C-494.26826136 10.50273856 -478.09390694 10.3649102 -460.12465477 10.16616821 C-455.96592843 10.12046776 -451.80746313 10.10735003 -447.64851379 10.1003418 C-435.8356442 10.07702247 -424.02343071 10.03595824 -412.21118164 9.90771484 C-405.65771068 9.83682973 -399.10529044 9.80552471 -392.55143338 9.81800461 C-389.09781478 9.82289569 -385.64694611 9.80791207 -382.19386864 9.74346924 C-358.44885406 9.35564949 -358.44885406 9.35564949 -352.31474018 14.83512878 C-350.27466483 17.06600702 -348.61903666 19.4518921 -347 22 C-345.91720831 23.26856068 -344.81781269 24.52359173 -343.6875 25.75 C-343.15253906 26.37648438 -342.61757813 27.00296875 -342.06640625 27.6484375 C-339.15787838 30.95833122 -336.13916839 34.16141997 -333.125 37.375 C-328.44792584 42.36477662 -323.82070044 47.38997455 -319.26171875 52.48828125 C-315.07001838 57.14331292 -310.80360627 61.72979818 -306.54833984 66.32666016 C-303.53132461 69.58724394 -300.51981491 72.85291239 -297.50732422 76.11767578 C-294.97159247 78.8653394 -292.43444051 81.61166587 -289.89453125 84.35546875 C-288.86707174 85.46603875 -287.8397269 86.57671485 -286.8125 87.6875 C-286.31411621 88.22640869 -285.81573242 88.76531738 -285.30224609 89.32055664 C-281.48545796 93.45572568 -277.72799741 97.64179251 -273.98046875 101.83984375 C-272.18795055 103.79499674 -270.34335915 105.65633672 -268.4375 107.5 C-266 110 -266 110 -266 112 C-264.61135566 112.30556226 -263.21318736 112.56800808 -261.8125 112.8125 C-261.03519531 112.96332031 -260.25789062 113.11414063 -259.45703125 113.26953125 C-255.71369463 112.85889496 -254.46994608 110.76336825 -252 108 C-250.97836159 106.97603326 -249.94937713 105.95935565 -248.9140625 104.94921875 C-243.76639484 99.85201081 -238.67184279 94.77675885 -233.97265625 89.2578125 C-231.21866716 86.10572202 -228.3597867 83.05603127 -225.5 80 C-224.90171387 79.36054443 -224.30342773 78.72108887 -223.68701172 78.06225586 C-220.48669652 74.64586252 -217.28084227 71.2346902 -214.07421875 67.82421875 C-207.30236611 60.61885917 -200.57300833 53.38826518 -194 46 C-187.94043869 39.18886519 -181.75655347 32.50647356 -175.49169922 25.88427734 C-171.75507379 21.92196964 -168.11937547 17.89293344 -164.56494141 13.76611328 C-163.79029541 12.89188721 -163.79029541 12.89188721 -163 12 C-162.57908962 11.4755983 -162.15817924 10.95119659 -161.72451401 10.41090393 C-159.36309831 8.47892154 -157.87181057 8.63770412 -154.84283447 8.65942383 C-153.77496201 8.65963531 -152.70708954 8.6598468 -151.6068573 8.6600647 C-150.43496353 8.67556366 -149.26306976 8.69106262 -148.05566406 8.70703125 C-146.20383263 8.71360245 -146.20383263 8.71360245 -144.31459045 8.7203064 C-141.62645693 8.73174353 -138.93898742 8.74861342 -136.25101471 8.77450562 C-131.98725013 8.81513575 -127.72357912 8.83277246 -123.45965576 8.84692383 C-113.62278112 8.88306606 -103.78614662 8.9488658 -93.94944 9.01560974 C-84.96450778 9.07636779 -75.97966339 9.13059101 -66.99456763 9.16025448 C-63.45774899 9.17265478 -59.92121042 9.19141094 -56.38452911 9.22549438 C-36.82692455 9.4119054 -17.54573462 0 0 0 Z " fill="#CCD8EA" transform="translate(887,730)"/>
<path d="M0 0 C1.01586182 0.23275635 1.01586182 0.23275635 2.05224609 0.47021484 C9.70185245 2.2548198 16.99793867 4.40281825 24 8 C25.11761719 8.55429688 26.23523438 9.10859375 27.38671875 9.6796875 C44.22971413 18.20683911 58.93206959 29.39310242 71 44 C71.50660156 44.58007812 72.01320313 45.16015625 72.53515625 45.7578125 C76 49.75348189 76 49.75348189 76 52 C79.80787853 50.86792801 83.30374898 49.40040773 86.875 47.6875 C91.44324159 45.59243126 96.03591595 43.85391283 100.8125 42.3125 C102.03582031 41.91675781 103.25914062 41.52101562 104.51953125 41.11328125 C116.06474495 37.97821732 127.87098671 37.59668352 139.75 37.625 C140.86652954 37.62432022 140.86652954 37.62432022 142.00561523 37.62362671 C153.46046155 37.6440752 164.02353122 38.59654114 175 42 C175.89976562 42.21527344 176.79953125 42.43054688 177.7265625 42.65234375 C186.00072264 44.71414587 193.53902052 48.97604154 201 53 C201.65758301 53.35368652 202.31516602 53.70737305 202.99267578 54.07177734 C211.42564451 58.68022255 218.51445931 63.82285756 225.4140625 70.51953125 C227.90451881 73.00021105 227.90451881 73.00021105 230.5 74.9140625 C233.59486699 77.49634214 235.92489993 80.37862681 238.375 83.5625 C238.85686768 84.18527832 239.33873535 84.80805664 239.83520508 85.44970703 C249.16654722 97.64874517 263 116.79563291 263 133 C263.85795166 132.83918945 264.71590332 132.67837891 265.59985352 132.51269531 C280.84485661 130.21395858 298.16219654 130.75083688 313 135 C314.35629945 135.34560519 315.71309828 135.68925482 317.0703125 136.03125 C350.47240018 144.78976546 376.62800693 167.40083274 394.5 196.5625 C405.3710338 215.69063364 410.26082589 236.13986088 410.0625 258.0625 C410.05798828 259.02349609 410.05347656 259.98449219 410.04882812 260.97460938 C410.03717706 263.31647422 410.02082025 265.65820181 410 268 C410.68989014 268.00451172 411.37978027 268.00902344 412.09057617 268.01367188 C420.35956463 268.17700992 426.87368074 271.27749982 434.05175781 274.99414062 C435.96867812 275.9838288 437.89992354 276.93894108 439.8359375 277.890625 C469.40415144 292.69753522 490.90741354 319.30974914 502.875 349.8125 C510.93172751 374.64212997 511.48579551 400.79163185 505 426 C504.72671875 427.15371094 504.4534375 428.30742187 504.171875 429.49609375 C503.2092249 433.35181463 502.32400539 436.46770543 500.25 439.875 C498.77851394 441.93175793 498.77851394 441.93175793 499.1171875 444.37890625 C500.28806403 447.85526975 501.93510771 448.90130439 504.875 451.0625 C516.55733174 460.23931873 525.14042417 471.49920914 533 484 C533.55880859 484.88631104 533.55880859 484.88631104 534.12890625 485.79052734 C551.13356927 513.43879172 556.15180104 548.24241665 548.96484375 579.70703125 C542.67365214 605.58184088 531.01801481 626.52242533 513 646 C514.30964141 649.43618787 515.82903289 652.71551005 517.46191406 656.0090332 C521.43138492 664.12097593 524.08576703 672.14667253 526 681 C526.14953125 681.65210449 526.2990625 682.30420898 526.453125 682.97607422 C534.53242762 718.99339635 525.9500827 754.94560771 506.48046875 785.80541992 C501.13188599 793.98641685 494.84743735 801.05396664 488 808 C487.46270264 808.5657373 486.92540527 809.13147461 486.37182617 809.71435547 C482.15473244 814.08448163 477.66956537 817.6643493 472.6875 821.125 C471.99205078 821.62386719 471.29660156 822.12273438 470.58007812 822.63671875 C465.31126538 826.33599516 459.81868949 829.25708683 454 832 C453.9906543 832.97533691 453.98130859 833.95067383 453.97167969 834.95556641 C453.4502543 881.41384931 444.22563551 920.75676666 410.06176758 954.40722656 C399.00630107 964.95772752 386.66526131 972.29661645 373 979 C372.030625 979.49371094 371.06125 979.98742188 370.0625 980.49609375 C355.75617937 987.17099044 337.77968248 990.2375843 322.0625 990.0625 C320.89364258 990.05573242 320.89364258 990.05573242 319.70117188 990.04882812 C317.80074732 990.03716908 315.90036294 990.01923877 314 990 C313.89042969 990.556875 313.78085937 991.11375 313.66796875 991.6875 C313.43013672 992.8321875 313.43013672 992.8321875 313.1875 994 C313.03667969 994.7425 312.88585937 995.485 312.73046875 996.25 C308.39484629 1012.57234339 298.99675487 1028.32040841 288 1041 C287.55076172 1041.52996582 287.10152344 1042.05993164 286.63867188 1042.60595703 C272.47892992 1059.22248314 255.04098816 1071.4398971 235 1080 C233.99195313 1080.4434375 232.98390625 1080.886875 231.9453125 1081.34375 C203.48122011 1093.0132394 170.01416872 1093.73210271 141.34765625 1082.63671875 C138.69628028 1081.91762676 137.50845327 1081.91073428 135 1083 C133.4234766 1084.4325584 133.4234766 1084.4325584 132 1086.3125 C112.01355222 1110.03314609 84.18909606 1127.23856462 53 1131 C46.94432138 1131.42312526 40.88044404 1131.45116672 34.8125 1131.4375 C34.06042267 1131.43754028 33.30834534 1131.43758057 32.53347778 1131.43762207 C11.83989453 1131.37323789 -6.46072205 1126.50099122 -24.19238281 1115.67895508 C-28.80580778 1112.83901639 -28.80580778 1112.83901639 -34 1112 C-37.15445398 1113.27074601 -40.05178047 1114.93855188 -43 1116.625 C-60.99094073 1126.47429221 -78.44656029 1131.7298834 -98.93579102 1131.52148438 C-101.4327938 1131.50004042 -103.92691167 1131.52141375 -106.42382812 1131.546875 C-120.50822832 1131.57233813 -133.90922521 1129.37588118 -146.875 1123.625 C-147.58003662 1123.32102295 -148.28507324 1123.0170459 -149.01147461 1122.70385742 C-151.01864726 1121.82467123 -153.01142318 1120.92035482 -155 1120 C-155.97324219 1119.55011719 -156.94648438 1119.10023437 -157.94921875 1118.63671875 C-174.72735539 1110.13479301 -189.58383275 1096.75277652 -201 1082 C-205.20383281 1082.60770757 -209.03861192 1083.58942119 -213.0625 1084.9375 C-218.81497137 1086.76242195 -224.43966848 1087.83197645 -230.41796875 1088.60546875 C-232.97902832 1088.86160448 -232.97902832 1088.86160448 -235 1090 C-238.99487504 1090.21253135 -242.99161471 1090.1857921 -246.99169922 1090.18530273 C-248.96456056 1090.18746123 -250.93738257 1090.20588675 -252.91015625 1090.22460938 C-260.23246041 1090.23578278 -266.891538 1089.71308619 -274 1088 C-275.25425781 1087.77699219 -276.50851562 1087.55398438 -277.80078125 1087.32421875 C-311.3436486 1081.24247528 -341.14178584 1059.33096495 -360.50390625 1031.67578125 C-366.06757546 1023.54490901 -370.49057756 1015.23006806 -374.375 1006.1875 C-374.72135498 1005.38666992 -375.06770996 1004.58583984 -375.42456055 1003.76074219 C-377.34910249 999.13103436 -378.53306233 994.99623312 -379 990 C-380.09054687 990.03480469 -381.18109375 990.06960938 -382.3046875 990.10546875 C-417.2061932 990.87958078 -450.39589455 978.16773489 -475.8125 954.125 C-476.534375 953.42375 -477.25625 952.7225 -478 952 C-478.7425 951.319375 -479.485 950.63875 -480.25 949.9375 C-490.814446 939.95996767 -498.05602996 927.62953503 -505 915 C-505.6496875 913.97003906 -506.299375 912.94007813 -506.96875 911.87890625 C-509.91338544 906.72971186 -511.419357 901.02372644 -513.125 895.375 C-513.47175781 894.27542969 -513.81851563 893.17585937 -514.17578125 892.04296875 C-518.49151286 877.93829801 -519.35328586 864.31619325 -519.625 849.6875 C-519.66328529 847.96417527 -519.70234266 846.24086751 -519.7421875 844.51757812 C-519.83700801 840.34519387 -519.92144415 836.17272086 -520 832 C-520.99652588 831.48703369 -521.99305176 830.97406738 -523.01977539 830.44555664 C-536.5273729 823.41871964 -536.5273729 823.41871964 -542.4375 818.4375 C-543.29903687 817.73500122 -543.29903687 817.73500122 -544.17797852 817.01831055 C-545.79644566 815.69157445 -547.39943817 814.34823051 -549 813 C-549.7940625 812.34773437 -550.588125 811.69546875 -551.40625 811.0234375 C-576.64979254 789.76060743 -592.4436177 755.46519288 -596 723 C-597.10672204 698.64708448 -593.92001211 675.11814004 -582.45263672 653.32861328 C-580.50483332 649.81447167 -580.50483332 649.81447167 -580.29125977 645.92675781 C-581.34150202 643.07160388 -583.23734555 641.46026954 -585.375 639.3125 C-609.93412174 613.43251392 -618.6585986 578.60915082 -618.27734375 543.88671875 C-617.38813768 511.80009382 -601.94011472 481.8254176 -580 459 C-578.83597656 457.77603516 -578.83597656 457.77603516 -577.6484375 456.52734375 C-573.686612 452.4528911 -569.90268986 448.89132992 -565 446 C-565.18030762 445.472854 -565.36061523 444.94570801 -565.54638672 444.40258789 C-567.55748186 438.45541826 -569.38657049 432.46958833 -571.125 426.4375 C-571.38925781 425.54353516 -571.65351562 424.64957031 -571.92578125 423.72851562 C-581.02036976 392.17444839 -574.49122878 357.13335728 -559.01464844 328.80322266 C-543.07381307 300.47333574 -516.21362223 278.34309096 -485 269 C-482.00970765 268.28495628 -479.00993083 267.62685672 -476 267 C-476.02356567 266.12601562 -476.02356567 266.12601562 -476.04760742 265.234375 C-476.33702881 252.80757293 -476.25460083 241.08214827 -473 229 C-472.71793701 227.94981689 -472.71793701 227.94981689 -472.43017578 226.87841797 C-463.22972251 193.97783128 -441.95544044 166.2699359 -412.58203125 148.97265625 C-398.4650326 141.10855646 -384.87193899 136.10868157 -369 133 C-368.24001709 132.81969238 -367.48003418 132.63938477 -366.69702148 132.45361328 C-363.2684771 131.87696483 -359.89884368 131.85692463 -356.43359375 131.8671875 C-355.35973167 131.86575241 -355.35973167 131.86575241 -354.26417542 131.86428833 C-352.75725211 131.86361047 -351.25032583 131.8654372 -349.7434082 131.86962891 C-347.44150223 131.87499068 -345.13979065 131.86966655 -342.83789062 131.86328125 C-341.36979124 131.86394195 -339.90169197 131.86522294 -338.43359375 131.8671875 C-337.4053373 131.86415115 -337.4053373 131.86415115 -336.35630798 131.86105347 C-333.09149699 131.87702755 -330.12281405 131.99994475 -327 133 C-326.96189209 132.4438501 -326.92378418 131.8877002 -326.88452148 131.31469727 C-326.40054202 125.74863934 -325.24935521 121.06635693 -323.0625 115.9375 C-322.75747559 115.21288574 -322.45245117 114.48827148 -322.13818359 113.74169922 C-309.25609485 84.29601346 -284.028355 59.23779603 -254.0546875 47.3671875 C-250.72308006 46.1655062 -247.37785308 45.06323614 -244 44 C-243.25234375 43.71769531 -242.5046875 43.43539062 -241.734375 43.14453125 C-212.99263032 32.33895167 -177.65234395 36.1316504 -150 48 C-146.61356759 49.57594607 -143.28203869 51.21696936 -140 53 C-139.72671875 52.41992188 -139.4534375 51.83984375 -139.171875 51.2421875 C-130.6660289 34.96766863 -114.2646476 23.27330149 -99 14 C-98.00097656 13.38382813 -97.00195312 12.76765625 -95.97265625 12.1328125 C-67.78907783 -4.22637738 -31.31248994 -7.41101063 0 0 Z M-74 18 C-75.68638725 18.5658273 -77.3740209 19.12794588 -79.0625 19.6875 C-99.76429171 27.19225349 -122.30018968 44.29830261 -132.125 64.2890625 C-133 66 -133 66 -135 67 C-142.28098022 68.1201508 -147.25735679 65.09664358 -153.50390625 61.80859375 C-179.18400136 48.52380712 -212.4055372 48.47628304 -239.73486328 56.76489258 C-267.80746928 65.99473586 -292.57720183 85.88175794 -306.34082031 112.07763672 C-310.63115635 120.57120565 -313.92773846 129.20951776 -316.0625 138.5 C-317.54545455 144.03636364 -317.54545455 144.03636364 -320 146 C-323.77512516 146.30943649 -326.83441229 146.22988479 -330.53515625 145.5 C-350.20058047 142.66214848 -371.76531133 144.93755501 -390 153 C-390.6403418 153.27859863 -391.28068359 153.55719727 -391.94042969 153.84423828 C-400.89505838 157.77131372 -409.32859581 161.85311969 -417 168 C-417.5048291 168.40089844 -418.0096582 168.80179688 -418.52978516 169.21484375 C-441.13909121 187.29692299 -457.96597758 212.89009324 -462 242 C-462.08880266 244.6466978 -462.13676017 247.27175185 -462.140625 249.91796875 C-462.15893128 251.43426008 -462.17849953 252.9505366 -462.19921875 254.46679688 C-462.22830819 256.83709289 -462.25000387 259.20641732 -462.25048828 261.5769043 C-462.25381322 263.87895167 -462.28826385 266.17880218 -462.328125 268.48046875 C-462.3210553 269.18987106 -462.3139856 269.89927338 -462.30670166 270.63017273 C-462.35644531 272.63354492 -462.35644531 272.63354492 -463 276 C-465.77720095 278.3044796 -468.47739597 279.33433186 -471.9765625 280.0703125 C-472.72010986 280.23942139 -473.46365723 280.40853027 -474.22973633 280.58276367 C-475.02017334 280.76170166 -475.81061035 280.94063965 -476.625 281.125 C-506.39276323 288.48108613 -530.74432407 308.02338783 -546.765625 333.89111328 C-551.84964472 342.57698401 -556.50231262 352.22571671 -559 362 C-559.27585937 362.95261719 -559.55171875 363.90523438 -559.8359375 364.88671875 C-565.87678834 389.18867375 -562.60789546 414.67523853 -552.64257812 437.33007812 C-549.09814517 445.48428401 -549.09814517 445.48428401 -550 450 C-552.95840563 453.55220748 -556.498129 456.27763561 -560.125 459.125 C-580.81349421 476.01413267 -595.17638102 498.15794096 -602 524 C-602.27166992 525.02480469 -602.27166992 525.02480469 -602.54882812 526.0703125 C-606.29928977 540.55765531 -605.97855462 556.34844947 -603.6875 571.0625 C-603.56987305 571.82304688 -603.45224609 572.58359375 -603.33105469 573.3671875 C-602.40395148 578.78279808 -600.86935757 583.83986009 -599 589 C-598.63708862 590.02649658 -598.63708862 590.02649658 -598.2668457 591.07373047 C-591.86119311 608.74997946 -581.31953899 627.76739279 -566.1796875 639.3984375 C-564.1072623 642.21199489 -564.62774854 644.62538399 -565 648 C-565.98482334 650.68408484 -567.30496643 653.12683481 -568.6875 655.625 C-577.95141661 673.24709164 -582.23803977 689.92337786 -582.3125 709.8125 C-582.31545074 710.50330658 -582.31840149 711.19411316 -582.32144165 711.90585327 C-582.33229331 723.07577802 -581.22413688 733.28063715 -578 744 C-577.78472656 744.90363281 -577.56945312 745.80726563 -577.34765625 746.73828125 C-572.91784724 764.42856429 -560.85059123 781.55785931 -549 795 C-548.42378906 795.67160156 -547.84757813 796.34320312 -547.25390625 797.03515625 C-537.13494682 808.01050868 -523.51895501 815.63679983 -510.31640625 822.2578125 C-507 824 -507 824 -505 826 C-505.20097513 828.02504286 -505.41717726 830.04922378 -505.68945312 832.06591797 C-506.28130072 837.65776107 -506.22498725 843.2812395 -506.24023438 848.89916992 C-506.24987179 851.03409848 -506.28095148 853.16803319 -506.3125 855.30273438 C-506.41240401 868.20718801 -504.58949853 880.68967567 -500.375 892.9375 C-500.12266602 893.67709961 -499.87033203 894.41669922 -499.61035156 895.17871094 C-491.41820854 918.13814149 -476.35079268 938.29787821 -457 953 C-456.22269531 953.60457031 -455.44539062 954.20914063 -454.64453125 954.83203125 C-443.09331536 963.40353651 -429.7878579 969.12998226 -416 973 C-414.92621094 973.30808594 -413.85242188 973.61617187 -412.74609375 973.93359375 C-402.56700247 976.39875027 -392.33610039 976.44298264 -381.90185547 976.53417969 C-380.68256348 976.55383789 -379.46327148 976.57349609 -378.20703125 976.59375 C-377.1085083 976.60083984 -376.00998535 976.60792969 -374.87817383 976.61523438 C-371.64562776 977.04737388 -370.28061474 977.69676209 -368 980 C-367.25683177 982.60403789 -366.71398598 985.03560307 -366.25 987.6875 C-364.33671579 997.01813248 -360.61777978 1004.73322093 -356 1013 C-355.40832031 1014.09441406 -354.81664062 1015.18882812 -354.20703125 1016.31640625 C-350.41395883 1023.11268933 -346.06556088 1029.10250394 -341 1035 C-340.27296875 1035.88429688 -339.5459375 1036.76859375 -338.796875 1037.6796875 C-332.11035873 1045.49538367 -324.50134096 1051.28740012 -316 1057 C-315.42282227 1057.38849121 -314.84564453 1057.77698242 -314.25097656 1058.17724609 C-295.81890371 1070.41352921 -275.45553571 1076.40948965 -253.4375 1076.3125 C-252.77392487 1076.31034485 -252.11034973 1076.3081897 -251.42666626 1076.30596924 C-236.64831623 1076.22898592 -223.59355984 1074.48454273 -209.79174805 1068.98193359 C-205.35127185 1067.25026245 -201.75032947 1066.30142214 -197 1067 C-194.375 1069.15625 -194.375 1069.15625 -192 1072 C-191.175 1072.8971875 -190.35 1073.794375 -189.5 1074.71875 C-187.83333333 1076.57291667 -186.16666667 1078.42708333 -184.5 1080.28125 C-182.06446756 1082.92989152 -179.55934078 1085.47112757 -177 1088 C-176.47462646 1088.55300781 -175.94925293 1089.10601563 -175.40795898 1089.67578125 C-171.30627665 1093.94064817 -167.05180509 1097.32959705 -162.0625 1100.5 C-161.3295874 1100.96921875 -160.5966748 1101.4384375 -159.84155273 1101.921875 C-149.73037524 1108.23012329 -138.63370003 1113.27395148 -127 1116 C-126.19820312 1116.20367188 -125.39640625 1116.40734375 -124.5703125 1116.6171875 C-109.8028216 1119.74190297 -92.72334711 1119.24202734 -78 1116 C-77.04996094 1115.82855469 -76.09992187 1115.65710937 -75.12109375 1115.48046875 C-64.07853177 1113.20137806 -54.05541457 1107.74951584 -44.70898438 1101.57861328 C-35.63639132 1095.63515003 -35.63639132 1095.63515003 -30.41796875 1096.1484375 C-25.7483972 1097.79297158 -21.79506504 1100.77422137 -17.734375 1103.546875 C4.04182676 1118.20875744 32.77208397 1121.40986232 58.1875 1116.5625 C78.92642672 1112.14330966 97.87414156 1101.74843779 113 1087 C114.299375 1085.7625 114.299375 1085.7625 115.625 1084.5 C124.29111129 1076.68009797 124.29111129 1076.68009797 129 1067 C134.71976838 1066.43055403 139.0789972 1066.78761811 144.3125 1069.25 C169.33850597 1080.39737068 200.52299876 1078.64119658 225.6875 1069.25 C242.67558756 1062.61545488 256.70430072 1053.51629622 270 1041 C270.60328125 1040.46117187 271.2065625 1039.92234375 271.828125 1039.3671875 C286.69646508 1025.54102079 298.29349188 1003.64770375 302.0625 983.8125 C303 980 303 980 304.71118164 978.28491211 C307.52331064 976.70622038 309.34300476 976.63129387 312.55859375 976.62890625 C313.65606934 976.61472656 314.75354492 976.60054687 315.88427734 976.5859375 C317.05684082 976.57820313 318.2294043 976.57046875 319.4375 976.5625 C351.04115888 975.78891037 377.14993791 966.02168934 401 945 C401.66 944.43539062 402.32 943.87078125 403 943.2890625 C414.88037652 932.34921579 423.55197124 917.65866746 430 903 C430.28456055 902.3699707 430.56912109 901.73994141 430.86230469 901.09082031 C437.31344037 886.68155178 440.30674557 871.61091047 439.95703125 855.828125 C439.93466816 854.0950632 439.91321007 852.36198952 439.89257812 850.62890625 C439.85534948 847.92724109 439.81198164 845.22618962 439.75317383 842.52490234 C439.69876647 839.89671831 439.66963379 837.26923041 439.64453125 834.640625 C439.60885796 833.42962128 439.60885796 833.42962128 439.57246399 832.19415283 C439.55563385 828.59581628 439.63925591 826.47949002 441.8371582 823.55810547 C444.55270558 821.60183237 447.32847555 820.26231892 450.375 818.875 C476.43755794 806.32395571 494.36037589 784.02081257 506 758 C506.48210937 756.92363281 506.96421875 755.84726562 507.4609375 754.73828125 C508.79132104 751.52520342 509.93116844 748.30919379 511 745 C511.39316406 743.79601562 511.78632812 742.59203125 512.19140625 741.3515625 C519.80348652 715.0047866 516.70910694 682.18722708 504 658 C503.06215919 656.54904733 502.10623811 655.10946371 501.125 653.6875 C498.94629312 650.28236871 497.89103148 647.47034614 498.140625 643.38671875 C499.51158316 639.57919403 502.29333103 637.33296239 505.23339844 634.64257812 C523.17677578 618.00108621 536.21340803 590.39517972 538 566 C538.36546204 555.71698108 538.61177671 545.27136018 538 535 C537.67 534.67 537.34 534.34 537 534 C536.69481238 532.4438453 536.43224085 530.87929892 536.1875 529.3125 C532.87337183 511.00252947 525.46851561 494.72273972 514 480 C513.36449219 479.16339844 512.72898437 478.32679688 512.07421875 477.46484375 C505.36394738 468.82618371 498.07402674 461.8113688 489.30395508 455.32421875 C485.09786685 452.1957337 485.09786685 452.1957337 484 450 C483.56874854 445.14842111 484.50747857 443.06188677 487 439 C487.85396825 436.4715842 488.5844108 433.9227416 489.3125 431.35546875 C490.05068619 428.8263422 491.01074621 426.44015934 492 424 C494.99976462 414.64779266 495.18646967 405.67184914 495.18530273 395.92089844 C495.18747297 393.90017086 495.20563516 391.88000532 495.22460938 389.859375 C495.2425814 377.61443851 494.32157739 365.9047984 489.8125 354.4375 C489.34904175 353.22864136 489.34904175 353.22864136 488.8762207 351.99536133 C476.86183578 321.42132773 454.7739094 299.35353447 425 286 C417.81315365 282.89830842 410.67029831 281.18021906 402.96875 279.80859375 C399.82524903 278.95240335 398.88395876 278.57275517 397 276 C396.70703125 273.37475586 396.70703125 273.37475586 396.8125 270.21484375 C396.83812012 269.05315674 396.86374023 267.89146973 396.89013672 266.69458008 C396.9263916 265.45474365 396.96264648 264.21490723 397 262.9375 C397.43649594 230.23564005 386.91237594 202.74800023 364.32763672 178.92724609 C343.62775827 157.75901672 314.74772292 145.06992861 285.13330078 144.6796875 C278.77299212 144.69655555 272.4408263 144.86551059 266.09765625 145.34375 C265.35684814 145.39958252 264.61604004 145.45541504 263.8527832 145.51293945 C261.89445647 145.67550808 259.93915668 145.87346835 257.984375 146.07421875 C255 146 255 146 253.1640625 144.921875 C251.5255277 142.21664305 251.15932964 139.67479668 250.625 136.5625 C245.61697758 111.5990413 228.46351277 87.80653172 207.875 73.0625 C206.26502975 72.01812387 204.63939299 70.99755517 203 70 C201.58460938 69.11248047 201.58460938 69.11248047 200.140625 68.20703125 C193.34413405 64.07807496 186.44001871 60.79364458 179 58 C178.02160156 57.62875 177.04320312 57.2575 176.03515625 56.875 C149.34623812 47.33572834 115.38104597 49.64643953 89.875 61.625 C86.82593422 63.08790991 83.79501898 64.57985652 80.8046875 66.16015625 C77.38737148 67.75046566 74.51966705 68.24829142 71 67 C67.82811186 63.6842195 65.50782526 59.82823326 63 56 C46.73262151 34.44572349 23.50519784 19.6601311 -2.875 13.875 C-10.76610429 12.11694785 -10.76610429 12.11694785 -13 11 C-14.85605008 10.90267077 -16.71561963 10.86923232 -18.57421875 10.8671875 C-19.70980225 10.86501221 -20.84538574 10.86283691 -22.01538086 10.8605957 C-23.83307983 10.86772583 -23.83307983 10.86772583 -25.6875 10.875 C-27.53130249 10.88116333 -27.53130249 10.88116333 -29.41235352 10.88745117 C-45.04826648 10.98347837 -59.52750534 11.42159333 -74 18 Z " fill="#647C9C" transform="translate(659,66)"/>
<path d="M0 0 C1.39047233 0.00056514 2.78094525 0.00024556 4.17141724 -0.00088501 C7.92081789 -0.00145553 11.67008888 0.01024976 15.41945958 0.02426291 C19.34721409 0.03682068 23.27497204 0.03794473 27.20274353 0.04031372 C34.62920061 0.04651372 42.05559835 0.06290438 49.48202938 0.0830127 C57.94156091 0.10541792 66.40109538 0.11637673 74.86064923 0.12640357 C92.25210443 0.14727202 109.64350198 0.18241903 127.03491211 0.22705078 C126.89800513 1.6436175 126.75514733 3.05960971 126.60986328 4.4753418 C126.53096359 5.26393082 126.4520639 6.05251984 126.37077332 6.86500549 C125.85467665 10.49461102 124.68316184 13.76499804 123.34741211 17.16455078 C123.07904541 17.85693848 122.81067871 18.54932617 122.53417969 19.26269531 C115.95516852 35.75157041 104.35957935 48.93275489 87.90991211 56.10205078 C78.44722775 59.93537617 69.47831813 60.51879675 59.39651871 60.53201103 C57.12646928 60.53571179 54.85684241 60.55253216 52.58688354 60.57276917 C46.14027736 60.62786897 39.69361448 60.65899005 33.24682617 60.68334961 C29.28761168 60.69920334 25.32870885 60.72937906 21.36965561 60.76811409 C19.86498182 60.77976275 18.36025248 60.78569443 16.8555336 60.78579521 C14.75890549 60.78598682 12.6631441 60.80421259 10.56665039 60.82641602 C8.77869553 60.83402199 8.77869553 60.83402199 6.95462036 60.84178162 C4.05803923 61.00163874 4.05803923 61.00163874 2.11886597 62.5294342 C0.70340818 64.39230689 0.70340818 64.39230689 1.15991211 67.78955078 C1.69125144 71.48147472 1.69125144 71.48147472 5.03491211 73.22705078 C8.07325908 73.52568038 8.07325908 73.52568038 11.58251953 73.4699707 C12.24310364 73.47186905 12.90368774 73.4737674 13.58428955 73.47572327 C15.76977386 73.47942954 17.95492601 73.46872331 20.14038086 73.45751953 C21.66392477 73.45632678 23.18746943 73.45587477 24.71101379 73.45613098 C27.90797518 73.454566 31.10482461 73.44627968 34.30175781 73.43286133 C38.38248584 73.41594356 42.46309001 73.41204504 46.54384899 73.41280651 C49.69329492 73.41253324 52.84271424 73.40702582 55.99215126 73.39980507 C57.49551505 73.39664023 58.99888183 73.39465615 60.50224876 73.39391136 C71.30660377 73.38815165 71.30660377 73.38815165 82.03491211 72.22705078 C82.91939897 87.32884502 77.44625419 99.3207109 67.53491211 110.60205078 C57.8617785 120.79717474 46.64367646 128.64822026 32.13166809 129.37181091 C31.12367661 129.38132278 30.11568512 129.39083466 29.07714844 129.40063477 C27.35054741 129.42086952 27.35054741 129.42086952 25.58906555 129.44151306 C23.74661507 129.45717064 23.74661507 129.45717064 21.86694336 129.47314453 C19.25691366 129.50605861 16.6468877 129.53927064 14.03686523 129.57275391 C9.92859114 129.62132788 5.82029378 129.66525829 1.71191406 129.70385742 C-2.25739004 129.74170432 -6.22642761 129.7949855 -10.19555664 129.84814453 C-11.42992966 129.85655869 -12.66430267 129.86497284 -13.93608093 129.87364197 C-15.0776918 129.89028397 -16.21930267 129.90692596 -17.39550781 129.92407227 C-18.40111252 129.93437973 -19.40671722 129.94468719 -20.4427948 129.95530701 C-23.2107524 130.05688455 -23.2107524 130.05688455 -25.96508789 132.22705078 C-26.32871607 134.43430152 -26.32871607 134.43430152 -26.15258789 136.85205078 C-26.12551758 137.66931641 -26.09844727 138.48658203 -26.07055664 139.32861328 C-26.03575195 139.95509766 -26.00094727 140.58158203 -25.96508789 141.22705078 C-22.89290453 142.2511119 -20.70496614 142.38170438 -17.48388672 142.43237305 C-16.3629512 142.45231827 -15.24201569 142.47226349 -14.08711243 142.49281311 C-12.87766464 142.5095256 -11.66821686 142.5262381 -10.42211914 142.54345703 C-8.56401863 142.57462868 -8.56401863 142.57462868 -6.66838074 142.60643005 C-3.37883533 142.66076875 -0.08926063 142.71101029 3.20037842 142.75927734 C6.55869025 142.80955724 9.91691257 142.86520939 13.27514648 142.92041016 C19.8616637 143.02758126 26.44824795 143.12935214 33.03491211 143.22705078 C32.89244924 144.65646875 32.74529426 146.08541954 32.59619141 147.51416016 C32.47403511 148.70785217 32.47403511 148.70785217 32.34941101 149.92565918 C31.13072394 158.84357963 26.47392855 167.20435891 21.03491211 174.22705078 C20.48448242 174.97599609 19.93405273 175.72494141 19.36694336 176.49658203 C9.96996659 188.25783014 -6.24571278 195.29488081 -20.96508789 197.22705078 C-26.46125194 197.50051841 -31.94867191 197.48482099 -37.44946289 197.45751953 C-39.07049523 197.45632151 -40.69152827 197.45587588 -42.31256104 197.45613098 C-45.71842792 197.4545707 -49.12418908 197.44633904 -52.5300293 197.43286133 C-56.76924341 197.41624866 -61.00833885 197.41212081 -65.24758148 197.4126873 C-88.83315395 197.41183982 -112.39145079 196.96184923 -135.96508789 196.22705078 C-135.96508789 194.22705078 -135.96508789 194.22705078 -133.90258789 192.03955078 C-132.92631948 191.09903305 -131.94685283 190.16182948 -130.96508789 189.22705078 C-126.790549 185.16158536 -122.83805469 180.98979531 -119.03149414 176.57861328 C-116.47294775 173.66699716 -113.84865085 170.82074734 -111.21508789 167.97705078 C-110.44358398 167.14379272 -110.44358398 167.14379272 -109.65649414 166.29370117 C-108.60825311 165.16185509 -107.559913 164.03010077 -106.51147461 162.8984375 C-103.17644645 159.29382702 -99.85669202 155.67534814 -96.54711914 152.04736328 C-94.93073742 150.28181471 -93.30461093 148.52508376 -91.66430664 146.78173828 C-67.11314304 120.3554414 -53.58254561 87.45414778 -54.69165039 51.07861328 C-54.89711929 48.18443708 -55.24986048 45.97406409 -55.96508789 43.22705078 C-56.99168088 34.72266114 -56.22619973 28.77283817 -51.12524414 21.78564453 C-45.22990258 14.80291629 -39.01201024 9.91951573 -30.90258789 5.78955078 C-30.25427002 5.45930908 -29.60595215 5.12906738 -28.93798828 4.78881836 C-19.48694444 0.25720353 -10.36663071 -0.05795971 0 0 Z " fill="#CCD8EA" transform="translate(875.965087890625,529.77294921875)"/>
<path d="M0 0 C17.768422 -0.07027201 35.53680764 -0.12307691 53.30533886 -0.15543652 C61.55671539 -0.1708651 69.80800528 -0.19187737 78.05932617 -0.22631836 C85.25631867 -0.25634411 92.45324836 -0.27560409 99.65030175 -0.28226548 C103.45643763 -0.28615558 107.26239394 -0.29521279 111.06847191 -0.31719017 C114.66111419 -0.3377643 118.25350533 -0.34379226 121.84620094 -0.33932304 C123.77245945 -0.34052396 125.69869149 -0.3565554 127.62487793 -0.3732605 C138.70167917 -0.33451603 149.24601686 1.29080838 158.9375 6.875 C159.84725586 7.36419922 159.84725586 7.36419922 160.77539062 7.86328125 C169.80220227 12.85766358 176.22597026 19.90858684 181 29 C181.99364901 33.96824504 181.26860812 38.31362569 180.48046875 43.26171875 C177.48335826 66.58070035 181.98971223 89.9050822 192 111 C192.3304834 111.6997998 192.6609668 112.39959961 193.00146484 113.12060547 C199.8973643 127.43174644 209.43825577 138.76193822 220.3515625 150.140625 C223.44744575 153.38008066 226.40822122 156.71740966 229.34326172 160.10253906 C231.75852296 162.8687357 234.2493866 165.56111317 236.75 168.25 C237.79182434 169.37485398 238.83348728 170.49985748 239.875 171.625 C240.39449219 172.18574219 240.91398438 172.74648438 241.44921875 173.32421875 C247.23456513 179.57589028 252.99320361 185.85272036 258.6875 192.1875 C259.65236328 193.26064453 259.65236328 193.26064453 260.63671875 194.35546875 C262 196 262 196 262 197 C247.1518802 197.09389307 232.3037836 197.16419764 217.45542908 197.20724869 C210.55937714 197.22777905 203.66351082 197.25571448 196.76757812 197.30175781 C190.10207598 197.34624096 183.43680563 197.36919453 176.77114868 197.37950897 C174.23887107 197.38685155 171.70660296 197.40118868 169.17440796 197.42292023 C145.3362618 197.61920794 125.93480437 195.34906426 108 178 C105.3787031 174.81942825 103.14795682 171.51323348 101 168 C100.60167969 167.40574219 100.20335937 166.81148437 99.79296875 166.19921875 C95.23758283 159.05050452 93.91933532 151.3157956 94 143 C94.66763367 142.99191315 95.33526733 142.98382629 96.02313232 142.97549438 C102.96613759 142.8894985 109.90885571 142.78999678 116.8515625 142.68261719 C119.44331036 142.6443123 122.03511166 142.60946213 124.62695312 142.578125 C128.35045483 142.53250783 132.07358815 142.4745069 135.796875 142.4140625 C136.95741394 142.40251129 138.11795288 142.39096008 139.31365967 142.37905884 C140.93488739 142.3492543 140.93488739 142.3492543 142.58886719 142.31884766 C143.53928894 142.30552399 144.48971069 142.29220032 145.46893311 142.2784729 C148.13917684 141.98468749 149.77521058 141.49638371 152 140 C153.17110449 137.1403994 153.17110449 137.1403994 153 134 C150.95648078 131.3212944 149.75006724 130.14220388 146.40455627 129.50793457 C144.93115028 129.51270813 144.93115028 129.51270813 143.42797852 129.51757812 C142.30903702 129.51077026 141.19009552 129.5039624 140.0372467 129.49694824 C138.82999435 129.50826782 137.622742 129.5195874 136.37890625 129.53125 C135.12802719 129.52420044 133.87714813 129.51715088 132.58836365 129.5098877 C127.90742605 129.48410252 123.22704025 129.49330578 118.54608154 129.50506592 C113.96926793 129.51468019 109.39313704 129.49436668 104.81640625 129.46875 C103.03285484 129.48572937 103.03285484 129.48572937 101.21327209 129.50305176 C86.41186061 129.41522382 72.58126216 124.4733768 61.6875 114.25 C57.3888612 109.65582978 54.18726367 104.39817568 51 99 C50.2265625 97.84371094 50.2265625 97.84371094 49.4375 96.6640625 C47.60496987 93.26790612 46.70151571 89.78806387 45.8125 86.0625 C45.54663086 85.02706055 45.54663086 85.02706055 45.27539062 83.97070312 C44.27588072 79.8993404 43.80996557 76.18731029 44 72 C44.9902417 72.16081055 45.9804834 72.32162109 47.00073242 72.48730469 C53.95916675 73.35012733 60.9874868 73.18555178 67.98828125 73.203125 C68.74947958 73.20595238 69.51067791 73.20877975 70.29494286 73.21169281 C74.31194777 73.22660016 78.32891746 73.23588678 82.34594727 73.24023438 C86.49327426 73.24575093 90.64027821 73.26986903 94.78750324 73.29820633 C97.98305732 73.3167993 101.17853236 73.3220362 104.37413597 73.32357025 C105.90398133 73.32659768 107.43382528 73.33462928 108.96361732 73.34775543 C111.09619927 73.36476962 113.22797385 73.36294931 115.3605957 73.35644531 C116.57334671 73.36009094 117.78609772 73.36373657 119.03559875 73.36749268 C121.9758955 73.24003377 121.9758955 73.24003377 123.88761902 71.66522217 C125.64993816 69.02704968 125.4487099 67.07686792 125 64 C122.7046435 61.64413474 121.30057647 61.03815809 118.01818848 60.62145996 C116.85525269 60.61940552 115.69231689 60.61735107 114.49414062 60.61523438 C113.84958923 60.6098616 113.20503784 60.60448883 112.54095459 60.59895325 C111.14418021 60.58918915 109.74734527 60.58622699 108.35054016 60.58930969 C106.12870717 60.59380573 103.90766341 60.57973319 101.68591309 60.56091309 C96.95728839 60.52415613 92.22874641 60.5104512 87.5 60.5 C82.04353158 60.48786149 76.58744689 60.46590862 71.13114929 60.41999817 C68.96215006 60.40659542 66.79365696 60.41057031 64.62463379 60.41540527 C47.85979522 60.34823735 33.5702546 56.14636923 21.30859375 44.3359375 C20.54675781 43.56507813 19.78492188 42.79421875 19 42 C18.28972656 41.31164062 17.57945312 40.62328125 16.84765625 39.9140625 C6.86674616 29.60747972 -0.14677434 14.30730702 0 0 Z " fill="#CCD8EA" transform="translate(254,530)"/>
<path d="M0 0 C1.03613937 0.00707474 2.07227875 0.01414948 3.13981628 0.0214386 C6.44160872 0.04937518 9.74169091 0.11211495 13.04296875 0.17578125 C15.28448068 0.20086495 17.52601925 0.22367799 19.76757812 0.24414062 C25.25578955 0.29919919 30.74300696 0.38281844 36.23046875 0.48828125 C36.23046875 0.81828125 36.23046875 1.14828125 36.23046875 1.48828125 C35.67558777 1.49192688 35.12070679 1.49557251 34.54901123 1.49932861 C28.77362181 1.54113965 22.99902815 1.61047466 17.22412109 1.69580078 C15.06892862 1.72402624 12.91363232 1.7452329 10.75830078 1.75927734 C7.65994045 1.78068472 4.56283048 1.82732445 1.46484375 1.87890625 C0.50116882 1.88013489 -0.4625061 1.88136353 -1.4553833 1.88262939 C-6.83749269 1.92810668 -6.83749269 1.92810668 -11.40917969 4.52636719 C-11.8580957 5.17379883 -12.30701172 5.82123047 -12.76953125 6.48828125 C-13.75953125 6.15828125 -14.74953125 5.82828125 -15.76953125 5.48828125 C-11.33462465 -0.50651766 -7.11727925 -0.18325717 0 0 Z " fill="#B8C7DD" transform="translate(737.76953125,738.51171875)"/>
<path d="M0 0 C0.66 0.33 1.32 0.66 2 1 C0.54782324 2.50596108 -0.91192861 4.00462104 -2.375 5.5 C-3.18710938 6.3353125 -3.99921875 7.170625 -4.8359375 8.03125 C-7 10 -7 10 -9 10 C-7.61811547 6.78956118 -6.07578097 4.95063635 -3.375 2.75 C-2.74335938 2.22921875 -2.11171875 1.7084375 -1.4609375 1.171875 C-0.73777344 0.59179688 -0.73777344 0.59179688 0 0 Z " fill="#6F86A4" transform="translate(225,231)"/>
<path d="M0 0 C0.99 0.33 1.98 0.66 3 1 C0.03 3.97 -2.94 6.94 -6 10 C-6.33 9.01 -6.66 8.02 -7 7 C-4.69 4.69 -2.38 2.38 0 0 Z " fill="#C4D2E6" transform="translate(479,512)"/>
<path d="M0 0 C0.66 0.33 1.32 0.66 2 1 C-3.0940919 7.70459519 -3.0940919 7.70459519 -6.875 8.9375 C-7.57625 8.958125 -8.2775 8.97875 -9 9 C-6 6 -3 3 0 0 Z " fill="#6B82A2" transform="translate(772,1152)"/>
<path d="M0 0 C-1.5830577 4.2742558 -4.50568404 6.26531794 -8 9 C-8.66 8.67 -9.32 8.34 -10 8 C-8.71451591 6.66070495 -7.42141845 5.32871357 -6.125 4 C-5.04605469 2.88625 -5.04605469 2.88625 -3.9453125 1.75 C-2 0 -2 0 0 0 Z " fill="#7286A4" transform="translate(127,363)"/>
<path d="M0 0 C-1.44253657 3.36591866 -3.33264727 5.51047079 -6 8 C-6.99 7.67 -7.98 7.34 -9 7 C-7.88121617 5.82737096 -6.75476949 4.66204862 -5.625 3.5 C-4.68527344 2.52546875 -4.68527344 2.52546875 -3.7265625 1.53125 C-2 0 -2 0 0 0 Z " fill="#6980A0" transform="translate(825,533)"/>
<path d="M0 0 C0.66 0.33 1.32 0.66 2 1 C-0.64 3.64 -3.28 6.28 -6 9 C-6.66 8.67 -7.32 8.34 -8 8 C-7.04578192 6.85073734 -6.08647955 5.70569459 -5.125 4.5625 C-4.59132812 3.92441406 -4.05765625 3.28632813 -3.5078125 2.62890625 C-2 1 -2 1 0 0 Z " fill="#C5D2E7" transform="translate(135,373)"/>
<path d="M0 0 C2.97 0.495 2.97 0.495 6 1 C4.68 1.33 3.36 1.66 2 2 C2.309375 3.36125 2.309375 3.36125 2.625 4.75 C3 8 3 8 1 12 C0.67 8.04 0.34 4.08 0 0 Z " fill="#C2D2E6" transform="translate(298,602)"/>
<path d="M0 0 C0.99 0.33 1.98 0.66 3 1 C-0.465 3.97 -0.465 3.97 -4 7 C-4 4 -4 4 -2 1.8125 C-1.34 1.214375 -0.68 0.61625 0 0 Z " fill="#C1CFE3" transform="translate(713,754)"/>
<path d="M0 0 C0.66 0.66 1.32 1.32 2 2 C0.02 3.98 -1.96 5.96 -4 8 C-4.66 7.67 -5.32 7.34 -6 7 C-4.02 4.69 -2.04 2.38 0 0 Z " fill="#6C829F" transform="translate(361,144)"/>
<path d="M0 0 C0.99 0.33 1.98 0.66 3 1 C1.35 2.65 -0.3 4.3 -2 6 C-2.99 5.67 -3.98 5.34 -5 5 C-3.35 3.35 -1.7 1.7 0 0 Z " fill="#6C82A0" transform="translate(532,102)"/>
<path d="M0 0 C0.33 0 0.66 0 1 0 C2.0070238 5.03511899 1.97387813 8.23947038 0 13 C-0.33 13 -0.66 13 -1 13 C-1.07654536 8.48382401 -1.10228696 4.40914783 0 0 Z " fill="#8EA0B7" transform="translate(65,752)"/>
<path d="M0 0 C0.33 0 0.66 0 1 0 C0.125 6.75 0.125 6.75 -1 9 C-1.66 9 -2.32 9 -3 9 C-2.01 6.03 -1.02 3.06 0 0 Z " fill="#798EAA" transform="translate(53,562)"/>
<path d="M0 0 C0 0.66 0 1.32 0 2 C-4.43076923 4.09230769 -4.43076923 4.09230769 -7.3125 3.625 C-7.869375 3.41875 -8.42625 3.2125 -9 3 C-3.375 0 -3.375 0 0 0 Z " fill="#798DA7" transform="translate(406,114)"/>
</svg>
